<?xml version="1.0" standalone="no"?>
<!DOCTYPE svg PUBLIC "-//W3C//DTD SVG 1.1//EN" "http://www.w3.org/Graphics/SVG/1.1/DTD/svg11.dtd" >
<svg xmlns="http://www.w3.org/2000/svg">
<metadata>
This is a custom SVG webfont generated by Font Squirrel.
Copyright   : Copyright c 20042009 by American Philological Association This Font Software is licensed under the SIL Open Font License Version 11 httpscriptssilorgOFL
Designer    : J Rusten 1997 rev by R Hancock 2001 2002 rev by D Mastronarde 20022009
Foundry     : American Philological Association
Foundry EOS_BASEURL : httpwwwapaclassicsorg
</metadata>
<defs>
<font id="webfontASYwqq0w" horiz-adv-x="0" >
<font-face units-per-em="2048" ascent="1638" descent="-410" />
<missing-glyph horiz-adv-x="483" />
<glyph unicode="A&#x300;" horiz-adv-x="1310" d="M0 0v43q100 16 147 86l21 34q10 17 16 36l17 38q10 24 24 62l47 111l371 888h37l469 -1110q31 -80 65 -110q31 -27 109 -35v-43h-506v43h53q106 0 107 70q0 16 -23 69l-118 289h-488l-72 -172q-35 -86 -34 -139q0 -51 36.5 -84t94.5 -33h8v-43h-381zM367 514h450 l-225 545zM393 1618q0 59 64 59q51 0 116 -123l109 -200h-37l-188 170q-64 55 -64 94z" />
<glyph unicode="A&#x301;" horiz-adv-x="1316" d="M0 0v43q100 16 147 86l21 34q10 17 16 36l17 38q10 24 24 62l47 111l371 888h37l469 -1110q31 -80 65 -110q31 -27 109 -35v-43h-506v43h53q106 0 107 70q0 16 -23 69l-118 289h-488l-72 -172q-35 -86 -34 -139q0 -51 36.5 -84t94.5 -33h8v-43h-381zM367 514h450 l-225 545zM643 1352l111 182q68 113 118 113q59 0 60 -58q0 -37 -62 -84l-18 -12l-170 -141h-39z" />
<glyph unicode="A&#x302;" horiz-adv-x="1316" d="M0 0v43q100 16 147 86l21 34q10 17 16 36l17 38q10 24 24 62l47 111l371 888h37l469 -1110q31 -80 65 -110q31 -27 109 -35v-43h-506v43h53q106 0 107 70q0 16 -23 69l-118 289h-488l-72 -172q-35 -86 -34 -139q0 -51 36.5 -84t94.5 -33h8v-43h-381zM354 1276l242 321 h119l241 -321h-65l-236 199l-233 -199h-68zM367 514h450l-225 545z" />
<glyph unicode="A&#x303;" horiz-adv-x="1316" d="M0 0v43q100 16 147 86l21 34q10 17 16 36l17 38q10 24 24 62l47 111l371 888h37l469 -1110q31 -80 65 -110q31 -27 109 -35v-43h-506v43h53q106 0 107 70q0 16 -23 69l-118 289h-488l-72 -172q-35 -86 -34 -139q0 -51 36.5 -84t94.5 -33h8v-43h-381zM334 1341 q16 84 65 138q59 66 133 65q59 0 155.5 -48t135.5 -48q72 0 109 100h47l6 -6q-16 -76 -67 -139q-57 -70 -138 -70q-57 0 -152.5 49.5t-133.5 49.5q-74 0 -111 -97h-47zM367 514h450l-225 545z" />
<glyph unicode="A&#x308;" horiz-adv-x="1316" d="M0 0v43q100 16 147 86l21 34q10 17 16 36l17 38q10 24 24 62l47 111l371 888h37l469 -1110q31 -80 65 -110q31 -27 109 -35v-43h-506v43h53q106 0 107 70q0 16 -23 69l-118 289h-488l-72 -172q-35 -86 -34 -139q0 -51 36.5 -84t94.5 -33h8v-43h-381zM367 514h450 l-225 545zM414 1454q0 31 22.5 52.5t52.5 21.5q31 0 52.5 -21.5t21.5 -50.5q0 -33 -20.5 -57.5t-50.5 -24.5q-33 0 -55.5 23.5t-22.5 56.5zM756 1452q0 31 22.5 52.5t55.5 21.5q31 0 52 -22.5t21 -53.5t-21.5 -53.5t-49.5 -22.5q-33 0 -56.5 23.5t-23.5 54.5z" />
<glyph unicode="A&#x30a;" horiz-adv-x="1323" d="M0 0v43q100 16 147 86l21 34q10 17 16 36l17 38q10 24 24 62l47 111l371 888h37l469 -1110q31 -80 65 -110q31 -27 109 -35v-43h-506v43h53q106 0 107 70q0 16 -23 69l-118 289h-488l-72 -172q-35 -86 -34 -139q0 -51 36.5 -84t94.5 -33h8v-43h-381zM367 514h450 l-225 545zM479 1516q0 39 13.5 70.5t38 56t56 39t66.5 14.5q39 0 72 -15.5t58.5 -39t40 -56.5t14.5 -69q0 -35 -13.5 -67t-38 -56.5t-57.5 -38t-67 -13.5q-37 0 -72 13.5t-58.5 38t-38 56.5t-14.5 67zM535 1516q0 -49 35.5 -85t86.5 -36t87 33.5t36 80.5q0 57 -36.5 95 t-88.5 38q-51 0 -85.5 -35.5t-34.5 -90.5z" />
<glyph unicode="C&#x327;" horiz-adv-x="1370" d="M90 633q0 322 180 526q176 201 463 201q174 0 314 -78q98 -55 153 -121q18 43 31.5 86t17.5 88h43v-506h-30q-39 236 -150 349q-133 131 -340 131q-221 0 -338 -175.5t-117 -502.5q0 -268 129 -433t340 -165q43 0 88.5 7t88.5 23.5t78.5 39t62.5 47.5q59 57 110 174 q39 86 48 176h41v-465h-41q-18 78 -62 141q-145 -158 -354 -188l-21 -58q25 8 56 9q94 0 133 -54q6 -8 16 -28q12 -10 12 -54q0 -33 -22 -75q-57 -86 -213 -86q-18 0 -45 4q-35 4 -47 4l-74 22l27 60l16 -4q78 -18 100 -19q68 0 95 29q18 18 18 61t-39 56q-14 10 -31 10 q-37 4 -88 -10l-12 12l47 115q-18 -2 -37 -2q-283 0 -465 182t-182 471z" />
<glyph unicode="E&#x300;" horiz-adv-x="1179" d="M61 0v43h25q117 0 142.5 43t25.5 246v629q0 197 -25 235q-20 41 -127 41h-16v43h918l28 -319h-45q-39 162 -96 215q-68 61 -199 61h-256v-539h135q125 0 158 31q37 33 37 145v17h45v-438h-45v16q0 119 -37 152q-33 33 -151 32h-142v-301q0 -238 35 -274q31 -35 154 -35 h94q166 0 250 84q90 92 135 270h45l-29 -397h-1059zM270 1599q0 55 64 56q51 0 117 -113l108 -182h-37l-188 153q-64 51 -64 86z" />
<glyph unicode="E&#x301;" horiz-adv-x="1179" d="M61 0v43h25q117 0 142.5 43t25.5 246v629q0 197 -25 235q-20 41 -127 41h-16v43h918l28 -319h-45q-39 162 -96 215q-68 61 -199 61h-256v-539h135q125 0 158 31q37 33 37 145v17h45v-438h-45v16q0 119 -37 152q-33 33 -151 32h-142v-301q0 -238 35 -274q31 -35 154 -35 h94q166 0 250 84q90 92 135 270h45l-29 -397h-1059zM598 1364l109 182q68 113 118 113q59 0 60 -57q0 -37 -62 -84l-188 -154h-37z" />
<glyph unicode="E&#x302;" horiz-adv-x="1179" d="M61 0v43h25q117 0 142.5 43t25.5 246v629q0 197 -25 235q-20 41 -127 41h-16v43h918l28 -319h-45q-39 162 -96 215q-68 61 -199 61h-256v-539h135q125 0 158 31q37 33 37 145v17h45v-438h-45v16q0 119 -37 152q-33 33 -151 32h-142v-301q0 -238 35 -274q31 -35 154 -35 h94q166 0 250 84q90 92 135 270h45l-29 -397h-1059zM317 1348l240 321h121l242 -321h-66l-236 198l-233 -198h-68z" />
<glyph unicode="E&#x308;" horiz-adv-x="1179" d="M61 0v43h25q117 0 142.5 43t25.5 246v629q0 197 -25 235q-20 41 -127 41h-16v43h918l28 -319h-45q-39 162 -96 215q-68 61 -199 61h-256v-539h135q125 0 158 31q37 33 37 145v17h45v-438h-45v16q0 119 -37 152q-33 33 -151 32h-142v-301q0 -238 35 -274q31 -35 154 -35 h94q166 0 250 84q90 92 135 270h45l-29 -397h-1059zM360 1452q0 33 23 53.5t53 20.5q33 0 54.5 -20.5t21.5 -51.5q0 -33 -21.5 -56.5t-52.5 -23.5q-33 0 -55.5 22.5t-22.5 55.5zM702 1450q0 33 23 53.5t55 20.5q31 0 53.5 -21.5t22.5 -52.5q0 -33 -21.5 -54.5t-52.5 -21.5 q-33 0 -56.5 22.5t-23.5 53.5z" />
<glyph unicode="I&#x300;" horiz-adv-x="677" d="M49 0v43h37q115 0 137 43q27 43 27 246v629q0 197 -23 233q-20 33 -67 41q-6 2 -29 2h-53h-29v43h588v-43h-31h-53q-20 0 -29 -2q-45 -8 -65 -41q-25 -41 -25 -233v-629q0 -203 25 -246t139 -43h39v-43h-588zM100 1599q0 55 64 56q51 0 117 -113l108 -182h-37l-188 153 q-64 51 -64 86z" />
<glyph unicode="I&#x301;" horiz-adv-x="681" d="M49 0v43h37q115 0 137 43q27 43 27 246v629q0 197 -23 233q-20 33 -67 41q-6 2 -29 2h-53h-29v43h588v-43h-31h-53q-20 0 -29 -2q-45 -8 -65 -41q-25 -41 -25 -233v-629q0 -203 25 -246t139 -43h39v-43h-588zM324 1368l108 184q70 113 119 113q59 0 59 -57q0 -37 -61 -84 l-189 -156h-36z" />
<glyph unicode="I&#x302;" horiz-adv-x="677" d="M45 1343l242 322h119l241 -322h-65l-236 199l-233 -199h-68zM49 0v43h37q115 0 137 43q27 43 27 246v629q0 197 -23 233q-20 33 -67 41q-6 2 -29 2h-53h-29v43h588v-43h-31h-53q-20 0 -29 -2q-45 -8 -65 -41q-25 -41 -25 -233v-629q0 -203 25 -246t139 -43h39v-43h-588z " />
<glyph unicode="I&#x308;" horiz-adv-x="677" d="M49 0v43h37q115 0 137 43q27 43 27 246v629q0 197 -23 233q-20 33 -67 41q-6 2 -29 2h-53h-29v43h588v-43h-31h-53q-20 0 -29 -2q-45 -8 -65 -41q-25 -41 -25 -233v-629q0 -203 25 -246t139 -43h39v-43h-588zM98 1456q0 31 22.5 52.5t53.5 21.5t53.5 -21.5t22.5 -50.5 q0 -33 -21.5 -57.5t-52.5 -24.5q-33 0 -55.5 23.5t-22.5 56.5zM440 1454q0 31 22.5 52.5t55.5 21.5q31 0 53.5 -22.5t22.5 -53.5t-21.5 -53.5t-52.5 -22.5q-33 0 -56.5 23.5t-23.5 54.5z" />
<glyph unicode="N&#x303;" horiz-adv-x="1449" d="M33 0v43q137 8 172 49t35 191v678q0 190 -27 233t-154 43h-10v43h377l754 -1001h4v763q0 57 -10.5 94.5t-35 59t-66.5 31.5t-105 10v43h463v-43q-119 -10 -160 -53q-39 -41 -39 -154v-1057h-41l-899 1196h-4v-950q0 -96 49 -136t174 -40v-43h-477zM438 1356q16 82 68 137 q57 66 133 66q57 0 153.5 -49.5t135.5 -49.5q72 0 108 103h47l7 -7q-16 -78 -66 -141q-59 -68 -139 -67q-57 0 -151.5 48t-135.5 48q-74 0 -111 -94h-47z" />
<glyph unicode="O&#x300;" horiz-adv-x="1574" d="M109 649q0 289 192 469q197 184 502 185q68 0 137.5 -11.5t134 -34t120.5 -54.5t103 -73q203 -180 203 -520q0 -272 -196 -452q-195 -178 -490 -178q-317 0 -514 182q-192 182 -192 487zM326 641q0 -256 84 -412q37 -66 102 -116q119 -90 305 -90q221 0 344 158.5 t123 445.5q0 309 -123 468.5t-358 159.5q-236 0 -356.5 -157.5t-120.5 -456.5zM532 1591q0 57 62 58q51 0 117 -113l108 -182h-37l-188 153q-62 49 -62 84z" />
<glyph unicode="O&#x301;" horiz-adv-x="1574" d="M109 649q0 289 192 469q197 184 502 185q68 0 137.5 -11.5t134 -34t120.5 -54.5t103 -73q203 -180 203 -520q0 -272 -196 -452q-195 -178 -490 -178q-317 0 -514 182q-192 182 -192 487zM326 641q0 -256 84 -412q37 -66 102 -116q119 -90 305 -90q221 0 344 158.5 t123 445.5q0 309 -123 468.5t-358 159.5q-236 0 -356.5 -157.5t-120.5 -456.5zM797 1360l108 182q70 113 119 113q59 0 59 -58q0 -37 -61 -84l-188 -153h-37z" />
<glyph unicode="O&#x302;" horiz-adv-x="1574" d="M109 649q0 289 192 469q197 184 502 185q68 0 137.5 -11.5t134 -34t120.5 -54.5t103 -73q203 -180 203 -520q0 -272 -196 -452q-195 -178 -490 -178q-317 0 -514 182q-192 182 -192 487zM326 641q0 -256 84 -412q37 -66 102 -116q119 -90 305 -90q221 0 344 158.5 t123 445.5q0 309 -123 468.5t-358 159.5q-236 0 -356.5 -157.5t-120.5 -456.5zM520 1348l242 321h119l241 -321h-65l-236 198l-233 -198h-68z" />
<glyph unicode="O&#x303;" horiz-adv-x="1568" d="M109 649q0 289 192 469q197 184 502 185q68 0 137.5 -11.5t134 -34t120.5 -54.5t103 -73q203 -180 203 -520q0 -272 -196 -452q-195 -178 -490 -178q-317 0 -514 182q-192 182 -192 487zM326 641q0 -256 84 -412q37 -66 102 -116q119 -90 305 -90q221 0 344 158.5 t123 445.5q0 309 -123 468.5t-358 159.5q-236 0 -356.5 -157.5t-120.5 -456.5zM494 1366q16 84 65 137q57 68 133 68q57 0 153.5 -49t135.5 -49q72 0 109 102h49l6 -6q-18 -78 -68 -142q-57 -68 -139 -67q-57 0 -151.5 48t-133.5 48q-76 0 -112 -94h-45z" />
<glyph unicode="O&#x308;" horiz-adv-x="1568" d="M109 649q0 289 192 469q197 184 502 185q68 0 137.5 -11.5t134 -34t120.5 -54.5t103 -73q203 -180 203 -520q0 -272 -196 -452q-195 -178 -490 -178q-317 0 -514 182q-192 182 -192 487zM326 641q0 -256 84 -412q37 -66 102 -116q119 -90 305 -90q221 0 344 158.5 t123 445.5q0 309 -123 468.5t-358 159.5q-236 0 -356.5 -157.5t-120.5 -456.5zM543 1456q0 33 22.5 53.5t52.5 20.5q31 0 53.5 -20.5t22.5 -51.5q0 -33 -21.5 -56.5t-51.5 -23.5q-33 0 -55.5 22.5t-22.5 55.5zM885 1454q0 33 22.5 53.5t55.5 20.5q31 0 53 -21.5t22 -54.5 q0 -31 -21.5 -52.5t-51.5 -21.5q-33 0 -56.5 22.5t-23.5 53.5z" />
<glyph unicode="U&#x300;" horiz-adv-x="1488" d="M39 1237v43h584v-43h-25q-72 0 -82 -2q-47 -8 -67 -41q-23 -41 -23 -233v-517q0 -252 129 -338q96 -66 238 -65q145 0 260 70q115 74 143 184q16 63 16 141q0 2 1 40t1 73v434q0 154 -34 197q-35 49 -160 57v43h430v-43q-100 -8 -144 -52t-44 -145v-598q0 -219 -109 -323 q-143 -139 -405 -139q-322 0 -445 184q-68 100 -63 272v525q2 195 -23 233q-16 31 -65 41q-8 2 -29 2h-55h-29zM512 1591q0 57 61 58q53 0 117 -113l111 -182h-37l-191 153q-61 49 -61 84z" />
<glyph unicode="U&#x301;" horiz-adv-x="1488" d="M39 1237v43h584v-43h-25q-72 0 -82 -2q-47 -8 -67 -41q-23 -41 -23 -233v-517q0 -252 129 -338q96 -66 238 -65q145 0 260 70q115 74 143 184q16 63 16 141q0 2 1 40t1 73v434q0 154 -34 197q-35 49 -160 57v43h430v-43q-100 -8 -144 -52t-44 -145v-598q0 -219 -109 -323 q-143 -139 -405 -139q-322 0 -445 184q-68 100 -63 272v525q2 195 -23 233q-16 31 -65 41q-8 2 -29 2h-55h-29zM791 1350l108 182q70 113 119 113q59 0 59 -58q0 -37 -61 -84l-19 -12l-170 -141h-36z" />
<glyph unicode="U&#x302;" horiz-adv-x="1488" d="M39 1237v43h584v-43h-25q-72 0 -82 -2q-47 -8 -67 -41q-23 -41 -23 -233v-517q0 -252 129 -338q96 -66 238 -65q145 0 260 70q115 74 143 184q16 63 16 141q0 2 1 40t1 73v434q0 154 -34 197q-35 49 -160 57v43h430v-43q-100 -8 -144 -52t-44 -145v-598q0 -219 -109 -323 q-143 -139 -405 -139q-322 0 -445 184q-68 100 -63 272v525q2 195 -23 233q-16 31 -65 41q-8 2 -29 2h-55h-29zM496 1354l239 321h121l242 -321h-66l-235 198l-236 -198h-65z" />
<glyph unicode="U&#x308;" horiz-adv-x="1488" d="M39 1237v43h584v-43h-25q-72 0 -82 -2q-47 -8 -67 -41q-23 -41 -23 -233v-517q0 -252 129 -338q96 -66 238 -65q145 0 260 70q115 74 143 184q16 63 16 141q0 2 1 40t1 73v434q0 154 -34 197q-35 49 -160 57v43h430v-43q-100 -8 -144 -52t-44 -145v-598q0 -219 -109 -323 q-143 -139 -405 -139q-322 0 -445 184q-68 100 -63 272v525q2 195 -23 233q-16 31 -65 41q-8 2 -29 2h-55h-29zM563 1454q0 31 22.5 52.5t55.5 21.5q31 0 52.5 -21.5t21.5 -50.5q0 -33 -20.5 -57.5t-53.5 -24.5t-55.5 23.5t-22.5 56.5zM905 1452q0 31 22.5 52.5t55.5 21.5 t54.5 -22.5t21.5 -53.5t-21.5 -53.5t-52.5 -22.5q-33 0 -56.5 23.5t-23.5 54.5z" />
<glyph unicode="Y&#x301;" horiz-adv-x="1308" d="M0 1237v43h518v-43h-10q-135 0 -135 -66q0 -29 49 -106l305 -506l285 477q29 45 28 94q0 106 -141 107h-8v43h418v-43q-86 -16 -144 -70q-53 -49 -133 -186l-287 -479v-170q0 -203 23 -246q27 -43 139 -43h19v-43h-545v43h18q117 0 140 43q25 43 24 246v160l-373 608 q-51 84 -86 108q-30 27 -104 29zM598 1354l111 184q66 113 118 113q59 0 60 -58q0 -35 -62 -84l-186 -155h-41z" />
<glyph unicode="a&#x300;" horiz-adv-x="956" d="M80 152q0 121 137 208q98 63 238 125l155 62v41q0 125 -41 173t-147 48q-150 0 -164 -90l-4 -23q-18 -90 -86 -90q-57 0 -57 60q0 72 96 129q98 57 231 57q248 0 301 -154q14 -35 15 -133v-401q0 -111 65 -111q63 0 82 99h37q-10 -166 -168 -166q-133 0 -160 139 q-203 -139 -329 -139q-86 0 -143.5 47t-57.5 119zM207 1192q0 55 61 55q53 0 117 -110l111 -185h-37l-191 156q-61 49 -61 84zM244 195q0 -143 123 -144q88 0 243 127v322l-110 -45q-256 -104 -256 -260z" />
<glyph unicode="a&#x301;" horiz-adv-x="956" d="M80 152q0 121 137 208q98 63 238 125l155 62v41q0 125 -41 173t-147 48q-150 0 -164 -90l-4 -23q-18 -90 -86 -90q-57 0 -57 60q0 72 96 129q98 57 231 57q248 0 301 -154q14 -35 15 -133v-401q0 -111 65 -111q63 0 82 99h37q-10 -166 -168 -166q-133 0 -160 139 q-203 -139 -329 -139q-86 0 -143.5 47t-57.5 119zM244 195q0 -143 123 -144q88 0 243 127v322l-110 -45q-256 -104 -256 -260zM469 952l109 185q68 111 118 110q59 0 60 -55q0 -37 -62 -84l-188 -156h-37z" />
<glyph unicode="a&#x302;" horiz-adv-x="956" d="M80 152q0 121 137 208q98 63 238 125l155 62v41q0 125 -41 173t-147 48q-150 0 -164 -90l-4 -23q-18 -90 -86 -90q-57 0 -57 60q0 72 96 129q98 57 231 57q248 0 301 -154q14 -35 15 -133v-401q0 -111 65 -111q63 0 82 99h37q-10 -166 -168 -166q-133 0 -160 139 q-203 -139 -329 -139q-86 0 -143.5 47t-57.5 119zM174 952l242 324h119l241 -324h-65l-236 201l-233 -201h-68zM244 195q0 -143 123 -144q88 0 243 127v322l-110 -45q-256 -104 -256 -260z" />
<glyph unicode="a&#x303;" horiz-adv-x="956" d="M80 152q0 121 137 208q98 63 238 125l155 62v41q0 125 -41 173t-147 48q-150 0 -164 -90l-4 -23q-18 -90 -86 -90q-57 0 -57 60q0 72 96 129q98 57 231 57q248 0 301 -154q14 -35 15 -133v-401q0 -111 65 -111q63 0 82 99h37q-10 -166 -168 -166q-133 0 -160 139 q-203 -139 -329 -139q-86 0 -143.5 47t-57.5 119zM141 961q16 84 66 137q57 66 133 65q57 0 154.5 -48t136.5 -48q70 0 106 100h49l7 -6q-18 -76 -68 -139q-57 -70 -137 -70q-59 0 -153.5 49.5t-133.5 49.5q-76 0 -113 -97h-45zM244 195q0 -143 123 -144q88 0 243 127v322 l-110 -45q-256 -104 -256 -260z" />
<glyph unicode="a&#x308;" horiz-adv-x="956" d="M80 152q0 121 137 208q98 63 238 125l155 62v41q0 125 -41 173t-147 48q-150 0 -164 -90l-4 -23q-18 -90 -86 -90q-57 0 -57 60q0 72 96 129q98 57 231 57q248 0 301 -154q14 -35 15 -133v-401q0 -111 65 -111q63 0 82 99h37q-10 -166 -168 -166q-133 0 -160 139 q-203 -139 -329 -139q-86 0 -143.5 47t-57.5 119zM197 1032q0 31 22.5 52.5t52.5 21.5q31 0 53.5 -21.5t22.5 -50.5q0 -33 -21.5 -57.5t-52.5 -24.5q-33 0 -55 23.5t-22 56.5zM244 195q0 -143 123 -144q88 0 243 127v322l-110 -45q-256 -104 -256 -260zM539 1030 q0 31 22.5 52.5t54.5 21.5q31 0 53.5 -22.5t22.5 -53.5t-21.5 -53.5t-52.5 -22.5q-33 0 -56 23.5t-23 54.5z" />
<glyph unicode="a&#x30a;" horiz-adv-x="956" d="M80 152q0 121 137 208q98 63 238 125l155 62v41q0 125 -41 173t-147 48q-150 0 -164 -90l-4 -23q-18 -90 -86 -90q-57 0 -57 60q0 72 96 129q98 57 231 57q248 0 301 -154q14 -35 15 -133v-401q0 -111 65 -111q63 0 82 99h37q-10 -166 -168 -166q-133 0 -160 139 q-203 -139 -329 -139q-86 0 -143.5 47t-57.5 119zM205 1126q0 37 13 70t38 57.5t56.5 38t66.5 13.5q39 0 71.5 -14.5t57 -38t39 -57.5t14.5 -69t-13 -67.5t-37 -56t-55.5 -37t-70.5 -13.5q-35 0 -68.5 13.5t-58.5 37t-39 56t-14 67.5zM244 195q0 -143 123 -144q88 0 243 127 v322l-110 -45q-256 -104 -256 -260zM260 1126q0 -51 36 -86.5t87 -35.5t87 33.5t36 82.5q0 55 -37 94t-88 39t-86 -37t-35 -90z" />
<glyph unicode="c&#x327;" horiz-adv-x="858" d="M72 391q0 201 123 330q123 131 311 131q113 0 199 -49q86 -47 86 -111q0 -70 -62 -69q-74 0 -82 63l-4 27q-16 92 -137 92q-266 0 -266 -375q0 -195 77 -309q70 -100 222 -101q188 0 243 181h45q-61 -197 -262 -226l-26 -73q23 8 57 8q92 0 129 -53q8 -8 18 -29 q12 -10 13 -53q0 -33 -23 -76q-57 -86 -213 -86q-18 0 -45 4q-35 4 -47 4l-74 23l27 59l16 -4q78 -18 101 -18q68 0 96 28q16 18 16 62q0 43 -39 55q-16 10 -30 10q-37 4 -86 -10l-15 12l56 131h-9q-176 0 -297 121q-118 119 -118 301z" />
<glyph unicode="e&#x300;" horiz-adv-x="847" d="M76 401q0 195 112 322q113 129 281 129q150 0 246 -88q100 -86 102 -221h-569l-2 -19q-2 -10 -2 -26v-43q0 -266 94 -363q72 -72 174 -72q180 0 258 164h47q-33 -98 -124 -156.5t-210 -58.5q-174 0 -290.5 123t-116.5 309zM223 1192q0 55 64 55q51 0 116 -110l109 -185 h-37l-188 156q-64 49 -64 84zM252 582h391q2 10 2 20v21q0 86 -48 136t-130 50q-182 0 -215 -227z" />
<glyph unicode="e&#x301;" horiz-adv-x="847" d="M76 401q0 195 112 322q113 129 281 129q150 0 246 -88q100 -86 102 -221h-569l-2 -19q-2 -10 -2 -26v-43q0 -266 94 -363q72 -72 174 -72q180 0 258 164h47q-33 -98 -124 -156.5t-210 -58.5q-174 0 -290.5 123t-116.5 309zM252 582h391q2 10 2 20v21q0 86 -48 136 t-130 50q-182 0 -215 -227zM422 952l110 185q68 111 117 110q61 0 62 -55q0 -37 -64 -84l-186 -156h-39z" />
<glyph unicode="e&#x302;" horiz-adv-x="847" d="M76 401q0 195 112 322q113 129 281 129q150 0 246 -88q100 -86 102 -221h-569l-2 -19q-2 -10 -2 -26v-43q0 -266 94 -363q72 -72 174 -72q180 0 258 164h47q-33 -98 -124 -156.5t-210 -58.5q-174 0 -290.5 123t-116.5 309zM172 952l242 324h118l242 -324h-65l-236 201 l-233 -201h-68zM252 582h391q2 10 2 20v21q0 86 -48 136t-130 50q-182 0 -215 -227z" />
<glyph unicode="e&#x308;" horiz-adv-x="847" d="M76 401q0 195 112 322q113 129 281 129q150 0 246 -88q100 -86 102 -221h-569l-2 -19q-2 -10 -2 -26v-43q0 -266 94 -363q72 -72 174 -72q180 0 258 164h47q-33 -98 -124 -156.5t-210 -58.5q-174 0 -290.5 123t-116.5 309zM211 1032q0 31 22.5 52.5t53.5 21.5t52 -21.5 t21 -50.5q0 -33 -20.5 -57.5t-50.5 -24.5q-33 0 -55.5 23.5t-22.5 56.5zM252 582h391q2 10 2 20v21q0 86 -48 136t-130 50q-182 0 -215 -227zM553 1030q0 31 22.5 52.5t55.5 21.5q31 0 52.5 -22.5t21.5 -53.5t-21.5 -53.5t-50.5 -22.5q-35 0 -57.5 23.5t-22.5 54.5z" />
<glyph unicode="i&#x300;" horiz-adv-x="507" d="M16 1192q0 55 62 55q51 0 117 -110l108 -185h-37l-188 156q-62 49 -62 84zM31 0v47h32q74 0 97.5 22.5t23.5 102.5v352q0 158 -20 193q-18 33 -107 33h-26v47q86 10 153.5 21t120.5 34h23v-573q0 -166 14 -193q20 -39 104 -39h23v-47h-438z" />
<glyph unicode="i&#x301;" horiz-adv-x="507" d="M31 0v47h32q74 0 97.5 22.5t23.5 102.5v352q0 158 -20 193q-18 33 -107 33h-26v47q86 10 153.5 21t120.5 34h23v-573q0 -166 14 -193q20 -39 104 -39h23v-47h-438zM164 952l110 185q68 111 117 110q61 0 62 -55q0 -37 -64 -84l-186 -156h-39z" />
<glyph unicode="i&#x302;" horiz-adv-x="520" d="M-39 952l242 324h121l239 -324h-63l-238 201l-233 -201h-68zM31 0v47h32q74 0 97.5 22.5t23.5 102.5v352q0 158 -20 193q-18 33 -107 33h-26v47q86 10 153.5 21t120.5 34h23v-573q0 -166 14 -193q20 -39 104 -39h23v-47h-438z" />
<glyph unicode="i&#x308;" horiz-adv-x="514" d="M23 1032q0 31 22.5 52.5t52.5 21.5q31 0 53.5 -21.5t22.5 -50.5q0 -33 -21.5 -57.5t-52.5 -24.5q-33 0 -55 23.5t-22 56.5zM31 0v47h32q74 0 97.5 22.5t23.5 102.5v352q0 158 -20 193q-18 33 -107 33h-26v47q86 10 153.5 21t120.5 34h23v-573q0 -166 14 -193 q20 -39 104 -39h23v-47h-438zM365 1030q0 31 22.5 52.5t54.5 21.5q31 0 53.5 -22.5t22.5 -53.5t-21.5 -53.5t-52.5 -22.5q-33 0 -56 23.5t-23 54.5z" />
<glyph unicode="n&#x303;" horiz-adv-x="1024" d="M53 0v43h15q70 0 92 22.5t22 98.5v332q0 164 -12 184q-18 37 -102 37h-15v43q111 12 195 39l18 6h27q8 -33 15 -72t9 -90q133 162 297 162q176 0 226 -133q18 -49 18 -88v-320q0 -158 12 -182q23 -39 105 -39h10v-43h-395v43h18q70 0 92.5 22.5t22.5 98.5v416 q0 164 -162 163q-133 0 -244 -163v-316q0 -162 13 -182q25 -39 102 -39h12v-43h-391zM139 961q16 84 66 137q57 66 133 65q57 0 154.5 -48t136.5 -48q70 0 106 100h49l7 -6q-18 -76 -68 -139q-57 -70 -137 -70q-59 0 -153.5 49.5t-133.5 49.5q-76 0 -113 -97h-45z" />
<glyph unicode="o&#x300;" horiz-adv-x="1017" d="M72 412q0 188 125 313q127 127 311 127t311 -127t127 -313q0 -195 -125 -320q-123 -123 -313 -123q-188 0 -313 123q-123 125 -123 320zM240 406q0 -393 268 -394q141 0 205.5 94.5t64.5 299.5q0 399 -270 399q-268 0 -268 -399zM244 1192q0 55 61 55q53 0 119 -110 l108 -185h-32l-195 156q-61 49 -61 84z" />
<glyph unicode="o&#x301;" horiz-adv-x="1017" d="M72 412q0 188 125 313q127 127 311 127t311 -127t127 -313q0 -195 -125 -320q-123 -123 -313 -123q-188 0 -313 123q-123 125 -123 320zM240 406q0 -393 268 -394q141 0 205.5 94.5t64.5 299.5q0 399 -270 399q-268 0 -268 -399zM485 952l111 185q68 111 117 110 q59 0 59 -55q0 -37 -61 -84l-189 -156h-37z" />
<glyph unicode="o&#x302;" horiz-adv-x="1017" d="M72 412q0 188 125 313q127 127 311 127t311 -127t127 -313q0 -195 -125 -320q-123 -123 -313 -123q-188 0 -313 123q-123 125 -123 320zM203 952l241 324h119l242 -324h-66l-235 201l-234 -201h-67zM240 406q0 -393 268 -394q141 0 205.5 94.5t64.5 299.5q0 399 -270 399 q-268 0 -268 -399z" />
<glyph unicode="o&#x303;" horiz-adv-x="1017" d="M72 412q0 188 125 313q127 127 311 127t311 -127t127 -313q0 -195 -125 -320q-123 -123 -313 -123q-188 0 -313 123q-123 125 -123 320zM186 961q16 84 68 137q57 66 131 65q59 0 155.5 -48t135.5 -48q72 0 108 100h47l7 -6q-16 -76 -68 -139q-57 -70 -137 -70 q-57 0 -152.5 49.5t-134.5 49.5q-74 0 -110 -97h-48zM240 406q0 -393 268 -394q141 0 205.5 94.5t64.5 299.5q0 399 -270 399q-268 0 -268 -399z" />
<glyph unicode="o&#x308;" horiz-adv-x="1017" d="M72 412q0 188 125 313q127 127 311 127t311 -127t127 -313q0 -195 -125 -320q-123 -123 -313 -123q-188 0 -313 123q-123 125 -123 320zM240 406q0 -393 268 -394q141 0 205.5 94.5t64.5 299.5q0 399 -270 399q-268 0 -268 -399zM252 1032q0 31 22.5 52.5t53.5 21.5 t52 -21.5t21 -50.5q0 -33 -20.5 -57.5t-50.5 -24.5q-33 0 -55.5 23.5t-22.5 56.5zM594 1030q0 31 22.5 52.5t55.5 21.5q31 0 52 -22.5t21 -53.5t-21.5 -53.5t-49.5 -22.5q-33 0 -56.5 23.5t-23.5 54.5z" />
<glyph unicode="u&#x300;" horiz-adv-x="1099" d="M49 805v47h289v-590q0 -125 37 -175t129 -50q117 0 209 108q45 55 57 105q10 31 10 117v194q0 174 -16 201q-23 43 -113 43h-20v47h297v-557q0 -184 14 -205q23 -43 109 -43h8v-47h-21q-127 0 -213 -33h-10q-33 55 -33 197h-4q-127 -197 -332 -197q-84 0 -153.5 44 t-87.5 112q-14 47 -15 147v291q0 174 -16 201q-23 43 -113 43h-12zM283 1192q0 55 61 55q51 0 117 -110l108 -185h-37l-188 156q-61 49 -61 84z" />
<glyph unicode="u&#x301;" horiz-adv-x="1099" d="M49 805v47h289v-590q0 -125 37 -175t129 -50q117 0 209 108q45 55 57 105q10 31 10 117v194q0 174 -16 201q-23 43 -113 43h-20v47h297v-557q0 -184 14 -205q23 -43 109 -43h8v-47h-21q-127 0 -213 -33h-10q-33 55 -33 197h-4q-127 -197 -332 -197q-84 0 -153.5 44 t-87.5 112q-14 47 -15 147v291q0 174 -16 201q-23 43 -113 43h-12zM451 952l108 185q70 111 119 110q59 0 59 -55q0 -37 -61 -84l-189 -156h-36z" />
<glyph unicode="u&#x302;" horiz-adv-x="1099" d="M49 805v47h289v-590q0 -125 37 -175t129 -50q117 0 209 108q45 55 57 105q10 31 10 117v194q0 174 -16 201q-23 43 -113 43h-20v47h297v-557q0 -184 14 -205q23 -43 109 -43h8v-47h-21q-127 0 -213 -33h-10q-33 55 -33 197h-4q-127 -197 -332 -197q-84 0 -153.5 44 t-87.5 112q-14 47 -15 147v291q0 174 -16 201q-23 43 -113 43h-12zM162 952l239 324h121l242 -324h-66l-235 201l-236 -201h-65z" />
<glyph unicode="u&#x308;" horiz-adv-x="1099" d="M49 805v47h289v-590q0 -125 37 -175t129 -50q117 0 209 108q45 55 57 105q10 31 10 117v194q0 174 -16 201q-23 43 -113 43h-20v47h297v-557q0 -184 14 -205q23 -43 109 -43h8v-47h-21q-127 0 -213 -33h-10q-33 55 -33 197h-4q-127 -197 -332 -197q-84 0 -153.5 44 t-87.5 112q-14 47 -15 147v291q0 174 -16 201q-23 43 -113 43h-12zM238 1032q0 31 22.5 52.5t52.5 21.5q31 0 52.5 -21.5t21.5 -50.5q0 -33 -20.5 -57.5t-51.5 -24.5q-33 0 -55 23.5t-22 56.5zM580 1030q0 31 22.5 52.5t54.5 21.5q31 0 52.5 -22.5t21.5 -53.5t-21.5 -53.5 t-50.5 -22.5q-33 0 -56 23.5t-23 54.5z" />
<glyph unicode="y&#x301;" horiz-adv-x="890" d="M-6 729v43h352v-43q-94 -4 -94 -39q0 -16 18 -53l230 -492l205 490q14 27 14 47q0 45 -105 47v43h271v-43q-61 -4 -90 -33t-74 -137l-344 -825q-49 -115 -85 -160t-85 -45q-61 0 -62 55q0 61 99 109q57 27 75 45q18 14 37 63l74 185l-289 616q-37 86 -63 105 q-27 18 -84 22zM451 952l108 185q68 111 119 110q59 0 59 -55q0 -35 -61 -84l-187 -156h-38z" />
<glyph unicode="y&#x308;" horiz-adv-x="890" d="M-8 729v43h354v-43q-94 -4 -94 -39q0 -14 18 -53l230 -492l205 490q14 29 14 47q0 43 -105 47v43h271v-43q-61 -4 -90 -33q-31 -31 -74 -137l-344 -827q-49 -115 -85 -160t-85 -45q-61 0 -62 55q0 61 99 109q55 25 75 45q16 14 37 63l74 185l-289 618q-39 84 -63 105 q-29 20 -86 22zM207 1032q0 31 22.5 52.5t53.5 21.5t52 -21.5t21 -50.5q0 -33 -20.5 -57.5t-50.5 -24.5q-33 0 -55.5 23.5t-22.5 56.5zM549 1030q0 31 22.5 52.5t55.5 21.5q31 0 52 -22.5t21 -53.5t-21.5 -53.5t-49.5 -22.5q-33 0 -56.5 23.5t-23.5 54.5z" />
<glyph unicode="A&#x328;" horiz-adv-x="1308" d="M0 0v43q100 16 147 86l21 34q10 17 16 36l17 37l440 1062h39l469 -1110q31 -80 65 -110q31 -27 109 -35v-43h-199q-72 -57 -71 -119q0 -33 23.5 -55.5t56.5 -22.5q72 0 141 68l31 -39q-121 -109 -220 -108q-51 0 -86.5 35.5t-35.5 88.5q0 96 88 152h-234v43h53 q106 0 107 70q0 16 -23 69l-118 289h-488l-72 -172q-35 -86 -34 -139q0 -51 36.5 -84t94.5 -33h8v-43h-381zM367 514h450l-225 545z" />
<glyph unicode="a&#x328;" horiz-adv-x="956" d="M80 152q0 121 137 208q98 63 238 125l155 62v41q0 125 -41 173t-147 48q-150 0 -164 -90l-4 -23q-18 -90 -86 -90q-57 0 -57 60q0 72 96 129q98 57 231 57q248 0 301 -154q14 -35 15 -133v-401q0 -111 65 -111q63 0 82 99h37q-10 -166 -168 -166q-23 0 -41 4 q-49 -49 -49 -101q0 -33 22.5 -55t55.5 -22q72 0 141 67l31 -39q-119 -109 -219 -108q-51 0 -87 35.5t-36 89.5q0 96 90 151q-53 35 -68 117q-203 -139 -329 -139q-86 0 -143.5 47t-57.5 119zM244 195q0 -143 123 -144q88 0 243 127v322l-110 -45q-256 -104 -256 -260z" />
<glyph unicode="C&#x301;" horiz-adv-x="1370" d="M86 606q0 307 172 504q170 193 444 193q166 0 299 -74q94 -53 148 -117q18 41 30.5 82t16.5 86h41v-485h-29q-37 225 -143 333q-127 125 -326 125q-211 0 -323.5 -167.5t-112.5 -481.5q0 -256 124 -414.5t327 -158.5q41 0 84 7t84 22.5t75.5 37t59.5 45.5q57 55 106 166 q37 84 45 170h39v-446h-39q-18 76 -59 135q-172 -188 -442 -188t-447 176q-174 174 -174 450zM705 1360l108 182q70 113 119 113q59 0 59 -58q0 -37 -61 -84l-189 -153h-36z" />
<glyph unicode="c&#x301;" horiz-adv-x="858" d="M72 391q0 201 123 330q123 131 311 131q113 0 199 -49q86 -47 86 -111q0 -70 -62 -69q-74 0 -82 63l-4 27q-16 92 -137 92q-266 0 -266 -375q0 -195 77 -309q70 -100 222 -101q188 0 243 181h45q-72 -231 -340 -232q-176 0 -297 121q-118 119 -118 301zM461 952l108 185 q70 111 119 110q59 0 60 -55q0 -37 -62 -84l-188 -156h-37z" />
<glyph unicode="C&#x302;" horiz-adv-x="1370" d="M86 606q0 307 172 504q170 193 447 193q164 0 296 -74q94 -53 148 -117q18 41 30.5 82t16.5 86h41v-485h-29q-37 225 -143 333q-127 125 -326 125q-211 0 -323.5 -167.5t-112.5 -481.5q0 -256 124 -414.5t327 -158.5q41 0 84 7t84 22.5t75.5 37t59.5 45.5q57 55 106 166 q37 84 45 170h39v-446h-39q-18 76 -59 135q-172 -188 -442 -188t-447 176q-174 174 -174 450zM438 1341l242 324h121l239 -324h-63l-238 199l-233 -199h-68z" />
<glyph unicode="c&#x302;" horiz-adv-x="858" d="M72 391q0 201 123 330q123 131 311 131q113 0 199 -49q86 -47 86 -111q0 -70 -62 -69q-74 0 -82 63l-4 27q-16 92 -137 92q-266 0 -266 -375q0 -195 77 -309q70 -100 222 -101q188 0 243 181h45q-72 -231 -340 -232q-176 0 -297 121q-118 119 -118 301zM131 952l242 324 h121l239 -324h-63l-238 201l-233 -201h-68z" />
<glyph unicode="C&#x307;" horiz-adv-x="1370" d="M86 606q0 307 172 504q170 193 444 193q166 0 299 -74q94 -53 148 -117q18 41 30.5 82t16.5 86h41v-485h-29q-37 225 -143 333q-127 125 -326 125q-211 0 -323.5 -167.5t-112.5 -481.5q0 -256 124 -414.5t327 -158.5q41 0 84 7t84 22.5t75.5 37t59.5 45.5q57 55 106 166 q37 84 45 170h39v-446h-39q-18 76 -59 135q-172 -188 -442 -188t-447 176q-174 174 -174 450zM604 1464q0 43 31 74t74 31q45 0 74.5 -30t29.5 -75t-30.5 -74.5t-73.5 -29.5t-74 29.5t-31 74.5z" />
<glyph unicode="c&#x307;" horiz-adv-x="858" d="M72 391q0 201 123 330q123 131 311 131q113 0 199 -49q86 -47 86 -111q0 -70 -62 -69q-74 0 -82 63l-4 27q-16 92 -137 92q-266 0 -266 -375q0 -195 77 -309q70 -100 222 -101q188 0 243 181h45q-72 -231 -340 -232q-176 0 -297 121q-118 119 -118 301zM342 1059 q0 41 30.5 71.5t73.5 30.5q45 0 75 -29.5t30 -72.5q0 -45 -31 -76t-74 -31t-73.5 31t-30.5 76z" />
<glyph unicode="C&#x30c;" horiz-adv-x="1370" d="M86 606q0 307 172 504q170 193 444 193q166 0 299 -74q94 -53 148 -117q18 41 30.5 82t16.5 86h41v-485h-29q-37 225 -143 333q-127 125 -326 125q-211 0 -323.5 -167.5t-112.5 -481.5q0 -256 124 -414.5t327 -158.5q41 0 84 7t84 22.5t75.5 37t59.5 45.5q57 55 106 166 q37 84 45 170h39v-446h-39q-18 76 -59 135q-172 -188 -442 -188t-447 176q-174 174 -174 450zM416 1663h65l230 -190l231 190h64l-236 -309h-119z" />
<glyph unicode="c&#x30c;" horiz-adv-x="858" d="M72 391q0 201 123 330q123 131 311 131q113 0 199 -49q86 -47 86 -111q0 -70 -62 -69q-74 0 -82 63l-4 27q-16 92 -137 92q-266 0 -266 -375q0 -195 77 -309q70 -100 222 -101q188 0 243 181h45q-72 -231 -340 -232q-176 0 -297 121q-118 119 -118 301zM147 1274h66 l236 -197l235 197h66l-242 -322h-121z" />
<glyph unicode="D&#x30c;" horiz-adv-x="1466" d="M39 0v43h53q115 0 137 43q27 43 27 246v618q0 193 -25 232q-20 33 -67 41q-8 2 -80 2h-41v45l369 16q117 6 198 6q362 0 551 -159q209 -178 209 -494q0 -254 -114.5 -410.5t-335.5 -205.5q-109 -23 -183 -23h-698zM430 1681h68l233 -196l238 196h63l-239 -321h-121z M438 387q0 -88 1 -144.5t3 -76.5q2 -41 23 -74q29 -49 174 -49q80 0 143.5 9t113.5 29.5t88 51.5t71 76q111 156 110 405q0 137 -30.5 250t-90 195t-145.5 129t-197 55q-12 2 -38 2h-66q-49 0 -89 -1t-71 -3v-854z" />
<glyph unicode="d&#x30c;" horiz-adv-x="1243" d="M59 414q0 186 115 313q117 125 291 125q158 0 291 -121v322q0 168 -15 194q-23 41 -108 41h-21v45q125 2 265 43h22v-1102q0 -176 12 -196q20 -39 109 -39h14v-43l-14 -2q-133 0 -244 -25q-12 57 -12 125v21q-152 -145 -320 -146q-147 0 -264 119q-121 127 -121 326z M225 416q0 -184 72 -286.5t197 -102.5q152 0 262 143v504q-139 115 -267 114q-264 1 -264 -372zM965 920v34q92 20 152.5 68.5t60.5 103.5q0 45 -41 45h-19l-14 -6h-8h-11q-41 0 -68.5 17.5t-27.5 44.5q0 70 98 69q63 0 105.5 -41t42.5 -102q0 -82 -73.5 -147.5 t-196.5 -85.5z" />
<glyph unicode="E&#x307;" horiz-adv-x="1179" d="M61 0v43h25q117 0 142.5 43t25.5 246v629q0 197 -25 235q-20 41 -127 41h-16v43h918l28 -319h-45q-39 162 -96 215q-68 61 -199 61h-256v-539h135q125 0 158 31q37 33 37 145v17h45v-438h-45v16q0 119 -37 152q-33 33 -151 32h-142v-301q0 -238 35 -274q31 -35 154 -35 h94q166 0 250 84q90 92 135 270h45l-29 -397h-1059zM496 1475q0 43 29.5 73.5t72.5 30.5q45 0 74.5 -29.5t29.5 -74.5q0 -43 -30.5 -74t-73.5 -31t-72.5 31t-29.5 74z" />
<glyph unicode="e&#x307;" horiz-adv-x="847" d="M76 401q0 195 112 322q113 129 281 129q150 0 246 -88q100 -86 102 -221h-569l-2 -19q-2 -10 -2 -26v-43q0 -266 94 -363q72 -72 174 -72q180 0 258 164h47q-33 -98 -124 -156.5t-210 -58.5q-174 0 -290.5 123t-116.5 309zM252 582h391q2 10 2 20v21q0 86 -48 136 t-130 50q-182 0 -215 -227zM356 1059q0 41 31 71.5t74 30.5q45 0 74.5 -29.5t29.5 -72.5q0 -45 -30.5 -76t-73.5 -31t-74 31t-31 76z" />
<glyph unicode="E&#x328;" horiz-adv-x="1208" d="M61 0v43h25q117 0 142.5 43t25.5 246v629q0 197 -25 235q-20 41 -127 41h-16v43h918l28 -319h-45q-39 162 -96 215q-68 61 -199 61h-256v-539h135q125 0 158 31q37 33 37 145v17h45v-438h-45v16q0 119 -37 152q-33 33 -151 32h-142v-301q0 -238 35 -274q31 -35 154 -35 h94q166 0 250 84q90 92 135 270h45l-29 -397h-207q-70 -55 -69 -117q0 -33 23.5 -55.5t56.5 -22.5q72 0 141 68l31 -39q-119 -109 -219 -108q-51 0 -87 35.5t-36 88.5q0 94 86 150h-779z" />
<glyph unicode="e&#x328;" horiz-adv-x="847" d="M76 401q0 195 112 322q113 129 281 129q150 0 246 -88q100 -86 102 -221h-569l-2 -19q-2 -10 -2 -26v-43q0 -266 94 -363q72 -72 174 -72q180 0 258 164h47q-33 -98 -125 -157q-57 -37 -127 -50q-68 -57 -67 -116q0 -33 22.5 -55.5t54.5 -22.5q72 0 142 67l31 -38 q-119 -111 -220 -111q-51 0 -86.5 37t-35.5 90q0 86 73 141q-172 2 -286 123q-117 123 -117 309zM252 582h391q2 10 2 20v21q0 86 -48 136t-130 50q-182 0 -215 -227z" />
<glyph unicode="E&#x30c;" horiz-adv-x="1179" d="M61 0v43h25q117 0 142.5 43t25.5 246v629q0 197 -25 235q-20 41 -127 41h-16v43h918l28 -319h-45q-39 162 -96 215q-68 61 -199 61h-256v-539h135q125 0 158 31q37 33 37 145v17h45v-438h-45v16q0 119 -37 152q-33 33 -151 32h-142v-301q0 -238 35 -274q31 -35 154 -35 h94q166 0 250 84q90 92 135 270h45l-29 -397h-1059zM256 1669h70l231 -196l238 196h65l-242 -319h-120z" />
<glyph unicode="e&#x30c;" horiz-adv-x="847" d="M76 401q0 195 112 322q113 129 281 129q150 0 246 -88q100 -86 102 -221h-569l-2 -19q-2 -10 -2 -26v-43q0 -266 94 -363q72 -72 174 -72q180 0 258 164h47q-33 -98 -124 -156.5t-210 -58.5q-174 0 -290.5 123t-116.5 309zM135 1274h68l233 -197l238 197h63l-239 -322 h-121zM252 582h391q2 10 2 20v21q0 86 -48 136t-130 50q-182 0 -215 -227z" />
<glyph unicode="G&#x302;" horiz-adv-x="1474" d="M100 614q0 70 14.5 141.5t40 137t61.5 124t81 105.5q172 180 459 181q252 0 415 -189q14 35 24.5 70t12.5 73h47v-428h-47q-12 98 -51 177t-96 134.5t-133 85t-164 29.5q-61 0 -117.5 -16t-105.5 -45t-89 -70t-67 -90q-68 -139 -68 -387q0 -348 140 -493 q117 -131 301 -131q111 0 193.5 41.5t111.5 113.5q20 51 20 127q0 102 -8 125q-18 61 -94 68q-8 2 -25 2h-32h-31v47h553v-47h-16q-113 0 -140 -41q-23 -45 -22 -246v-135q-10 2 -18.5 3t-16.5 1q-78 0 -219 -53q-145 -49 -275 -49q-274 0 -456.5 179t-182.5 455zM473 1348 l242 321h121l239 -321h-63l-238 198l-233 -198h-68z" />
<glyph unicode="g&#x302;" horiz-adv-x="960" d="M57 -248q0 63 34 101t89 38q8 0 31 -6q-63 -70 -64 -147q0 -88 88.5 -143.5t235.5 -55.5t231 55.5t84 153.5q0 80 -55 127q-39 33 -92 45q-27 4 -74 8t-112 9q-201 8 -279 51q-63 33 -63 108q0 135 182 166q-190 111 -191 285q0 127 97 217q94 88 235 88q166 0 268 -104 q84 96 175 96q41 0 69.5 -24.5t28.5 -59.5q0 -66 -60 -66q-33 0 -57 39q-23 41 -47 41q-35 0 -84 -53q53 -84 53 -174q0 -98 -53 -173t-145 -110q-70 -27 -179 -28q-213 -10 -213 -86q0 -37 46 -52q23 -8 64.5 -13t105.5 -9l65 -4q256 -14 342 -95q74 -72 74 -178 q0 -143 -108.5 -222t-311.5 -79q-182 0 -297 72q-113 69 -113 182zM164 952l239 324h121l242 -324h-66l-235 201l-236 -201h-65zM252 530q0 -250 188 -249q184 0 185 260q0 264 -187 264q-186 -1 -186 -275z" />
<glyph unicode="G&#x307;" horiz-adv-x="1474" d="M100 614q0 70 14.5 141.5t40 137t61.5 124t81 105.5q172 180 459 181q252 0 415 -189q14 35 24.5 70t12.5 73h47v-428h-47q-12 98 -51 177t-96 134.5t-133 85t-164 29.5q-61 0 -117.5 -16t-105.5 -45t-89 -70t-67 -90q-68 -139 -68 -387q0 -348 140 -493 q117 -131 301 -131q111 0 193.5 41.5t111.5 113.5q20 51 20 127q0 102 -8 125q-18 61 -94 68q-8 2 -25 2h-32h-31v47h553v-47h-16q-113 0 -140 -41q-23 -45 -22 -246v-135q-10 2 -18.5 3t-16.5 1q-78 0 -219 -53q-145 -49 -275 -49q-274 0 -456.5 179t-182.5 455zM684 1483 q0 41 30.5 71.5t73.5 30.5q45 0 75 -29.5t30 -72.5q0 -45 -31 -76t-74 -31t-73.5 31t-30.5 76z" />
<glyph unicode="g&#x307;" horiz-adv-x="960" d="M57 -248q0 63 34 101t89 38q8 0 31 -6q-63 -70 -64 -147q0 -88 88.5 -143.5t235.5 -55.5t231 55.5t84 153.5q0 80 -55 127q-39 33 -92 45q-27 4 -74 8t-112 9q-201 8 -279 51q-63 33 -63 108q0 135 182 166q-190 111 -191 285q0 127 97 217q94 88 235 88q166 0 268 -104 q84 96 175 96q41 0 69.5 -24.5t28.5 -59.5q0 -66 -60 -66q-33 0 -57 39q-23 41 -47 41q-35 0 -84 -53q53 -84 53 -174q0 -98 -53 -173t-145 -110q-70 -27 -179 -28q-213 -10 -213 -86q0 -37 46 -52q23 -8 64.5 -13t105.5 -9l65 -4q256 -14 342 -95q74 -72 74 -178 q0 -143 -108.5 -222t-311.5 -79q-182 0 -297 72q-113 69 -113 182zM252 530q0 -250 188 -249q184 0 185 260q0 264 -187 264q-186 -1 -186 -275zM324 1059q0 41 30.5 71.5t73.5 30.5q45 0 74.5 -29.5t29.5 -72.5q0 -45 -30.5 -76t-73.5 -31t-73.5 31t-30.5 76z" />
<glyph unicode="G&#x327;" horiz-adv-x="1490" d="M100 614q0 70 14.5 141.5t40 137t61.5 124t81 105.5q172 180 459 181q252 0 415 -189q14 35 24.5 70t12.5 73h47v-428h-47q-12 98 -51 177t-96 134.5t-133 85t-164 29.5q-61 0 -117.5 -16t-105.5 -45t-89 -70t-67 -90q-68 -139 -68 -387q0 -348 140 -493 q117 -131 301 -131q111 0 193.5 41.5t111.5 113.5q20 51 20 127q0 102 -8 125q-18 61 -94 68q-8 2 -25 2h-32h-31v47h553v-47h-16q-113 0 -140 -41q-23 -45 -22 -246v-135q-10 2 -18.5 3t-16.5 1q-78 0 -219 -53q-145 -49 -275 -49q-274 0 -456.5 179t-182.5 455zM623 -455 q92 20 152.5 68.5t60.5 103.5q0 45 -41 45h-19l-14 -6h-8h-11q-41 0 -68.5 17.5t-27.5 44.5q0 70 98 69q63 0 105.5 -41t42.5 -102q0 -82 -74 -147.5t-196 -85.5v34z" />
<glyph unicode="g&#x327;" horiz-adv-x="960" d="M57 -248q0 63 34 101t89 38q8 0 31 -6q-63 -70 -64 -147q0 -88 88.5 -143.5t235.5 -55.5t231 55.5t84 153.5q0 80 -55 127q-39 33 -92 45q-27 4 -74 8t-112 9q-201 8 -279 51q-63 33 -63 108q0 135 182 166q-190 111 -191 285q0 127 97 217q94 88 235 88q166 0 268 -104 q84 96 175 96q41 0 69.5 -24.5t28.5 -59.5q0 -66 -60 -66q-33 0 -57 39q-23 41 -47 41q-35 0 -84 -53q53 -84 53 -174q0 -98 -53 -173t-145 -110q-70 -27 -179 -28q-213 -10 -213 -86q0 -37 46 -52q23 -8 64.5 -13t105.5 -9l65 -4q256 -14 342 -95q74 -72 74 -178 q0 -143 -108.5 -222t-311.5 -79q-182 0 -297 72q-113 69 -113 182zM252 530q0 -250 188 -249q184 0 185 260q0 264 -187 264q-186 -1 -186 -275zM334 1020q-31 78 16 164t156 147l12 -33q-80 -49 -120 -115.5t-19 -117.5q14 -41 53 -29q10 4 17 6l12 11q2 0 8 2q4 4 8 4 q39 14 72 8t41 -31q25 -66 -70 -100q-57 -23 -111.5 2t-74.5 82z" />
<glyph unicode="H&#x302;" horiz-adv-x="1550" d="M59 0v43h33q117 0 140.5 43t23.5 246v629q0 197 -23 233q-20 33 -67 41q-8 2 -29 2h-53h-25v43h578v-43h-25h-55q-18 0 -29 -2q-43 -8 -63 -41q-25 -41 -25 -233v-254h670v254q0 195 -25 233q-20 33 -67 41q-8 2 -80 2h-37v43h584v-43h-21h-55q-18 0 -29 -2 q-47 -8 -63 -41q-25 -43 -25 -233v-629q0 -203 25 -246t137 -43h31v-43h-584v43h45q115 0 137 43q27 43 27 246v309h-670v-309q0 -203 25 -246t137 -43h35v-43h-578zM500 1360l239 321h121l242 -321h-66l-235 199l-236 -199h-65z" />
<glyph unicode="h&#x302;" horiz-adv-x="1024" d="M-76 1298l242 322h119l241 -322h-65l-236 199l-233 -199h-68zM43 0v43h23q70 0 92 22.5t22 98.5v872q0 96 -10 125q-18 53 -104 53h-15v43h10q33 0 76 6.5t96 16.5q16 2 32 6t32 12h18v-653h4q111 160 277 160q121 0 190 -66q47 -41 62 -121q6 -39 6 -139v-215 q0 -158 14 -182q20 -39 103 -39h14v-43h-399v43h18q70 0 92.5 22.5t22.5 98.5v334q0 70 -8.5 119t-27.5 77.5t-53 39.5t-87 11q-141 0 -228 -170v-311q0 -158 13 -182q23 -39 102 -39h6v-43h-393z" />
<glyph unicode="I&#x303;" horiz-adv-x="651" d="M0 1374q16 82 66 137q59 66 133 66q57 0 154.5 -48t135.5 -48q70 0 109 100h47l6 -6q-16 -78 -67 -141q-57 -68 -138 -68q-59 0 -153 48t-133 48q-74 0 -113 -94h-45zM49 0v43h37q115 0 137 43q27 43 27 246v629q0 197 -23 233q-20 33 -67 41q-6 2 -29 2h-53h-29v43h588 v-43h-31h-53q-20 0 -29 -2q-45 -8 -65 -41q-25 -41 -25 -233v-629q0 -203 25 -246t139 -43h39v-43h-588z" />
<glyph unicode="i&#x303;" horiz-adv-x="593" d="M-4 961q16 84 65 137q57 66 134 65q57 0 154 -48t136 -48q70 0 107 100h49l6 -6q-18 -76 -67 -139q-57 -70 -138 -70q-59 0 -153 49.5t-133 49.5q-76 0 -113 -97h-45zM121 0v47h33q74 0 97 22.5t23 102.5v352q0 158 -20 193q-18 33 -107 33h-26v47q86 10 153.5 21 t120.5 34h23v-573q0 -166 14 -193q20 -39 105 -39h22v-47h-438z" />
<glyph unicode="I&#x328;" horiz-adv-x="684" d="M49 0v43h37q115 0 137 43q27 43 27 246v629q0 197 -23 233q-20 33 -67 41q-6 2 -29 2h-82v43h588v-43h-84q-20 0 -29 -2q-45 -8 -65 -41q-25 -41 -25 -233v-629q0 -203 25 -246t139 -43h39v-43h-246q-68 -55 -67 -117q0 -33 22.5 -55.5t54.5 -22.5q72 0 142 68l30 -39 q-119 -109 -217 -108q-53 0 -89 35.5t-36 88.5q0 94 88 150h-270z" />
<glyph unicode="i&#x328;" horiz-adv-x="483" d="M31 0v47h32q74 0 97.5 22.5t23.5 102.5v352q0 158 -20 193q-18 33 -107 33h-26v47q86 10 153.5 21t120.5 34h23v-573q0 -166 14 -193q20 -39 104 -39h23v-47h-188q-68 -55 -68 -115q0 -33 23.5 -55.5t56.5 -22.5q72 0 141 68l31 -39q-119 -109 -217 -108q-53 0 -89 35.5 t-36 89.5q0 92 82 147h-174zM129 1186q0 41 27.5 69.5t70.5 28.5q39 0 69 -28.5t30 -69.5t-30 -72t-69 -31q-41 0 -69.5 31t-28.5 72z" />
<glyph unicode="J&#x302;" horiz-adv-x="694" d="M-307 -270q0 43 27.5 71.5t68.5 28.5t68.5 -26.5t27.5 -67.5q0 -25 -12 -49q-8 -23 -8 -31q0 -66 123 -66q147 0 219 111q63 96 63 289q2 10 2 135v836q0 195 -22 233q-23 33 -68 41q-10 2 -30 2h-54h-28v43h594v-43h-31h-55q-23 0 -29 -2q-51 -10 -68 -41 q-20 -39 -20 -233v-834q0 -236 -37 -326q-47 -123 -157.5 -189.5t-258.5 -66.5q-145 0 -230 49.5t-85 135.5zM63 1354l242 321h121l240 -321h-66l-235 198l-234 -198h-68z" />
<glyph unicode="j&#x302;" horiz-adv-x="452" d="M-250 -266q0 63 60 63q43 0 63 -51l10 -22q27 -63 97 -64q82 0 126 61q31 47 41 132q2 12 3 49v94v596q0 143 -17.5 177t-101.5 34h-25v41q80 8 143.5 19t114.5 32h21v-926q0 -80 -29 -155q-27 -74 -74 -117q-92 -80 -225 -80q-92 0 -149.5 33t-57.5 84zM-111 952 l242 324h121l242 -324h-68l-236 201l-233 -201h-68z" />
<glyph unicode="K&#x327;" horiz-adv-x="1503" d="M53 0v43h41q115 0 137 43q25 43 25 246v629q0 195 -23 233q-20 33 -67 41q-10 2 -80 2h-14v43h567v-43h-25h-55q-20 0 -29 -2q-45 -8 -65 -41q-23 -39 -23 -233v-332l392 352q135 121 135 172q0 78 -135 84v43h481v-43q-143 -4 -314 -164l-333 -307l579 -588 q41 -39 74 -65.5t59 -40.5q53 -29 129 -29v-43h-663v43h24q160 0 160 61q0 43 -135 179l-363 364l-90 -82v-233q0 -203 25 -246t137 -43h27v-43h-578zM604 -455q92 20 152.5 68.5t60.5 103.5q0 45 -41 45h-18l-15 -6h-8h-10q-41 0 -68.5 17.5t-27.5 44.5q0 70 98 69 q63 0 105 -41t42 -102q0 -82 -73.5 -147.5t-196.5 -85.5v34z" />
<glyph unicode="k&#x327;" horiz-adv-x="940" d="M25 0v47h30q80 0 101 31q18 20 18 102v940q0 76 -10 107q-20 55 -105 55h-14v49h10q59 0 174 23q18 4 34 8t34 12h20v-905l84 66q205 158 205 221q0 45 -76 49v47h324v-47q-94 -4 -238 -143q-8 -2 -18 -13l-25 -24q-23 -14 -45 -39l-61 -51l287 -357q27 -29 45 -51.5 t35 -30.5q49 -49 96 -49v-47h-400v47q100 2 101 45q0 18 -21 47q-8 4 -45 56l-207 254l-41 -35v-123q0 -180 13 -201q23 -43 98 -43h6v-47h-409zM328 -455q92 20 152.5 68.5t60.5 103.5q0 45 -41 45h-19l-14 -6h-8h-10q-41 0 -69 17.5t-28 44.5q0 70 99 69q63 0 105 -41 t42 -102q0 -82 -73.5 -147.5t-196.5 -85.5v34z" />
<glyph unicode="L&#x301;" horiz-adv-x="1179" d="M53 0v43h39q115 0 137 43q27 43 27 246v629q0 195 -25 233q-20 33 -67 41q-8 2 -80 2h-31v43h615v-43h-56h-55q-18 0 -29 -2q-43 -8 -63 -41q-25 -41 -25 -233v-668v-105q0 -35 2 -49q2 -29 21 -53q33 -43 170 -43h96q98 0 145 8q68 18 119 78q51 57 111 236l4 12h45 l-10 -377h-1090zM322 1360l108 182q70 113 119 113q59 0 59 -56q0 -37 -61 -86l-19 -12l-170 -141h-36z" />
<glyph unicode="l&#x301;" horiz-adv-x="462" d="M18 0v39h27q72 0 93.5 20.5t21.5 87.5v781q0 96 -6 114q-23 51 -109 52h-12v39h10q33 0 75 5t95 13q16 4 31.5 7t31.5 9h21v-927q0 -145 12 -166q20 -35 103 -35h20v-39h-414zM137 1233l111 182q68 113 117 113q61 0 61 -58q0 -37 -64 -84l-188 -153h-37z" />
<glyph unicode="L&#x327;" horiz-adv-x="1179" d="M53 0v43h39q115 0 137 43q27 43 27 246v629q0 195 -25 233q-20 33 -67 41q-8 2 -80 2h-31v43h615v-43h-56h-55q-18 0 -29 -2q-43 -8 -63 -41q-25 -41 -25 -233v-668v-105q0 -35 2 -49q2 -29 21 -53q33 -43 170 -43h96q98 0 145 8q68 18 119 78q51 57 111 236l4 12h45 l-10 -377h-1090zM436 -455q92 20 152.5 68.5t60.5 103.5q0 45 -41 45h-18l-15 -6h-8h-10q-41 0 -68.5 17.5t-27.5 44.5q0 70 98 69q63 0 105.5 -41t42.5 -102q0 -82 -74 -147.5t-197 -85.5v34z" />
<glyph unicode="l&#x327;" horiz-adv-x="462" d="M20 0v45h29q74 0 97.5 24.5t23.5 104.5v918q0 115 -8 137q-23 59 -113 59h-14v45h10q35 0 80 6.5t102 16.5l33 8q16 4 33 12h20v-1095q0 -168 15 -195q23 -41 108 -41h23v-45h-439zM104 -455q92 20 152.5 68.5t60.5 103.5q0 45 -41 45h-18l-14 -6h-8h-11 q-41 0 -68.5 17.5t-27.5 44.5q0 70 98 69q63 0 105.5 -41t42.5 -102q0 -82 -74 -147.5t-197 -85.5v34z" />
<glyph unicode="L&#x30c;" horiz-adv-x="1179" d="M51 1681h68l233 -196l236 196h65l-241 -321h-119zM53 0v43h39q115 0 137 43q27 43 27 246v629q0 195 -25 233q-20 33 -67 41q-8 2 -80 2h-31v43h615v-43h-56h-55q-18 0 -29 -2q-43 -8 -63 -41q-25 -41 -25 -233v-668v-105q0 -35 2 -49q2 -29 21 -53q33 -43 170 -43h96 q98 0 145 8q68 18 119 78q51 57 111 236l4 12h45l-10 -377h-1090z" />
<glyph unicode="l&#x30c;" horiz-adv-x="462" d="M-115 1554h68l233 -196l238 196h63l-239 -321h-121zM18 0v39h27q72 0 93.5 20.5t21.5 87.5v781q0 96 -6 114q-23 51 -109 52h-12v39h10q33 0 75 5t95 13q16 4 31.5 7t31.5 9h21v-927q0 -145 12 -166q20 -35 103 -35h20v-39h-414z" />
<glyph unicode="L&#xb7;" horiz-adv-x="1167" d="M53 0v43h39q115 0 137 43q27 43 27 246v629q0 195 -25 233q-20 33 -67 41q-8 2 -80 2h-31v43h615v-43h-56h-55q-18 0 -29 -2q-43 -8 -63 -41q-25 -41 -25 -233v-668v-105q0 -35 2 -49q2 -29 21 -53q33 -43 170 -43h96q98 0 145 8q68 18 119 78q51 57 111 236l4 12h45 l-10 -377h-1090zM844 854q0 -45 31.5 -74.5t74.5 -29.5q41 0 73 29.5t32 74.5q0 43 -31 73.5t-74 30.5t-74.5 -31.5t-31.5 -72.5z" />
<glyph unicode="l&#xb7;" horiz-adv-x="632" d="M20 0v45h29q74 0 97.5 24.5t23.5 104.5v918q0 115 -8 137q-23 59 -113 59h-14v45h10q35 0 80 6.5t102 16.5l33 8q16 4 33 12h20v-1095q0 -168 15 -195q23 -41 108 -41h23v-45h-439zM422 649q0 -45 30.5 -74.5t73.5 -29.5t74 29.5t31 74.5q0 43 -30 74t-75 31 q-43 0 -73.5 -32t-30.5 -73z" />
<glyph unicode="N&#x301;" horiz-adv-x="1447" d="M33 0v43q137 8 172 49t35 191v678q0 190 -27 233t-154 43h-10v43h377l754 -1001h4v763q0 57 -10.5 94.5t-35 59t-66.5 31.5t-105 10v43h463v-43q-119 -10 -160 -53q-39 -41 -39 -154v-1057h-41l-899 1196h-4v-950q0 -96 49 -136t174 -40v-43h-477zM625 1354l108 182 q68 115 119 115q59 0 59 -58q0 -35 -61 -84l-186 -155h-39z" />
<glyph unicode="n&#x301;" horiz-adv-x="1077" d="M49 0v45h17q72 0 96 23.5t24 105.5v350q0 172 -12 195q-18 39 -108 39h-17v47q119 12 207 39l18 8h29q8 -35 16.5 -77t10.5 -95q141 172 313 172q186 0 238 -143q20 -51 20 -93v-337q0 -166 12 -193q25 -41 111 -41h12v-45h-420v45h21q74 0 98.5 23.5t24.5 105.5v438 q0 174 -172 174q-141 0 -258 -174v-333q0 -172 12 -193q27 -41 111 -41h12v-45h-416zM389 952l111 185q66 113 118 112q59 0 60 -55q0 -37 -62 -86l-188 -156h-39z" />
<glyph unicode="N&#x327;" horiz-adv-x="1447" d="M33 0v43q137 8 172 49t35 191v678q0 190 -27 233t-154 43h-10v43h377l754 -1001h4v763q0 57 -10.5 94.5t-35 59t-66.5 31.5t-105 10v43h463v-43q-119 -10 -160 -53q-39 -41 -39 -154v-1057h-41l-899 1196h-4v-950q0 -96 49 -136t174 -40v-43h-477zM645 -455 q92 20 152.5 68.5t60.5 103.5q0 45 -41 45h-18l-15 -6h-8h-10q-41 0 -68.5 17.5t-27.5 44.5q0 70 98 69q63 0 105 -41t42 -102q0 -82 -73.5 -147.5t-196.5 -85.5v34z" />
<glyph unicode="n&#x327;" horiz-adv-x="1077" d="M49 0v45h17q72 0 96 23.5t24 105.5v350q0 172 -12 195q-18 39 -108 39h-17v47q119 12 207 39l18 8h29q8 -35 16.5 -77t10.5 -95q141 172 313 172q186 0 238 -143q20 -51 20 -93v-337q0 -166 12 -193q25 -41 111 -41h12v-45h-420v45h21q74 0 98.5 23.5t24.5 105.5v438 q0 174 -172 174q-141 0 -258 -174v-333q0 -172 12 -193q27 -41 111 -41h12v-45h-416zM383 -455q92 20 152.5 68.5t60.5 103.5q0 45 -41 45h-18l-15 -6h-8h-10q-41 0 -68.5 17.5t-27.5 44.5q0 70 98 69q63 0 105 -41t42 -102q0 -82 -73.5 -147.5t-196.5 -85.5v34z" />
<glyph unicode="N&#x30c;" horiz-adv-x="1447" d="M33 0v43q137 8 172 49t35 191v678q0 190 -27 233t-154 43h-10v43h377l754 -1001h4v763q0 57 -10.5 94.5t-35 59t-66.5 31.5t-105 10v43h463v-43q-119 -10 -160 -53q-39 -41 -39 -154v-1057h-41l-899 1196h-4v-950q0 -96 49 -136t174 -40v-43h-477zM414 1659h67l234 -197 l235 197h66l-242 -322h-119z" />
<glyph unicode="n&#x30c;" horiz-adv-x="1077" d="M49 0v45h17q72 0 96 23.5t24 105.5v350q0 172 -12 195q-18 39 -108 39h-17v47q119 12 207 39l18 8h29q8 -35 16.5 -77t10.5 -95q141 172 313 172q186 0 238 -143q20 -51 20 -93v-337q0 -166 12 -193q25 -41 111 -41h12v-45h-420v45h21q74 0 98.5 23.5t24.5 105.5v438 q0 174 -172 174q-141 0 -258 -174v-333q0 -172 12 -193q27 -41 111 -41h12v-45h-416zM227 1274h68l233 -197l238 197h63l-239 -322h-121z" />
<glyph unicode="&#x2bc;n" horiz-adv-x="1331" d="M37 784v47q92 29 152.5 98.5t60.5 149.5q0 63 -41 64q-12 0 -19 -2l-14 -4q-2 0 -8 -2h-10q-41 0 -69 24.5t-28 63.5q0 100 99 100q63 0 105 -60.5t42 -144.5q0 -121 -73.5 -212t-196.5 -122zM303 0v45h16q72 0 96.5 23.5t24.5 105.5v350q0 172 -12 195q-18 39 -109 39 h-16v47q119 12 207 39l18 8h29q8 -35 16.5 -77t10.5 -95q141 172 313 172q186 0 238 -143q20 -51 20 -93v-337q0 -166 12 -193q25 -41 111 -41h12v-45h-420v45h21q74 0 98.5 23.5t24.5 105.5v438q0 174 -172 174q-141 0 -258 -174v-333q0 -172 12 -193q27 -41 111 -41h12 v-45h-416z" />
<glyph unicode="O&#x30b;" horiz-adv-x="1568" d="M109 649q0 289 192 469q197 184 502 185q68 0 137.5 -11.5t134 -34t120.5 -54.5t103 -73q203 -180 203 -520q0 -272 -196 -452q-195 -178 -490 -178q-317 0 -514 182q-192 182 -192 487zM326 641q0 -256 84 -412q37 -66 102 -116q119 -90 305 -90q221 0 344 158.5 t123 445.5q0 309 -123 468.5t-358 159.5q-236 0 -356.5 -157.5t-120.5 -456.5zM498 1360l268 268q41 41 63 55q35 8 39 9q12 0 33 -6q27 -16 29 -37q4 -35 -26 -56l-60 -41l-277 -192h-69zM772 1360l266 268q41 41 64 55q35 8 39 9q12 0 33 -6q27 -16 28 -37q4 -35 -24 -56 l-60 -41l-278 -192h-68z" />
<glyph unicode="o&#x30b;" horiz-adv-x="1017" d="M72 412q0 188 125 313q127 127 311 127t311 -127t127 -313q0 -195 -125 -320q-123 -123 -313 -123q-188 0 -313 123q-123 125 -123 320zM184 952l269 271q41 39 63 53q35 8 39 8q12 0 33 -6q27 -16 28 -37q4 -35 -25.5 -55.5t-60.5 -38.5l-276 -195h-70zM240 406 q0 -393 268 -394q141 0 205.5 94.5t64.5 299.5q0 399 -270 399q-268 0 -268 -399zM459 952l266 271q41 39 63 53q35 8 39 8q12 0 33 -6q27 -16 29 -37q4 -35 -24.5 -55.5t-59.5 -38.5l-279 -195h-67z" />
<glyph unicode="R&#x301;" horiz-adv-x="1409" d="M47 0v43h43q115 0 137 43q27 43 27 246v629q0 195 -25 233q-20 33 -67 41q-6 2 -29 2h-53h-23v43l185 8q72 2 139 6l149 9q311 -4 449 -117q106 -90 106 -217q0 -133 -97 -219t-267 -105v-4q37 -20 88 -70l68 -77l69 -86l66 -86q139 -184 237 -240q63 -39 156 -39v-43 h-344q-47 31 -113 111q-61 72 -104 133l-64 92q-61 90 -111.5 151.5t-88.5 100.5q-33 29 -91 28h-53v-284q0 -203 25 -246t137 -43h64v-43h-615zM436 662h23h86q213 6 280 98q53 72 54 192q0 199 -125 258q-76 37 -236 37h-43q-18 0 -39 -2v-583zM537 1346l110 184 q68 111 119 110q59 0 59 -55q0 -37 -61 -86l-19 -12l-170 -141h-38z" />
<glyph unicode="r&#x301;" horiz-adv-x="724" d="M41 0v45h20q74 0 97.5 24.5t23.5 104.5v338q0 170 -14 197q-20 39 -107 39h-20v45q72 10 231 55l15 4q29 -90 28 -209h4q37 92 111 150.5t154 58.5q53 0 94 -38t41 -87q0 -70 -66 -70q-51 0 -75 74q-16 49 -56 49q-49 0 -112 -69q-57 -63 -72 -131q-12 -47 -12 -152v-147 q0 -172 14 -195q23 -41 106 -41h29v-45h-434zM178 952l111 185q68 111 117 110q61 0 61 -55q0 -37 -64 -84l-188 -156h-37z" />
<glyph unicode="R&#x327;" horiz-adv-x="1470" d="M49 0v45h45q119 0 144 45q27 45 26 256v658q0 203 -24 243q-23 33 -72 43q-6 2 -29 2h-55h-25v43l193 11q76 2 145 6l156 8q326 -4 469 -123q111 -92 111 -225q0 -139 -101.5 -229.5t-279.5 -108.5v-4q39 -23 92 -74l71 -81q37 -42 72 -89l70 -90q145 -193 248 -250 q66 -41 161 -41v-45h-358q-49 33 -119 115q-63 76 -108 139l-66 96q-66 94 -118 158.5t-93 105.5q-33 29 -92 29h-57v-297q0 -211 26 -256q25 -45 144 -45h65v-45h-641zM455 690h24h90q221 6 293 103q55 76 56 200q0 209 -132 271q-78 39 -245 39h-45q-18 0 -41 -3v-610z M602 -420q92 20 152.5 68.5t60.5 103.5q0 45 -41 45h-18l-15 -6h-8h-10q-41 0 -68.5 17.5t-27.5 44.5q0 70 98 69q63 0 105 -41t42 -102q0 -82 -73.5 -147.5t-196.5 -86.5v35z" />
<glyph unicode="r&#x327;" horiz-adv-x="724" d="M41 0v45h20q74 0 97.5 24.5t23.5 104.5v338q0 170 -14 197q-20 39 -107 39h-20v45q72 10 231 55l15 4q29 -90 28 -209h4q37 92 111 150.5t154 58.5q53 0 94 -38t41 -87q0 -70 -66 -70q-51 0 -75 74q-16 49 -56 49q-49 0 -112 -69q-57 -63 -72 -131q-12 -47 -12 -152v-147 q0 -172 14 -195q23 -41 106 -41h29v-45h-434zM104 -455q92 20 152.5 68.5t60.5 103.5q0 45 -41 45h-18l-14 -6h-8h-11q-41 0 -68.5 17.5t-27.5 44.5q0 70 98 69q63 0 105.5 -41t42.5 -102q0 -82 -74 -147.5t-197 -85.5v34z" />
<glyph unicode="R&#x30c;" horiz-adv-x="1409" d="M47 0v43h43q115 0 137 43q27 43 27 246v629q0 195 -25 233q-20 33 -67 41q-6 2 -29 2h-53h-23v43l185 8q72 2 139 6l149 9q311 -4 449 -117q106 -90 106 -217q0 -133 -97 -219t-267 -105v-4q37 -20 88 -70l68 -77l69 -86l66 -86q139 -184 237 -240q63 -39 156 -39v-43 h-344q-47 31 -113 111q-61 72 -104 133l-64 92q-61 90 -111.5 151.5t-88.5 100.5q-33 29 -91 28h-53v-284q0 -203 25 -246t137 -43h64v-43h-615zM297 1659h68l233 -197l236 197h65l-242 -322h-118zM436 662h23h86q213 6 280 98q53 72 54 192q0 199 -125 258q-76 37 -236 37 h-43q-18 0 -39 -2v-583z" />
<glyph unicode="r&#x30c;" horiz-adv-x="724" d="M14 1274h68l233 -197l236 197h65l-241 -322h-119zM41 0v45h20q74 0 97.5 24.5t23.5 104.5v338q0 170 -14 197q-20 39 -107 39h-20v45q72 10 231 55l15 4q29 -90 28 -209h4q37 92 111 150.5t154 58.5q53 0 94 -38t41 -87q0 -70 -66 -70q-51 0 -75 74q-16 49 -56 49 q-49 0 -112 -69q-57 -63 -72 -131q-12 -47 -12 -152v-147q0 -172 14 -195q23 -41 106 -41h29v-45h-434z" />
<glyph unicode="S&#x301;" horiz-adv-x="1046" d="M111 14v412h47q37 -197 135 -297q98 -106 246 -106q123 0 200 69q82 72 82 180q0 170 -260 281l-86 37q-219 90 -291 194q-61 90 -61 199q0 139 92 227q98 92 242 93q172 0 299 -136q47 57 49 113h41v-336h-41q-37 147 -127 230t-211 83q-102 0 -161.5 -53t-59.5 -147 q0 -106 112 -187q55 -37 193 -98q166 -74 233 -113q59 -37 101 -90q72 -94 71 -235q0 -154 -114 -256q-115 -98 -287 -98q-211 0 -350 157q-29 -45 -47 -123h-47zM436 1350l111 182q68 113 117 113q61 0 61 -58q0 -37 -63 -84l-19 -12l-170 -141h-37z" />
<glyph unicode="s&#x301;" horiz-adv-x="655" d="M66 -23v267h38q68 -233 246 -234q63 0 105.5 41t42.5 105q0 63 -41 104q-20 20 -59.5 46t-98.5 54q-156 76 -203 158q-29 53 -28 111q0 47 17 88t48 70.5t72 47t90 17.5q96 0 170 -86q18 18 39 72h37v-254h-37q-20 98 -78.5 160.5t-132.5 62.5q-57 0 -96 -36t-39 -87 q0 -29 9 -51.5t30.5 -44t59.5 -43t93 -45.5q154 -70 201 -140q47 -66 47 -149q0 -106 -68.5 -174t-179.5 -68q-106 0 -203 90q-29 -31 -43 -82h-38zM291 952l108 185q70 111 119 110q59 0 60 -55q0 -37 -62 -84l-188 -156h-37z" />
<glyph unicode="S&#x302;" horiz-adv-x="1046" d="M111 14v412h47q37 -197 135 -297q98 -106 246 -106q123 0 200 69q82 72 82 180q0 170 -260 281l-86 37q-219 90 -291 194q-61 90 -61 199q0 139 92 227q98 92 242 93q172 0 299 -136q47 57 49 113h41v-336h-41q-37 147 -127 230t-211 83q-102 0 -161.5 -53t-59.5 -147 q0 -106 112 -187q55 -37 193 -98q166 -74 233 -113q59 -37 101 -90q72 -94 71 -235q0 -154 -114 -256q-115 -98 -287 -98q-211 0 -350 157q-29 -45 -47 -123h-47zM209 1372l242 275h118l242 -275h-66l-235 152l-234 -152h-67z" />
<glyph unicode="s&#x302;" horiz-adv-x="663" d="M31 952l241 324h119l242 -324h-66l-235 201l-234 -201h-67zM82 -23v267h39q68 -233 246 -234q63 0 105 41t42 105q0 63 -41 104q-20 20 -59 46t-99 54q-156 76 -202 158q-29 53 -29 111q0 47 17.5 88t48 70.5t71.5 47t90 17.5q96 0 170 -86q18 18 39 72h37v-254h-37 q-20 98 -78.5 160.5t-132.5 62.5q-57 0 -96 -36t-39 -87q0 -29 9.5 -51.5t31 -44t59 -43t93.5 -45.5q154 -70 200 -140q47 -66 47 -149q0 -106 -68.5 -174t-178.5 -68q-106 0 -203 90q-29 -31 -43 -82h-39z" />
<glyph unicode="S&#x327;" horiz-adv-x="1046" d="M111 14v412h47q37 -197 135 -297q98 -106 246 -106q123 0 200 69q82 72 82 180q0 170 -260 281l-86 37q-219 90 -291 194q-61 90 -61 199q0 139 92 227q98 92 242 93q172 0 299 -136q47 57 49 113h41v-336h-41q-37 147 -127 230t-211 83q-102 0 -161.5 -53t-59.5 -147 q0 -106 112 -187q55 -37 193 -98q166 -74 233 -113q59 -37 101 -90q72 -94 71 -235q0 -154 -114 -256q-86 -76 -207 -92l-64 -90q125 -45 125 -140q0 -61 -59 -112.5t-145 -65.5q-63 -8 -130 -8h-14v41q-4 0 21 2q199 14 198 119q0 78 -125 84l129 164h-16q-211 0 -350 157 q-29 -45 -47 -123h-47z" />
<glyph unicode="s&#x327;" horiz-adv-x="663" d="M66 -23v267h38q68 -233 246 -234q63 0 105.5 41t42.5 105q0 63 -41 104q-20 20 -59.5 46t-98.5 54q-156 76 -203 158q-29 53 -28 111q0 47 17 88t48 70.5t72 47t90 17.5q96 0 170 -86q18 18 39 72h37v-254h-37q-20 98 -78.5 160.5t-132.5 62.5q-57 0 -96 -36t-39 -87 q0 -29 9 -51.5t30.5 -44t59.5 -43t93 -45.5q154 -70 201 -140q47 -66 47 -149q0 -106 -70 -174q-49 -47 -118 -62l-62 -90q125 -45 125 -139q0 -61 -59.5 -112.5t-147.5 -63.5q-61 -10 -127 -10h-14v41q-4 0 20 2q199 14 199 118q0 78 -125 84l129 164q-104 0 -201 90 q-29 -31 -43 -82h-38z" />
<glyph unicode="S&#x30c;" horiz-adv-x="1046" d="M111 14v412h47q37 -197 135 -297q98 -106 246 -106q123 0 200 69q82 72 82 180q0 170 -260 281l-86 37q-219 90 -291 194q-61 90 -61 199q0 139 92 227q98 92 242 93q172 0 299 -136q47 57 49 113h41v-336h-41q-37 147 -127 230t-211 83q-102 0 -161.5 -53t-59.5 -147 q0 -106 112 -187q55 -37 193 -98q166 -74 233 -113q59 -37 101 -90q72 -94 71 -235q0 -154 -114 -256q-115 -98 -287 -98q-211 0 -350 157q-29 -45 -47 -123h-47zM193 1669h67l236 -196l233 196h68l-242 -319h-121z" />
<glyph unicode="s&#x30c;" horiz-adv-x="665" d="M31 1270h69l234 -197l235 197h66l-242 -322h-119zM53 -27v267h39q68 -233 246 -234q63 0 105 41t42 105q0 63 -41 104q-20 20 -59 46t-98 54q-156 76 -203 158q-29 53 -29 111q0 47 17.5 88t48.5 70.5t71.5 47t90.5 17.5q96 0 170 -86q18 18 39 72h36v-254h-36 q-20 98 -79 160.5t-132 62.5q-57 0 -96.5 -36t-39.5 -87q0 -29 9.5 -51.5t31 -44t59.5 -43t93 -45.5q154 -70 201 -140q47 -66 47 -149q0 -106 -68.5 -174t-179.5 -68q-106 0 -203 90q-29 -31 -43 -82h-39z" />
<glyph unicode="T&#x327;" horiz-adv-x="1402" d="M51 1012v323h1297v-323h-33q-27 143 -76 209q-31 45 -102 61q-14 2 -45 3t-78 1h-215v-942q0 -209 24 -254q27 -45 146 -45h65v-45h-266l-63 -90q137 -49 137 -154q0 -68 -65.5 -124t-160.5 -70q-70 -10 -141 -11h-16v43q-4 0 22 3q219 18 219 133q0 86 -137 92l139 178 h-331v45h67q119 0 144 45q27 45 26 254v942h-276q-131 0 -178 -92q-39 -74 -58 -182h-45z" />
<glyph unicode="t&#x327;" horiz-adv-x="604" d="M41 805v47q195 8 238 264h32v-264h260v-47h-260v-514q0 -143 29 -196.5t100 -53.5q70 0 131 84l29 -19q-49 -100 -143 -126l-43 -62q131 -47 131 -147q0 -66 -62.5 -120t-154.5 -69q-66 -10 -135 -10h-17v43q-4 0 23 2q211 16 211 127q0 82 -134 88l107 137h-2 q-133 0 -186 103q-29 61 -29 250v483h-125z" />
<glyph unicode="T&#x30c;" horiz-adv-x="1351" d="M49 973v307h1247v-307h-32q-25 137 -72 201q-31 43 -98 59q-14 2 -44 3t-75 1h-207v-905q0 -203 25 -246t139 -43h63v-43h-639v43h66q115 0 137 43q27 43 27 246v905h-267q-127 0 -172 -88q-37 -72 -55 -176h-43zM375 1669h67l234 -196l235 196h66l-242 -319h-119z" />
<glyph unicode="t&#x30c;" horiz-adv-x="604" d="M-23 1505h66l236 -196l235 196h66l-242 -319h-121zM41 805v47q195 8 238 264h32v-264h260v-47h-260v-514q0 -143 29 -196.5t100 -53.5q70 0 131 84l29 -19q-68 -137 -219 -137q-133 0 -186 103q-29 61 -29 250v483h-125z" />
<glyph unicode="U&#x303;" horiz-adv-x="1488" d="M39 1237v43h584v-43h-25q-72 0 -82 -2q-47 -8 -67 -41q-23 -41 -23 -233v-517q0 -252 129 -338q96 -66 238 -65q145 0 260 70q115 74 143 184q16 63 16 141q0 2 1 40t1 73v434q0 154 -34 197q-35 49 -160 57v43h430v-43q-100 -8 -144 -52t-44 -145v-598q0 -219 -109 -323 q-143 -139 -405 -139q-322 0 -445 184q-68 100 -63 272v525q2 195 -23 233q-16 31 -65 41q-8 2 -29 2h-55h-29zM471 1360q16 84 66 137q59 66 133 66q57 0 154.5 -48.5t136.5 -48.5q70 0 106 101h49l6 -6q-16 -76 -67 -142q-57 -68 -137 -67q-59 0 -153.5 49t-133.5 49 q-76 0 -113 -96h-45z" />
<glyph unicode="u&#x303;" horiz-adv-x="1099" d="M49 805v47h289v-590q0 -125 37 -175t129 -50q117 0 209 108q45 55 57 105q10 31 10 117v194q0 174 -16 201q-23 43 -113 43h-20v47h297v-557q0 -184 14 -205q23 -43 109 -43h8v-47h-21q-127 0 -213 -33h-10q-33 55 -33 197h-4q-127 -197 -332 -197q-84 0 -153.5 44 t-87.5 112q-14 47 -15 147v291q0 174 -16 201q-23 43 -113 43h-12zM147 961q16 84 66 137q57 66 133 65q57 0 154.5 -48t136.5 -48q70 0 106 100h50l6 -6q-18 -76 -68 -139q-57 -70 -137 -70q-59 0 -153.5 49.5t-133.5 49.5q-76 0 -112 -97h-45z" />
<glyph unicode="U&#x30a;" horiz-adv-x="1488" d="M39 1237v43h584v-43h-25q-72 0 -82 -2q-47 -8 -67 -41q-23 -41 -23 -233v-517q0 -252 129 -338q96 -66 238 -65q145 0 260 70q115 74 143 184q16 63 16 141q0 2 1 40t1 73v434q0 154 -34 197q-35 49 -160 57v43h430v-43q-100 -8 -144 -52t-44 -145v-598q0 -219 -109 -323 q-143 -139 -405 -139q-322 0 -445 184q-68 100 -63 272v525q2 195 -23 233q-16 31 -65 41q-8 2 -29 2h-55h-29zM592 1493q0 76 50 128t124 52t128 -53t54 -127q0 -72 -51 -122t-125 -50q-76 0 -128 50t-52 122zM647 1493q0 -49 36 -85t85 -36q53 0 89 34t36 83q0 55 -37 94 t-88 39t-86 -38t-35 -91z" />
<glyph unicode="u&#x30a;" horiz-adv-x="1099" d="M49 805v47h289v-590q0 -125 37 -175t129 -50q117 0 209 108q45 55 57 105q10 31 10 117v194q0 174 -16 201q-23 43 -113 43h-20v47h297v-557q0 -184 14 -205q23 -43 109 -43h8v-47h-21q-127 0 -213 -33h-10q-33 55 -33 197h-4q-127 -197 -332 -197q-84 0 -153.5 44 t-87.5 112q-14 47 -15 147v291q0 174 -16 201q-23 43 -113 43h-12zM303 1126q0 76 51.5 128.5t122.5 52.5q76 0 129 -53.5t53 -127.5q0 -72 -51 -123t-123 -51q-76 0 -129 51t-53 123zM358 1126q0 -51 36 -85.5t87 -34.5t87 32.5t36 81.5q0 57 -37 95t-88 38t-86 -37 t-35 -90z" />
<glyph unicode="U&#x30b;" horiz-adv-x="1488" d="M39 1237v43h584v-43h-25q-72 0 -82 -2q-47 -8 -67 -41q-23 -41 -23 -233v-517q0 -252 129 -338q96 -66 238 -65q145 0 260 70q115 74 143 184q16 63 16 141q0 2 1 40t1 73v434q0 154 -34 197q-35 49 -160 57v43h430v-43q-100 -8 -144 -52t-44 -145v-598q0 -219 -109 -323 q-143 -139 -405 -139q-322 0 -445 184q-68 100 -63 272v525q2 195 -23 233q-16 31 -65 41q-8 2 -29 2h-55h-29zM496 1321l268 268q41 41 63 56q35 8 39 8q12 0 33 -6q27 -16 29 -37q4 -35 -26 -56l-60 -41l-277 -192h-69zM770 1321l266 268q41 41 64 56q35 8 39 8 q12 0 32 -6q27 -16 29 -37q4 -35 -24 -56l-60 -41l-278 -192h-68z" />
<glyph unicode="u&#x30b;" horiz-adv-x="1099" d="M49 805v47h289v-590q0 -125 37 -175t129 -50q117 0 209 108q45 55 57 105q10 31 10 117v194q0 174 -16 201q-23 43 -113 43h-20v47h297v-557q0 -184 14 -205q23 -43 109 -43h8v-47h-21q-127 0 -213 -33h-10q-33 55 -33 197h-4q-127 -197 -332 -197q-84 0 -153.5 44 t-87.5 112q-14 47 -15 147v291q0 174 -16 201q-23 43 -113 43h-12zM166 952l266 271q41 39 66 53q35 8 37 8q14 0 32 -6q29 -16 31 -37q2 -35 -26.5 -55.5t-59.5 -38.5l-279 -195h-67zM438 952l269 271q39 39 61 53q37 8 41 8q12 0 33 -6q27 -16 28 -37q4 -35 -25.5 -55.5 t-60.5 -38.5l-276 -195h-70z" />
<glyph unicode="U&#x328;" horiz-adv-x="1564" d="M41 1298v45h612v-45h-24q-76 0 -86 -2q-51 -8 -72 -43q-25 -43 -25 -245v-541q0 -264 138 -354q100 -70 247 -70q154 0 275 74q119 76 149 192q18 68 19 150q0 2 1 42t1 74v457q0 162 -37 207q-37 51 -168 59v45h451v-45q-104 -8 -150.5 -54t-46.5 -152v-627 q0 -231 -115 -340q-131 -127 -352 -143q-80 -63 -80 -127q0 -35 24.5 -58.5t59.5 -23.5q76 0 148 69l32 -41q-127 -115 -229 -114q-53 0 -91 37.5t-38 95.5q0 98 92 157q-330 4 -459 195q-70 104 -65 287v549q2 205 -25 245q-16 33 -67 43q-10 2 -31 2h-88z" />
<glyph unicode="u&#x328;" horiz-adv-x="1099" d="M49 805v47h289v-590q0 -125 37 -175t129 -50q117 0 209 108q45 55 57 105q10 31 10 117v194q0 174 -16 201q-23 43 -113 43h-20v47h297v-557q0 -184 14 -205q23 -43 109 -43h8v-47h-21q-127 0 -213 -33h-4q-51 -49 -51 -102q0 -33 23.5 -56.5t56.5 -23.5q72 0 141 70 l31 -41q-121 -109 -219 -109q-51 0 -87 37t-36 90q0 96 96 154h12q-6 61 -6 178h-4q-127 -197 -332 -197q-84 0 -153.5 44t-87.5 112q-14 47 -15 147v291q0 174 -16 201q-23 43 -113 43h-12z" />
<glyph unicode="W&#x302;" horiz-adv-x="1826" d="M0 1237v43h479v-43q-2 -2 -10 -2q-74 -6 -99.5 -22.5t-25.5 -55.5q0 -31 16 -86l271 -811l-17 -6l332 1026h53l375 -1026h4l215 758q16 53 17 100q0 125 -133 125v43h350v-43q-86 -8 -125 -68q-31 -53 -86 -235l-283 -963h-43l-387 1053h-4l-340 -1053h-43l-338 1092 q-29 96 -62.5 133t-101.5 39zM674 1311l239 321h121l242 -321h-66l-235 198l-236 -198h-65z" />
<glyph unicode="w&#x302;" horiz-adv-x="1439" d="M2 805v47h389v-47h-14q-98 0 -98 -55q0 -18 18 -66l211 -504l248 672h39l254 -678l208 533q12 31 13 41q0 53 -107 57v47h277v-47q-59 -4 -84 -23.5t-49 -76.5q-4 -10 -8.5 -26.5t-14.5 -35.5l-264 -672h-45l-254 672l-258 -672h-45l-287 742q-37 92 -117 92h-12z M453 952l241 324h119l242 -324h-66l-235 201l-234 -201h-67z" />
<glyph unicode="Y&#x302;" horiz-adv-x="1308" d="M0 1237v43h518v-43h-10q-135 0 -135 -66q0 -29 49 -106l305 -506l285 477q29 45 28 94q0 106 -141 107h-8v43h418v-43q-86 -16 -144 -70q-53 -51 -133 -186l-287 -479v-170q0 -203 23 -246q27 -43 139 -43h19v-43h-545v43h18q117 0 140 43q25 43 24 246v160l-373 608 q-51 82 -86 108q-28 25 -104 29zM383 1354l242 270h118l242 -270h-65l-236 147l-233 -147h-68z" />
<glyph unicode="y&#x302;" horiz-adv-x="985" d="M2 805v47h391v-47q-104 -4 -104 -43q0 -16 20 -57l252 -541l225 538q16 31 17 52q0 47 -117 51v47h299v-47q-68 -4 -100 -37q-33 -33 -80 -150l-379 -911q-55 -127 -94 -176t-94 -49q-66 0 -66 61q0 66 109 119q59 27 79 49q20 14 43 70l82 203l-319 682q-43 92 -70 114 q-31 23 -94 25zM184 952l242 324h119l241 -324h-65l-236 201l-233 -201h-68z" />
<glyph unicode="Y&#x308;" horiz-adv-x="1300" d="M0 1237v43h518v-43h-10q-135 0 -135 -66q0 -29 49 -106l305 -506l285 477q29 45 28 94q0 106 -141 107h-8v43h418v-43q-86 -16 -144 -70q-53 -51 -133 -186l-287 -479v-170q0 -203 23 -246q27 -43 139 -43h19v-43h-545v43h18q117 0 140 43q25 43 24 246v160l-373 608 q-51 82 -86 108q-28 25 -104 29zM414 1452q0 31 22.5 52.5t52.5 21.5q31 0 52.5 -21.5t21.5 -50.5q0 -33 -20.5 -57.5t-50.5 -24.5q-33 0 -55.5 23.5t-22.5 56.5zM756 1450q0 31 22.5 52.5t55.5 21.5q31 0 52 -22.5t21 -53.5t-21.5 -53.5t-49.5 -22.5q-33 0 -56.5 23.5 t-23.5 54.5z" />
<glyph unicode="Z&#x301;" horiz-adv-x="1228" d="M57 0v33l828 1204h-398q-133 0 -170 -12q-35 -10 -73 -56q-59 -78 -92 -184h-41l41 295h950v-43l-815 -1194h389q133 0 170 6q94 14 145 80q55 70 103 201h43l-43 -330h-1037zM473 1358l111 182q66 113 116 113q61 0 62 -56q0 -35 -64 -86l-186 -153h-39z" />
<glyph unicode="&#x7a;&#x301;" horiz-adv-x="827" d="M55 0v33l566 772h-310q-82 0 -114 -31q-35 -31 -74 -145l-4 -13h-37l12 236h713v-39l-561 -766h231h70q31 0 41 2q63 8 98 47q51 57 96 174h39l-24 -270h-742zM289 952l108 185q68 113 119 112q59 0 59 -55q0 -37 -61 -86l-186 -156h-39z" />
<glyph unicode="Z&#x307;" horiz-adv-x="1226" d="M57 0v33l828 1204h-398q-133 0 -170 -12q-35 -10 -73 -56q-59 -78 -92 -184h-41l41 295h950v-43l-815 -1194h389q133 0 170 6q94 14 145 80q55 70 103 201h43l-43 -330h-1037zM512 1485q0 41 31.5 72.5t74.5 31.5t74 -30.5t31 -73.5q0 -45 -32 -75t-73 -30 q-43 0 -74.5 30t-31.5 75z" />
<glyph unicode="&#x7a;&#x307;" horiz-adv-x="827" d="M55 0v33l566 772h-310q-82 0 -114 -31q-35 -31 -74 -145l-4 -13h-37l12 236h713v-39l-561 -766h231h70q31 0 41 2q63 8 98 47q51 57 96 174h39l-24 -270h-742zM317 1059q0 41 32 71.5t75 30.5t72.5 -29.5t29.5 -72.5q0 -45 -30.5 -76t-71.5 -31q-43 0 -75 31t-32 76z" />
<glyph unicode="Z&#x30c;" horiz-adv-x="1228" d="M57 0v33l828 1204h-398q-133 0 -170 -12q-35 -10 -73 -56q-59 -78 -92 -184h-41l41 295h950v-43l-815 -1194h389q133 0 170 6q94 14 145 80q55 70 103 201h43l-43 -330h-1037zM362 1683h66l236 -196l235 196h66l-242 -321h-121z" />
<glyph unicode="&#x7a;&#x30c;" horiz-adv-x="827" d="M55 0v33l566 772h-310q-82 0 -114 -31q-35 -31 -74 -145l-4 -13h-37l12 236h713v-39l-561 -766h231h70q31 0 41 2q63 8 98 47q51 57 96 174h39l-24 -270h-742zM150 1274h65l236 -197l235 197h66l-242 -322h-121z" />
<glyph unicode="G&#x30c;" horiz-adv-x="1476" d="M100 614q0 70 14.5 141.5t40 137t61.5 124t81 105.5q172 180 459 181q252 0 415 -189q14 35 24.5 70t12.5 73h47v-428h-47q-12 98 -51 177t-96 134.5t-133 85t-164 29.5q-61 0 -117.5 -16t-105.5 -45t-89 -70t-67 -90q-68 -139 -68 -387q0 -348 140 -493 q117 -131 301 -131q111 0 193.5 41.5t111.5 113.5q20 51 20 127q0 102 -8 125q-18 61 -94 68q-8 2 -25 2h-32h-31v47h553v-47h-16q-113 0 -140 -41q-23 -45 -22 -246v-135q-10 2 -18.5 3t-16.5 1q-78 0 -219 -53q-145 -49 -275 -49q-274 0 -456.5 179t-182.5 455zM453 1669 h67l234 -196l235 196h66l-242 -321h-119z" />
<glyph unicode="g&#x30c;" horiz-adv-x="905" d="M57 -248q0 63 34 101t89 38q8 0 31 -6q-63 -70 -64 -147q0 -88 88.5 -143.5t235.5 -55.5t231 55.5t84 153.5q0 80 -55 127q-39 33 -92 45q-27 4 -74 8t-112 9q-201 8 -279 51q-63 33 -63 108q0 135 182 166q-190 111 -191 285q0 127 97 217q94 88 235 88q166 0 268 -104 q84 96 175 96q41 0 69.5 -24.5t28.5 -59.5q0 -66 -60 -66q-33 0 -57 39q-23 41 -47 41q-35 0 -84 -53q53 -84 53 -174q0 -98 -53 -173t-145 -110q-70 -27 -179 -28q-213 -10 -213 -86q0 -37 46 -52q23 -8 64.5 -13t105.5 -9l65 -4q256 -14 342 -95q74 -72 74 -178 q0 -143 -108.5 -222t-311.5 -79q-182 0 -297 72q-113 69 -113 182zM150 1274h65l236 -197l235 197h66l-242 -322h-121zM252 530q0 -250 188 -249q184 0 185 260q0 264 -187 264q-186 -1 -186 -275z" />
<glyph unicode="N&#x300;" horiz-adv-x="1449" d="M33 0v43q137 8 172 49t35 191v678q0 190 -27 233t-154 43h-10v43h377l754 -1001h4v763q0 57 -10.5 94.5t-35 59t-66.5 31.5t-105 10v43h463v-43q-119 -10 -160 -53q-39 -41 -39 -154v-1057h-41l-899 1196h-4v-950q0 -96 49 -136t174 -40v-43h-477zM553 1577q0 55 61 55 q53 0 117 -110l111 -185h-39l-189 156q-61 49 -61 84z" />
<glyph unicode="n&#x300;" horiz-adv-x="1024" d="M49 0v45h17q72 0 96 23.5t24 105.5v350q0 172 -12 195q-18 39 -108 39h-17v47q119 12 207 39l18 8h29q8 -35 16.5 -77t10.5 -95q141 172 313 172q186 0 238 -143q20 -51 20 -93v-337q0 -166 12 -193q25 -41 111 -41h12v-45h-420v45h21q74 0 98.5 23.5t24.5 105.5v438 q0 174 -172 174q-141 0 -258 -174v-333q0 -172 12 -193q27 -41 111 -41h12v-45h-416zM342 1192q0 55 61 55q53 0 117 -110l111 -185h-37l-191 156q-61 49 -61 84z" />
<glyph unicode="&#xc5;&#x301;" horiz-adv-x="1331" d="M0 0v43q100 16 147 86l21 34q10 17 16 36l17 38q10 24 24 62l47 111l371 888h37l469 -1110q31 -80 65 -110q31 -27 109 -35v-43h-506v43h53q106 0 107 70q0 16 -23 69l-118 289h-488l-72 -172q-35 -86 -34 -139q0 -51 36.5 -84t94.5 -33h8v-43h-381zM367 514h450 l-225 545zM516 1456q0 53 36 89t85 36q51 0 90 -37t39 -88q0 -49 -36 -85t-87 -36q-53 0 -90 36t-37 85zM555 1456q0 -35 24.5 -59.5t61.5 -24.5q35 0 59.5 23.5t24.5 56.5q0 41 -24.5 67.5t-61.5 26.5q-35 0 -59.5 -26.5t-24.5 -63.5zM612 1630l78 127q47 80 82 80 q43 0 43 -39q0 -27 -43 -59l-133 -109h-27z" />
<glyph unicode="&#xe5;&#x301;" horiz-adv-x="956" d="M80 152q0 121 137 208q98 63 238 125l155 62v41q0 125 -41 173t-147 48q-150 0 -164 -90l-4 -23q-18 -90 -86 -90q-57 0 -57 60q0 72 96 129q98 57 231 57q248 0 301 -154q14 -35 15 -133v-401q0 -111 65 -111q63 0 82 99h37q-10 -166 -168 -166q-133 0 -160 139 q-203 -139 -329 -139q-86 0 -143.5 47t-57.5 119zM244 195q0 -143 123 -144q88 0 243 127v322l-110 -45q-256 -104 -256 -260zM264 1092q0 39 14.5 70.5t38 56t55 39t66.5 14.5q39 0 72 -15.5t58.5 -39t40 -56.5t14.5 -69q0 -35 -13.5 -67t-38 -56.5t-56.5 -37.5t-69 -13 t-70.5 13t-57 37.5t-39 56.5t-15.5 67zM322 1092q0 -51 34.5 -86t85.5 -35q53 0 88 33.5t35 80.5q0 57 -35.5 95.5t-89.5 38.5q-51 0 -84.5 -36t-33.5 -91zM424 1315l108 182q66 113 119 113q59 0 60 -58q0 -33 -62 -84l-186 -153h-39z" />
<glyph unicode="&#xc6;&#x301;" horiz-adv-x="1824" d="M4 -8v55q63 0 100 31q27 23 66 90l557 989q41 72 37 94q-8 31 -135 31h-54v59h613q53 -10 143 -6q106 6 142 6q186 4 256 -10q-27 -111 -37 -293h-62q0 131 -6 158q-6 37 -51 47q-14 4 -76 10q-45 4 -207 4q-78 0 -194 -14q-10 -59 -11 -160v-362q45 0 134 -2 q72 -2 104 -2q145 0 178 27.5t35 138.5h63v-447h-63q0 129 -27 162q-35 39 -172 39q-45 0 -252 -8v-541q39 0 140 -4q88 -4 139 -4q258 0 287 53q8 29 20 88l19 98h63q-12 -102 -16 -176q0 -16 -6 -75q-4 -45 -5 -68q-80 -12 -284 -8q-41 0 -156 6q-98 2 -158 2 q-139 0 -317 -8v55q104 14 104 123v285q-121 10 -223 10q-109 0 -223 -10q-23 -2 -139 -244q-4 -10 -33 -57q-20 -33 -21 -50q0 -23 54 -43q39 -14 86 -14h22v-55q-119 8 -217 8q-96 0 -217 -8zM514 547h401v717l-243 -422zM1044 1389l111 184q68 111 117 110q61 0 61 -55 q0 -37 -63 -84l-189 -155h-37z" />
<glyph unicode="&#xe6;&#x301;" horiz-adv-x="1280" d="M51 193q0 113 47 163q39 43 138.5 74t216.5 45l94 12q-2 262 -199 263q-37 0 -82 -9q-57 -16 -67 -41q-2 -4 -29 -67l-10 -27l-43 10v111q57 37 140 81t149 44q160 0 241 -127q143 127 268 127q145 0 233.5 -86t88.5 -238q0 -35 -6 -73q-10 -16 -94 -27q-68 -6 -136 -6 h-321q0 -156 72 -250q76 -102 223 -102q96 0 225 80l12 -17l-30 -63q-51 -41 -130 -67t-143 -26q-229 0 -329 193l-205 -172q-102 -20 -99 -21q-92 0 -153 54q-72 62 -72 162zM199 231q0 -139 149 -139q104 0 199 131v205q-113 -14 -160 -22q-88 -23 -147 -58 q-41 -37 -41 -117zM672 952l108 185q70 111 119 110q59 0 59 -55q0 -37 -61 -84l-188 -156h-37zM680 496q43 -10 143 -9l264 7q12 297 -196 297q-197 0 -211 -295z" />
<glyph unicode="&#xd8;&#x301;" horiz-adv-x="1589" d="M109 649q0 289 192 469q197 184 502 185q68 0 137 -13q61 -10 119 -28l18 41h117l-41 -80q23 -10 41 -21q57 -31 104 -72q203 -180 203 -520q0 -272 -196 -452q-195 -178 -490 -178q-143 0 -260 34l-23 -34h-112l39 71q-88 43 -158 111q-192 182 -192 487zM326 641 q0 -256 84 -412q31 -57 86 -102l534 1079q-96 49 -227 49q-236 0 -356.5 -157.5t-120.5 -456.5zM582 70q98 -47 235 -47q221 0 344 158.5t123 445.5q0 309 -123 469q-10 14 -41 61zM793 1370l110 184q68 111 117 111q61 0 61 -55q0 -37 -63 -84l-189 -156h-36z" />
<glyph unicode="&#xf8;&#x301;" horiz-adv-x="968" d="M72 387q0 178 116 297q121 121 295 121q84 0 158 -31l72 135h114l-98 -184q25 -18 47 -41q121 -121 121 -297q0 -182 -119 -301q-115 -115 -295 -115q-82 0 -149 25l-72 -133h-112l94 176q-31 20 -58 47q-114 119 -114 301zM229 383q0 -174 56 -268l327 610 q-53 35 -129 35q-254 0 -254 -377zM358 41q53 -29 125 -29q133 0 193.5 88t60.5 283q0 170 -51 264zM438 952l111 185q68 111 119 110q59 0 59 -55q0 -37 -61 -84l-189 -156h-39z" />
<glyph unicode="S&#x326;" horiz-adv-x="1046" d="M111 14v412h47q37 -197 135 -297q98 -106 246 -106q123 0 200 69q82 72 82 180q0 170 -260 281l-86 37q-219 90 -291 194q-61 90 -61 199q0 139 92 227q98 92 242 93q172 0 299 -136q47 57 49 113h41v-336h-41q-37 147 -127 230t-211 83q-102 0 -161.5 -53t-59.5 -147 q0 -106 112 -187q55 -37 193 -98q166 -74 233 -113q59 -37 101 -90q72 -94 71 -235q0 -154 -114 -256q-115 -98 -287 -98q-211 0 -350 157q-29 -45 -47 -123h-47zM426 -455q92 20 152.5 68.5t60.5 103.5q0 45 -41 45h-18l-15 -6h-8h-10q-41 0 -68.5 17.5t-27.5 44.5 q0 70 98 69q63 0 105 -41t42 -102q0 -82 -73.5 -147.5t-196.5 -85.5v34z" />
<glyph unicode="s&#x326;" horiz-adv-x="663" d="M66 -23v267h38q68 -233 246 -234q63 0 105.5 41t42.5 105q0 63 -41 104q-20 20 -59.5 46t-98.5 54q-156 76 -203 158q-29 53 -28 111q0 47 17 88t48 70.5t72 47t90 17.5q96 0 170 -86q18 18 39 72h37v-254h-37q-20 98 -78.5 160.5t-132.5 62.5q-57 0 -96 -36t-39 -87 q0 -29 9 -51.5t30.5 -44t59.5 -43t93 -45.5q154 -70 201 -140q47 -66 47 -149q0 -106 -68.5 -174t-179.5 -68q-106 0 -203 90q-29 -31 -43 -82h-38zM211 -455q92 20 152.5 68.5t60.5 103.5q0 45 -41 45h-18l-15 -6h-8h-10q-41 0 -68.5 17.5t-27.5 44.5q0 70 98 69 q63 0 105 -41t42 -102q0 -82 -73.5 -147.5t-196.5 -85.5v34z" />
<glyph unicode="T&#x326;" horiz-adv-x="1402" d="M51 1012v323h1297v-323h-33q-27 143 -76 209q-31 45 -102 61q-14 2 -45 3t-78 1h-215v-942q0 -209 24 -254q27 -45 146 -45h65v-45h-663v45h67q119 0 144 45q27 45 26 254v942h-276q-131 0 -178 -92q-39 -74 -58 -182h-45zM563 -451q94 23 157.5 72t63.5 107q0 47 -43 47 h-18l-16 -6h-9h-10q-43 0 -71.5 18t-28.5 45q0 74 102 74q66 0 110 -43t44 -107q0 -86 -77 -153.5t-204 -89.5v36z" />
<glyph unicode="t&#x326;" horiz-adv-x="604" d="M41 805v47q195 8 238 264h32v-264h260v-47h-260v-514q0 -143 29 -196.5t100 -53.5q70 0 131 84l29 -19q-68 -137 -219 -137q-133 0 -186 103q-29 61 -29 250v483h-125zM215 -455q92 20 152.5 68.5t60.5 103.5q0 45 -41 45h-18l-15 -6h-8h-10q-41 0 -68.5 17.5t-27.5 44.5 q0 70 98 69q63 0 105 -41t42 -102q0 -82 -73.5 -147.5t-196.5 -85.5v34z" />
<glyph unicode="&#xa8;&#x301;" horiz-adv-x="643" d="M18 1096q0 39 30 68.5t67 29.5q39 0 67.5 -29.5t28.5 -68.5t-28.5 -67t-67.5 -28t-68 28t-29 67zM258 1141q29 88 52.5 175l49.5 175q12 39 64 45q96 0 102 -76q0 -16 -8 -37l-207 -299zM401 1096q0 39 31 68.5t68 29.5t66.5 -29.5t29.5 -68.5t-29.5 -67t-66.5 -28 q-39 0 -69 28t-30 67z" />
<glyph unicode="&#x391;&#x301;" horiz-adv-x="1466" d="M86 0l647 1393h37l602 -1393h-205l-192 506h-473l-213 -506h-203zM209 1006l100 350q12 41 64 45q96 0 100 -76q2 -12 -6 -35l-207 -301zM575 657h332l-153 441z" />
<glyph unicode="&#x395;&#x301;" horiz-adv-x="1464" d="M0 1006l53 -17l205 301q10 23 8 35q-6 76 -100 76q-53 -4 -66 -45zM401 0q14 141 19 432q4 152 -6 457q-4 154 -6 268.5t-2 190.5q0 53 57 57q27 0 74 -6q53 -6 73 -6h709q33 0 33 -62q0 -61 -58 -98q-16 -14 -73 14q-61 31 -78 29h-531v-473h547q31 0 33 -90 q2 -39 -14 -62q-6 -12 -25 -14h-543v-510h564l141 49q27 -2 45 -37q12 -25 12 -59q0 -80 -53 -80h-918z" />
<glyph unicode="&#x397;&#x301;" horiz-adv-x="1726" d="M0 1006l100 350q12 41 66 45q94 0 100 -76q2 -12 -8 -35l-205 -301zM408 0v1397h188v-613h817v613h191v-1397h-191v639h-817v-639h-188z" />
<glyph unicode="&#x399;&#x301;" horiz-adv-x="886" d="M0 1006l51 -17l205 301q10 23 8 35q-6 76 -100 76q-53 -4 -66 -45zM522 0v1409h170v-1409h-170z" />
<glyph unicode="&#x39f;&#x301;" horiz-adv-x="1843" d="M0 1006l53 -17l205 301q10 23 8 35q-6 76 -102 76q-51 -4 -64 -45zM328 692q-2 315 194 520q199 205 514 207q309 2 514 -209q203 -205 203 -516q0 -287 -215 -491q-209 -203 -500 -207q-301 -2 -506 197q-200 198 -204 499zM512 692q-4 -260 131 -402.5t395 -144.5 q260 -4 398 144q129 137 133 401q0 283 -119 426q-131 152 -412 156q-279 2 -407 -154q-115 -137 -119 -426z" />
<glyph unicode="&#x3a5;&#x301;" horiz-adv-x="1810" d="M0 1006l53 -17l205 301q10 23 8 35q-6 76 -102 76q-51 -4 -64 -45zM334 1405h229l461 -602l465 602h227l-592 -727v-678h-196v678z" />
<glyph unicode="&#x3a9;&#x301;" horiz-adv-x="2138" d="M0 1006l53 -17l205 301q10 23 8 35q-6 76 -102 76q-51 -4 -64 -45zM322 555v53q0 242 129 555q96 236 178 240q55 2 104 -49q-37 -59 -68.5 -128t-62.5 -149q-33 -86 -52.5 -159.5t-27.5 -133.5q-10 -74 -14 -130t-4 -95q-2 -193 43 -283q59 -121 117 -133q27 -8 47 -12 t34 -6q76 0 197 57q135 63 135 127v479q0 23 19 31q10 8 73 15q86 0 91 -46v-479q0 -76 104 -125q127 -57 231 -59h-14q98 14 133 37q41 25 86 114q14 25 21.5 57t9.5 70q2 16 2 58v100v76q-2 6 -6 45t-15 111q-16 145 -79 294l-129 267q0 8 45 35q4 4 61 14q86 0 191 -270 q41 -113 66.5 -202t31.5 -155q8 -74 12 -129t4 -94q0 -166 -67 -328q-84 -197 -228 -213q-37 -4 -66.5 -8t-56.5 -6q-106 0 -233 51q-141 63 -188 146q-12 -39 -156 -117q-133 -78 -293 -78h-39q-366 47 -366 555z" />
<glyph unicode="&#x3b9;&#x308;&#x301;" horiz-adv-x="579" d="M-14 1096q0 39 28.5 68.5t67.5 29.5t67.5 -29.5t28.5 -68.5t-28.5 -67t-67.5 -28t-67.5 28t-28.5 67zM131 852q0 20 31 33q4 0 47 10q29 6 43 6q23 0 39 -16l11 -19q5 -8 9 -18q6 -8 11 -103q2 -27 2 -63v-84v-330q0 -59 4 -80q12 -41 59 -71l26 -21q13 -10 27 -24 q0 -45 -67 -72q-49 -14 -101 -14q-74 -4 -92 149q-4 37 -6 91.5t-2 125.5v103q0 -6 0 18q0 27 2 84q0 57 -2 100t-6 76q-8 20 -16 50zM225 1141q29 88 52.5 175t50.5 175q12 39 61 45q98 0 105 -76q0 -16 -9 -37l-206 -299zM369 1096q0 39 29.5 68.5t68.5 29.5 q37 0 65.5 -29.5t28.5 -68.5t-28.5 -67t-65.5 -28q-41 0 -69.5 28t-28.5 67z" />
<glyph unicode="&#x399;&#x308;" horiz-adv-x="643" d="M49 1487q0 35 25.5 60.5t62.5 25.5q35 0 60.5 -25.5t25.5 -60.5q0 -37 -25.5 -62.5t-60.5 -25.5q-37 0 -62.5 25.5t-25.5 62.5zM233 2v1407h170v-1407h-170zM418 1487q0 35 24.5 60.5t61.5 25.5q35 0 61.5 -25.5t26.5 -60.5q0 -37 -26.5 -62.5t-61.5 -25.5 q-37 0 -61.5 25.5t-24.5 62.5z" />
<glyph unicode="&#x3a5;&#x308;" horiz-adv-x="1540" d="M84 1405h229l461 -602l465 602h227l-592 -727v-678h-196v678zM428 1509q0 39 32 71t70 32q41 0 73 -32t32 -71q0 -41 -32 -71.5t-73 -30.5q-39 0 -70.5 30.5t-31.5 71.5zM838 1509q0 39 29.5 71t70.5 32q43 0 72.5 -32t29.5 -71q0 -41 -29.5 -71.5t-72.5 -30.5 q-41 0 -70.5 30.5t-29.5 71.5z" />
<glyph unicode="&#x3b1;&#x301;" horiz-adv-x="1245" d="M115 463q-4 211 121 328q119 111 331 114q152 2 226 -55q82 -59 96 -59q6 0 39 18q8 6 22 19l37 36l60 35q8 6 51 6q49 0 57 -63q0 -10 -14 -23q-68 -33 -119 -96q-43 -55 -43 -260q-2 -102 43 -202.5t121 -166.5q8 -6 8 -12q0 -20 -39 -51q-53 -41 -92 -31 q-27 10 -59 59q-16 25 -72 52q-10 6 -41 8q-16 0 -113 -70q-72 -49 -211 -49q-405 0 -409 463zM276 426q8 -156 103 -242q8 -8 22.5 -18t34.5 -19q53 -18 72 -18q305 0 315 356q4 88 -55 172q-76 111 -207 113q-47 0 -135 -33q-51 -20 -80 -55q-64 -80 -70 -256zM518 1006 l98 350q12 41 66 45q94 0 100 -76q2 -12 -8 -35l-205 -301z" />
<glyph unicode="&#x3b5;&#x301;" horiz-adv-x="765" d="M100 213q-2 68 21 123q6 25 51 115q-2 23 -41 106q-31 70 -31 141q0 117 113 170q88 37 217 37h84q53 0 76 -10q43 -23 57 -35q20 -20 25 -59q2 -39 -31 -62q-10 -4 -25 -6q-14 6 -61 33q-43 23 -96 27q-90 0 -119 -9q-66 -16 -96 -88q-10 -35 -13 -65q-2 -45 15 -80 q18 -43 63 -43h281q39 0 43 -49q2 -35 -17 -47q-4 -2 -11 -4t-19 -7h-293q-27 0 -45 -47q-16 -41 -17 -69q0 -82 54 -123q12 -12 43 -27q20 -4 52 -5t81 -3q68 -2 100 14q20 14 34 25l23 18h17q43 0 47 -65q2 -39 -51 -76l-6 -2q-57 -35 -93 -41h-106q-127 0 -215 41 q-107 53 -111 172zM358 1006l99 350q12 41 65 45q94 0 101 -76q2 -12 -9 -35l-204 -301z" />
<glyph unicode="&#x3b7;&#x301;" horiz-adv-x="1087" d="M31 811q49 86 104 92q20 0 76 -31q51 -31 90 -26q27 2 59 10l78 21q90 27 148 26q125 0 219 -35q125 -53 133 -157q2 -20 4 -62.5t6 -101.5q4 -119 6 -265.5t2 -322.5v-264q0 -18 -20 -29q-12 -8 -66 -14q-80 0 -77 43l14 522q2 68 3 147.5t1 174.5v157q0 49 -90 80 q-70 27 -129 27q-51 2 -146 -35q-109 -39 -104 -80q2 -16 4 -43t4 -70q4 -78 5 -176t3 -219l2 -172q0 -8 -22 -20q-10 -2 -72 -4q-31 -2 -59 4q-23 8 -23 24l17 738q4 27 -33 43q-14 8 -28.5 11t-30.5 5q-18 0 -72 -33q0 8 -6 35zM557 1006l98 350q12 41 66 45q94 0 100 -76 q2 -12 -8 -35l-205 -301z" />
<glyph unicode="&#x3b9;&#x301;" horiz-adv-x="503" d="M123 852q0 20 31 33q4 0 47 10q29 6 43 6q23 0 39 -16l11 -19q5 -8 9 -18q6 -8 10 -103q2 -27 2 -63v-84v-330q0 -59 4 -80q12 -41 60 -71l25 -21q13 -10 28 -24q0 -45 -67 -72q-49 -14 -101 -14q-74 -4 -92 149q-4 37 -6 91.5t-2 125.5v103q0 -6 0 18q0 27 2 84 q0 57 -2 100t-6 76q-8 20 -17 50zM147 1006l99 350q12 41 65 45q94 0 101 -76q2 -12 -9 -35l-204 -301z" />
<glyph unicode="&#x3c5;&#x308;&#x301;" horiz-adv-x="1009" d="M35 803q0 27 22 55q31 37 99 37q41 0 86 -45q14 -14 34 -258q10 -139 16.5 -215t10.5 -90q20 -127 74 -148q47 -18 84 -20q6 -2 16 -2q14 0 33 -2q113 -6 162 63q37 45 53 176q12 78 18 258q2 66 6.5 109t8.5 63q23 109 104 113q47 0 83 -26.5t38 -71.5q2 -31 -45 -56 q-25 -14 -35 -43q-12 -47 -39 -299q-10 -88 -23.5 -152.5t-31.5 -103.5q-63 -139 -199 -139h-204q-125 0 -191 131q-35 76 -59 242l-33 256q-10 78 -43 104q-41 37 -43 47q-2 7 -2 17zM223 1096q0 39 30 68.5t66 29.5q39 0 68 -29.5t29 -68.5t-29 -67t-68 -28t-67.5 28 t-28.5 67zM465 1141q27 88 50.5 175l49.5 175q12 39 64 45q96 0 102 -76q0 -16 -8 -37l-207 -299zM606 1096q0 39 31 68.5t68 29.5t66.5 -29.5t29.5 -68.5t-30 -67t-66 -28q-39 0 -69 28t-30 67z" />
<glyph unicode="&#x3b9;&#x308;" horiz-adv-x="499" d="M-25 1090q0 37 26 62.5t62 25.5q37 0 63 -26t26 -62q0 -37 -26 -63t-63 -26t-62.5 26t-25.5 63zM131 852q0 20 31 33q4 0 47 10q29 6 43 6q23 0 39 -16l11 -19q5 -8 9 -18q6 -8 11 -103q2 -27 2 -63v-84v-330q0 -59 4 -80q12 -41 59 -71l26 -21q13 -10 27 -24 q0 -45 -67 -72q-49 -14 -101 -14q-74 -4 -92 149q-4 37 -6 91.5t-2 125.5v103q0 -6 0 18q0 27 2 84q0 57 -2 100t-6 76q-8 20 -16 50zM346 1090q0 35 25.5 61.5t62.5 26.5t61.5 -26t24.5 -62q0 -37 -25.5 -63t-60.5 -26q-37 0 -62.5 26t-25.5 63z" />
<glyph unicode="&#x3c5;&#x308;" horiz-adv-x="1009" d="M35 803q0 27 22 55q31 37 99 37q41 0 86 -45q14 -12 34 -258q10 -139 16.5 -215t10.5 -90q23 -129 74 -148q23 -10 43 -14t41 -6q4 -2 16 -2h17q6 0 16 -2q115 -6 162 63q37 43 53 176q12 76 18 258q2 66 6.5 109t8.5 63q23 111 104 113q47 0 83 -26.5t38 -71.5 q2 -31 -45 -56q-27 -16 -35 -43q-14 -49 -39 -299q-10 -88 -23.5 -152.5t-31.5 -103.5q-61 -139 -199 -139h-204q-125 0 -191 131q-35 72 -59 242l-33 256q-10 78 -43 104q-39 37 -43 47q-2 5 -2 17zM211 1104q0 39 30.5 70.5t69.5 31.5q41 0 72 -31.5t31 -70.5 q0 -41 -31 -72t-72 -31q-39 0 -69.5 31t-30.5 72zM616 1104q0 39 32 70.5t73 31.5q39 0 69.5 -31.5t30.5 -70.5q0 -41 -30.5 -72t-69.5 -31q-41 0 -73 31t-32 72z" />
<glyph unicode="&#x3bf;&#x301;" horiz-adv-x="1093" d="M82 442q-2 195 137 326q137 131 336 135q195 4 340 -121q147 -129 152 -321q0 -197 -142 -330q-137 -133 -334 -133t-340 121q-149 126 -149 323zM215 453q-2 -131 109 -236q102 -96 237 -96t236 98q100 102 104 238q2 127 -104 229q-109 100 -240 105q-131 2 -235 -103 q-103 -100 -107 -235zM506 1006l98 350q12 41 66 45q94 0 100 -76q2 -12 -8 -35l-205 -301z" />
<glyph unicode="&#x3c5;&#x301;" horiz-adv-x="1009" d="M35 803q0 27 22 55q31 37 99 37q41 0 86 -45q14 -14 34 -258q10 -139 16.5 -215t10.5 -90q20 -127 74 -148q47 -18 84 -20q6 -2 16 -2q14 0 33 -2q113 -6 162 63q37 45 53 176q12 78 18 258q2 66 6.5 109t8.5 63q23 109 104 113q47 0 83 -26.5t38 -71.5q2 -31 -45 -56 q-25 -14 -35 -43q-12 -47 -39 -299q-10 -88 -23.5 -152.5t-31.5 -103.5q-63 -139 -199 -139h-204q-125 0 -191 131q-35 76 -59 242l-33 256q-10 78 -43 104q-41 37 -43 47q-2 7 -2 17zM469 1006l98 350q12 41 66 45q94 0 100 -76q2 -12 -8 -35l-205 -301z" />
<glyph unicode="&#x3c9;&#x301;" horiz-adv-x="1689" d="M86 401q0 209 102 332q111 129 318 135q20 0 41.5 -2t48.5 -6q35 -6 35 -31q2 -23 -51 -61q-158 -49 -234 -113q-102 -88 -92 -229v-66q8 -92 80 -182q47 -57 112 -63q10 -2 22.5 -4t29.5 -5q68 0 120 25q31 6 95 43q55 61 55 277v28q0 8 20 15q8 0 20.5 1t31.5 3 q82 0 82 -19q0 -14 -2 -22v-21q0 -190 51 -252q16 -8 84 -45q59 -33 125 -33q20 0 39.5 1.5t35.5 3.5q51 6 103 67q51 63 61 109q4 12 8.5 40.5t8.5 71.5q0 20 2 27q0 156 -88 233q-63 55 -238 109q-51 35 -51 61q0 23 47 33q29 6 78 6q203 0 313 -137q104 -125 105 -330 q0 -240 -109 -342q-109 -96 -346 -98q-59 0 -145 43l-62 37l-92 53l-63 -37q-42 -25 -103 -57q-37 -18 -81 -27.5t-93 -11.5q-422 -4 -424 440zM780 1006l99 350q12 41 65 45q94 0 100 -76q2 -12 -8 -35l-205 -301z" />
<glyph unicode="&#x415;&#x308;" horiz-adv-x="1251" d="M43 0v37h47q47 0 90 22q33 16 44.5 48t11.5 133v880q0 129 -25 160q-37 39 -121 39h-47v37h1044l15 -297h-39q-20 106 -46 146t-77 63q-39 14 -139 14h-373v-537h297q117 0 156 35q53 47 57 162h39v-471h-39q-12 98 -27 127q-18 35 -59 55.5t-127 20.5h-297v-449 q0 -90 8 -109.5t27.5 -30.5t77.5 -11h229q115 0 167 16t99 64q63 61 127 186h41l-117 -340h-1044zM344 1599q0 45 32 77t77 32t76.5 -31.5t31.5 -77.5q0 -45 -31.5 -76.5t-76.5 -31.5t-77 31.5t-32 76.5zM696 1599q0 45 32 77t77 32t76.5 -31.5t31.5 -77.5 q0 -45 -31.5 -76.5t-76.5 -31.5t-77 31.5t-32 76.5z" />
<glyph unicode="&#x413;&#x301;" horiz-adv-x="1116" d="M35 0v35q121 4 152.5 37.5t31.5 160.5v814q0 127 -31.5 159.5t-152.5 36.5v37h1026v-299h-31q-4 88 -39 143.5t-86 69.5t-145 14h-359v-975q0 -127 33 -160.5t150 -37.5v-35h-549zM457 1407l98 324h211l-279 -324h-30z" />
<glyph unicode="&#x41a;&#x301;" horiz-adv-x="1366" d="M37 0v37q125 4 160.5 40t35.5 171v862q0 133 -34.5 169t-161.5 40v37h584v-37q-127 -4 -161 -40t-34 -169v-379q109 0 150.5 14.5t94 61.5t83 103.5t77.5 183.5q45 119 74 165t92.5 79.5t149.5 33.5q154 0 153 -108q0 -37 -30.5 -66t-69.5 -29q-27 0 -92 33 q-59 29 -82 29q-33 0 -55.5 -34t-73.5 -171q-94 -256 -244 -324q90 -16 252 -249q170 -246 251 -329t204 -87v-37h-350q-57 90 -240.5 343t-223.5 280.5t-120 27.5v-403q0 -135 34 -171t161 -40v-37h-584zM573 1452l107 344h223l-295 -344h-35z" />
<glyph unicode="&#x435;&#x308;" horiz-adv-x="909" d="M76 446q0 236 120.5 367t303.5 131q154 0 253 -101.5t99 -271.5h-635q0 -205 100 -319q100 -117 236 -117q88 0 154.5 49t111.5 170l33 -20q-23 -137 -123 -250t-254 -113q-164 0 -281.5 129t-117.5 346zM211 1227q0 45 30.5 76.5t75.5 31.5q47 0 78 -31.5t31 -76.5 t-32 -77t-75 -32q-45 0 -76.5 32t-31.5 77zM217 629h424q-4 88 -20 125q-25 55 -74 86.5t-105 31.5q-82 0 -147.5 -64t-77.5 -179zM561 1227q0 45 33 76.5t78 31.5t75.5 -31.5t30.5 -76.5t-30.5 -77t-75.5 -32t-78 32t-33 77z" />
<glyph unicode="&#x433;&#x301;" horiz-adv-x="839" d="M31 0v37q98 2 125.5 30.5t27.5 147.5v485q0 98 -10 126t-37.5 39.5t-105.5 13.5v36h760l36 -249h-45q-37 125 -75.5 155.5t-161.5 30.5h-195v-637q0 -106 11.5 -126.5t35 -36t92.5 -15.5v-37h-458zM315 1044l105 347h223l-295 -347h-33z" />
<glyph unicode="&#x456;&#x308;" horiz-adv-x="569" d="M2 1229q0 45 32 76.5t77 31.5t76.5 -31.5t31.5 -76.5t-31.5 -77t-76.5 -32t-77 32t-32 77zM59 831l277 111h43v-735q0 -86 13.5 -115t38 -42t87.5 -13v-37h-444v37q68 0 90 12t35.5 43t13.5 115v352q0 150 -8 195q-6 31 -21.5 44t-42.5 13t-67 -16zM354 1229 q0 45 32 76.5t77 31.5t76.5 -31.5t31.5 -76.5t-31.5 -77t-76.5 -32t-77 32t-32 77z" />
<glyph unicode="&#x43a;&#x301;" horiz-adv-x="995" d="M45 0v37q90 0 114.5 32.5t24.5 145.5v485q0 109 -10 128.5t-33.5 35t-95.5 15.5v36h459v-36q-82 0 -101.5 -12.5t-36 -30t-16.5 -136.5v-180q23 -2 31 -2q61 0 114.5 35t96.5 147q39 106 64.5 143.5t70.5 61t94 23.5q55 0 87 -27t32 -67q0 -35 -22.5 -59.5t-63.5 -24.5 q-23 0 -55 12q-43 14 -66 14q-45 0 -76 -80q-33 -90 -49 -116.5t-61 -69.5q31 -10 67.5 -47t135.5 -211q80 -139 118.5 -176t114.5 -39v-37h-270q-125 182 -228 375q-25 45 -44 66.5t-54 21.5q-10 0 -37 -2v-246q0 -98 11.5 -126t41 -40t101.5 -12v-37h-459zM393 1044 l105 347h225l-297 -347h-33z" />
<glyph unicode="D&#x323;" horiz-adv-x="1556" d="M41 0v45h57q121 0 146 45q27 45 26 262v656q0 203 -24 245q-23 35 -72 43q-10 2 -86 2h-41v48l389 18q125 6 211 6q383 0 584 -170q221 -188 221 -524q0 -268 -122 -434t-355 -217q-115 -25 -193 -25h-741zM465 412q0 -94 1 -153.5t3 -82.5q2 -45 23 -78q31 -51 184 -51 q86 0 153.5 9.5t121 31t93 54t74.5 79.5q117 166 117 430q0 145 -33 264t-95.5 206t-153.5 137.5t-208 60.5q-14 2 -43 2h-67q-53 0 -96 -1t-74 -3v-905zM676 -279q0 41 31.5 73t74.5 32t74 -31t31 -74q0 -45 -32 -74.5t-73 -29.5q-43 0 -74.5 29.5t-31.5 74.5z" />
<glyph unicode="d&#x323;" horiz-adv-x="1067" d="M74 414q0 186 114 313q117 125 291 125q158 0 291 -121v322q0 168 -14 194q-23 41 -109 41h-20v45q125 2 264 43h22v-1102q0 -176 13 -196q20 -39 108 -39h15v-43l-15 -2q-133 0 -243 -25q-12 57 -13 125v21q-152 -145 -319 -146q-147 0 -264 119q-121 127 -121 326z M240 416q0 -184 71.5 -286.5t196.5 -102.5q152 0 262 143v504q-139 115 -266 114q-264 1 -264 -372zM428 -279q0 41 32 73t75 32t73.5 -31t30.5 -74q0 -45 -32 -74.5t-72 -29.5q-43 0 -75 29.5t-32 74.5z" />
<glyph unicode="E&#x331;" horiz-adv-x="1468" d="M39 0v43h53q115 0 137 43q27 43 27 246v618q0 193 -25 232q-20 33 -67 41q-8 2 -80 2h-41v45l369 16q117 6 198 6q362 0 551 -159q209 -178 209 -494q0 -254 -114.5 -410.5t-335.5 -205.5q-109 -23 -183 -23h-698zM410 -174h577v-86h-577v86zM438 387q0 -88 1 -144.5 t3 -76.5q2 -41 23 -74q29 -49 174 -49q80 0 143.5 9t113.5 29.5t88 51.5t71 76q111 156 110 405q0 137 -30.5 250t-90 195t-145.5 129t-197 55q-12 2 -38 2h-66q-49 0 -89 -1t-71 -3v-854z" />
<glyph unicode="e&#x331;" horiz-adv-x="1007" d="M70 389q0 176 108 297q111 119 275 119q147 0 272 -115v303q0 160 -12 185q-20 37 -103 36h-18v43q117 2 248 41h22v-1040q0 -166 10 -184q20 -37 105 -37h12v-41l-12 -2q-127 0 -232 -23q-12 53 -12 117v21q-141 -137 -301 -138q-137 0 -248 113q-114 119 -114 305z M225 391q0 -174 67.5 -270t186.5 -96q143 0 246 135v477q-129 106 -250 106q-250 0 -250 -352zM236 -174h577v-86h-577v86z" />
<glyph unicode="H&#x327;" horiz-adv-x="1550" d="M59 0v43h33q117 0 140.5 43t23.5 246v629q0 197 -23 233q-20 33 -67 41q-8 2 -29 2h-53h-25v43h578v-43h-25h-55q-18 0 -29 -2q-43 -8 -63 -41q-25 -41 -25 -233v-254h670v254q0 195 -25 233q-20 33 -67 41q-8 2 -80 2h-37v43h584v-43h-21h-55q-18 0 -29 -2 q-47 -8 -63 -41q-25 -43 -25 -233v-629q0 -203 25 -246t137 -43h31v-43h-584v43h45q115 0 137 43q27 43 27 246v309h-670v-309q0 -203 25 -246t137 -43h35v-43h-578zM662 -279q0 -45 31.5 -74.5t74.5 -29.5q41 0 72.5 29.5t31.5 74.5q0 43 -30.5 74t-73.5 31t-74.5 -32 t-31.5 -73z" />
<glyph unicode="h&#x327;" horiz-adv-x="1075" d="M47 0v45h23q74 0 97 24.5t23 104.5v924q0 102 -10 133q-20 57 -110 57h-15v45h11q35 0 79.5 6.5t102.5 16.5l33 8q16 4 32 12h21v-692h4q119 168 293 168q129 0 203 -68q49 -43 65 -129q6 -41 6 -147v-227q0 -168 15 -195q23 -41 108 -41h16v-45h-423v45h20 q74 0 97.5 24.5t23.5 104.5v352q0 76 -8.5 127.5t-30 82t-57 43t-91.5 12.5q-150 0 -241 -181v-329q0 -168 14 -195q23 -41 109 -41h6v-45h-416zM412 -279q0 -45 31.5 -74.5t74.5 -29.5q41 0 73 29.5t32 74.5q0 43 -31 74t-74 31t-74.5 -32t-31.5 -73z" />
<glyph unicode="H&#x32e;" horiz-adv-x="1550" d="M59 0v43h33q117 0 140.5 43t23.5 246v629q0 197 -23 233q-20 33 -67 41q-8 2 -29 2h-53h-25v43h578v-43h-25h-55q-18 0 -29 -2q-43 -8 -63 -41q-25 -41 -25 -233v-254h670v254q0 195 -25 233q-20 33 -67 41q-8 2 -80 2h-37v43h584v-43h-21h-55q-18 0 -29 -2 q-47 -8 -63 -41q-25 -43 -25 -233v-629q0 -203 25 -246t137 -43h31v-43h-584v43h45q115 0 137 43q27 43 27 246v309h-670v-309q0 -203 25 -246t137 -43h35v-43h-578zM500 -106q4 -98 39 -168q70 -143 231 -144q127 0 199 94q61 84 67 218l-8 8h-51q-12 -88 -66 -144 q-59 -55 -141 -55q-86 0 -143 55q-53 55 -68 144h-51z" />
<glyph unicode="h&#x32e;" horiz-adv-x="1075" d="M47 0v45h23q74 0 97 24.5t23 104.5v924q0 102 -10 133q-20 57 -110 57h-15v45h11q35 0 79.5 6.5t102.5 16.5l33 8q16 4 32 12h21v-692h4q119 168 293 168q129 0 203 -68q49 -43 65 -129q6 -41 6 -147v-227q0 -168 15 -195q23 -41 108 -41h16v-45h-423v45h20 q74 0 97.5 24.5t23.5 104.5v352q0 76 -8.5 127.5t-30 82t-57 43t-91.5 12.5q-150 0 -241 -181v-329q0 -168 14 -195q23 -41 109 -41h6v-45h-416zM248 -106q4 -98 39 -168q70 -143 231 -144q127 0 199 94q61 84 67 218l-8 8h-51q-12 -88 -66 -144q-59 -55 -141 -55 q-86 0 -143 55q-53 55 -68 144h-51z" />
<glyph unicode="K&#x323;" horiz-adv-x="1509" d="M53 0v43h41q115 0 137 43q25 43 25 246v629q0 195 -23 233q-20 33 -67 41q-10 2 -80 2h-14v43h567v-43h-25h-55q-20 0 -29 -2q-45 -8 -65 -41q-23 -39 -23 -233v-332l392 352q135 121 135 172q0 78 -135 84v43h481v-43q-143 -4 -314 -164l-333 -307l579 -588 q41 -39 74 -65.5t59 -40.5q53 -29 129 -29v-43h-663v43h24q160 0 160 61q0 43 -135 179l-363 364l-90 -82v-233q0 -203 25 -246t137 -43h27v-43h-578zM662 -279q0 -45 31.5 -74.5t74.5 -29.5q41 0 72.5 29.5t31.5 74.5q0 43 -30.5 74t-73.5 31t-74.5 -32t-31.5 -73z" />
<glyph unicode="k&#x323;" horiz-adv-x="884" d="M25 0v43h28q76 0 97 27q18 18 18 94v874q0 96 -10 125q-20 51 -101 51h-14v43h10q57 0 168 23q16 2 31.5 6t32.5 12h20v-872l80 59q199 141 199 201q0 39 -74 43v43h311v-43q-90 -4 -229 -129q-6 -2 -17 -11l-24 -22q-20 -14 -43 -37l-59 -45l276 -323l43 -47 q18 -20 33 -29q47 -43 94 -43v-43h-385v43q96 2 96 41q0 16 -18 43q-8 4 -45 49l-199 230l-39 -29v-113q0 -164 12 -182q20 -39 95 -39h6v-43h-393zM360 -279q0 -45 32 -74.5t75 -29.5q41 0 72.5 29.5t31.5 74.5q0 43 -30.5 74t-73.5 31t-75 -32t-32 -73z" />
<glyph unicode="S&#x323;" horiz-adv-x="1110" d="M117 14v437h51q39 -207 141 -316q106 -111 262 -110q129 0 213 73q86 76 86 191q0 180 -274 297l-92 39q-231 96 -309 206q-66 96 -66 211q0 147 100 242q102 96 254 96q182 0 318 -143q49 61 51 119h45v-355h-45q-39 156 -134 244t-224 88q-106 0 -170 -57t-64 -156 q0 -113 121 -196q57 -41 203 -105q176 -78 247 -121q63 -39 107 -94q76 -100 76 -250q0 -164 -121 -272q-121 -104 -305 -105q-223 0 -371 168q-31 -47 -49 -131h-51zM449 -279q0 41 31.5 73t74.5 32t73.5 -31t30.5 -74q0 -45 -31.5 -74.5t-72.5 -29.5q-43 0 -74.5 29.5 t-31.5 74.5z" />
<glyph unicode="s&#x323;" horiz-adv-x="663" d="M66 -23v267h38q68 -233 246 -234q63 0 105.5 41t42.5 105q0 63 -41 104q-20 20 -59.5 46t-98.5 54q-156 76 -203 158q-29 53 -28 111q0 47 17 88t48 70.5t72 47t90 17.5q96 0 170 -86q18 18 39 72h37v-254h-37q-20 98 -78.5 160.5t-132.5 62.5q-57 0 -96 -36t-39 -87 q0 -29 9 -51.5t30.5 -44t59.5 -43t93 -45.5q154 -70 201 -140q47 -66 47 -149q0 -106 -68.5 -174t-179.5 -68q-106 0 -203 90q-29 -31 -43 -82h-38zM231 -279q0 41 32 73t75 32t73.5 -31t30.5 -74q0 -45 -31.5 -74.5t-72.5 -29.5q-43 0 -75 29.5t-32 74.5z" />
<glyph unicode="T&#x323;" horiz-adv-x="1409" d="M51 1016v319h1303v-319h-35q-25 143 -74 209q-33 45 -104 61q-14 4 -45 5t-78 1h-217v-946q0 -211 26 -256q27 -45 146 -45h65v-45h-665v45h67q121 0 144 45q29 45 28 256v946h-278q-133 0 -180 -92q-39 -76 -58 -184h-45zM598 -279q0 41 32 73t75 32t73.5 -31t30.5 -74 q0 -45 -32 -74.5t-72 -29.5q-43 0 -75 29.5t-32 74.5z" />
<glyph unicode="t&#x323;" horiz-adv-x="604" d="M41 805v47q195 8 238 264h32v-264h260v-47h-260v-514q0 -143 29 -196.5t100 -53.5q70 0 131 84l29 -19q-68 -137 -219 -137q-133 0 -186 103q-29 61 -29 250v483h-125zM227 -279q0 41 32 73t75 32t73.5 -31t30.5 -74q0 -45 -31.5 -74.5t-72.5 -29.5q-43 0 -75 29.5 t-32 74.5z" />
<glyph unicode="T&#x331;" horiz-adv-x="1349" d="M49 973v307h1247v-307h-32q-25 137 -72 201q-31 43 -98 59q-14 2 -44 3t-75 1h-207v-905q0 -203 25 -246t139 -43h63v-43h-639v43h66q115 0 137 43q27 43 27 246v905h-267q-127 0 -172 -88q-37 -72 -55 -176h-43zM389 -174h578v-86h-578v86z" />
<glyph unicode="t&#x331;" horiz-adv-x="604" d="M-4 -174h577v-86h-577v86zM41 805v47q195 8 238 264h32v-264h260v-47h-260v-514q0 -143 29 -196.5t100 -53.5q70 0 131 84l29 -19q-68 -137 -219 -137q-133 0 -186 103q-29 61 -29 250v483h-125z" />
<glyph unicode="t&#x32d;" horiz-adv-x="557" d="M-31 -614l271 497h79l269 -497h-88l-219 399l-228 -399h-84zM10 805v47q195 8 238 264h33v-264h260v-47h-260v-514q0 -143 28.5 -196.5t100.5 -53.5q70 0 131 84l28 -19q-68 -137 -219 -137q-133 0 -186 103q-29 61 -29 250v483h-125z" />
<glyph unicode="W&#x300;" horiz-adv-x="1832" d="M0 1237v43h479v-43q-2 -2 -10 -2q-74 -6 -99.5 -22.5t-25.5 -55.5q0 -31 16 -86l271 -811l-17 -6l332 1026h53l375 -1026h4l215 758q16 53 17 100q0 125 -133 125v43h350v-43q-86 -8 -125 -68q-31 -53 -86 -235l-283 -963h-43l-387 1053h-4l-340 -1053h-43l-338 1092 q-29 96 -62.5 133t-101.5 39zM803 1577q0 55 61 55q53 0 117 -110l111 -185h-39l-189 156q-61 49 -61 84z" />
<glyph unicode="w&#x300;" horiz-adv-x="1439" d="M2 805v47h389v-47h-14q-98 0 -98 -55q0 -18 18 -66l211 -504l248 672h39l254 -678l208 533q12 31 13 41q0 53 -107 57v47h277v-47q-59 -4 -84 -23.5t-49 -76.5q-4 -10 -8.5 -26.5t-14.5 -35.5l-264 -672h-45l-254 672l-258 -672h-45l-287 742q-37 92 -117 92h-12z M524 1192q0 55 62 55q53 0 116 -110l111 -185h-39l-188 156q-62 49 -62 84z" />
<glyph unicode="W&#x301;" horiz-adv-x="1832" d="M0 1237v43h479v-43q-2 -2 -10 -2q-74 -6 -99.5 -22.5t-25.5 -55.5q0 -31 16 -86l271 -811l-17 -6l332 1026h53l375 -1026h4l215 758q16 53 17 100q0 125 -133 125v43h350v-43q-86 -8 -125 -68q-31 -53 -86 -235l-283 -963h-43l-387 1053h-4l-340 -1053h-43l-338 1092 q-29 96 -62.5 133t-101.5 39zM856 1337l111 185q68 111 116 110q61 0 62 -55q0 -37 -64 -84l-188 -156h-37z" />
<glyph unicode="w&#x301;" horiz-adv-x="1439" d="M2 805v47h389v-47h-14q-98 0 -98 -55q0 -18 18 -66l211 -504l248 672h39l254 -678l208 533q12 31 13 41q0 53 -107 57v47h277v-47q-59 -4 -84 -23.5t-49 -76.5q-4 -10 -8.5 -26.5t-14.5 -35.5l-264 -672h-45l-254 672l-258 -672h-45l-287 742q-37 92 -117 92h-12z M606 952l111 185q68 111 117 110q61 0 61 -55q0 -37 -64 -84l-188 -156h-37z" />
<glyph unicode="W&#x308;" horiz-adv-x="1832" d="M0 1237v43h479v-43q-2 -2 -10 -2q-74 -6 -99.5 -22.5t-25.5 -55.5q0 -31 16 -86l271 -811l-17 -6l332 1026h53l375 -1026h4l215 758q16 53 17 100q0 125 -133 125v43h350v-43q-86 -8 -125 -68q-31 -53 -86 -235l-283 -963h-43l-387 1053h-4l-340 -1053h-43l-338 1092 q-29 96 -62.5 133t-101.5 39zM727 1417q0 31 22.5 52.5t53.5 21.5t52.5 -21.5t21.5 -50.5q0 -33 -20.5 -57.5t-51.5 -24.5q-33 0 -55.5 23.5t-22.5 56.5zM1069 1415q0 31 22.5 52.5t55.5 21.5q31 0 52.5 -22.5t21.5 -53.5t-21.5 -53.5t-50.5 -22.5q-33 0 -56.5 23.5 t-23.5 54.5z" />
<glyph unicode="w&#x308;" horiz-adv-x="1439" d="M2 805v47h389v-47h-14q-98 0 -98 -55q0 -18 18 -66l211 -504l248 672h39l254 -678l208 533q12 31 13 41q0 53 -107 57v47h277v-47q-59 -4 -84 -23.5t-49 -76.5q-4 -10 -8.5 -26.5t-14.5 -35.5l-264 -672h-45l-254 672l-258 -672h-45l-287 742q-37 92 -117 92h-12z M451 1032q0 31 22.5 52.5t52.5 21.5q31 0 52.5 -21.5t21.5 -50.5q0 -33 -20.5 -57.5t-51.5 -24.5q-33 0 -55 23.5t-22 56.5zM793 1030q0 31 22.5 52.5t54.5 21.5q31 0 52.5 -22.5t21.5 -53.5t-21.5 -53.5t-50.5 -22.5q-33 0 -56 23.5t-23 54.5z" />
<glyph unicode="Z&#x323;" horiz-adv-x="1300" d="M61 0v35l877 1276h-422q-141 0 -180 -13q-37 -10 -78 -59q-63 -82 -98 -195h-43l43 312h1007v-45l-864 -1266h414q139 0 180 8q100 14 154 82q59 76 108 215h45l-45 -350h-1098zM545 -279q0 41 31.5 73t74.5 32t74 -31t31 -74q0 -45 -32 -74.5t-73 -29.5 q-43 0 -74.5 29.5t-31.5 74.5z" />
<glyph unicode="&#x7a;&#x323;" horiz-adv-x="894" d="M55 0v33l566 772h-310q-82 0 -114 -31q-35 -31 -74 -145l-4 -13h-37l12 236h713v-39l-561 -766h231h70q31 0 41 2q63 8 98 47q51 57 96 174h39l-24 -270h-742zM342 -279q0 41 32 73t75 32t73.5 -31t30.5 -74q0 -45 -32 -74.5t-72 -29.5q-43 0 -75 29.5t-32 74.5z" />
<glyph unicode="h&#x331;" horiz-adv-x="1075" d="M47 0v45h23q74 0 97 24.5t23 104.5v924q0 102 -10 133q-20 57 -110 57h-15v45h11q35 0 79.5 6.5t102.5 16.5l33 8q16 4 32 12h21v-692h4q119 168 293 168q129 0 203 -68q49 -43 65 -129q6 -41 6 -147v-227q0 -168 15 -195q23 -41 108 -41h16v-45h-423v45h20 q74 0 97.5 24.5t23.5 104.5v352q0 76 -8.5 127.5t-30 82t-57 43t-91.5 12.5q-150 0 -241 -181v-329q0 -168 14 -195q23 -41 109 -41h6v-45h-416zM236 -174h577v-86h-577v86z" />
<glyph unicode="Y&#x300;" horiz-adv-x="1308" d="M0 1237v43h518v-43h-10q-135 0 -135 -66q0 -29 49 -106l305 -506l285 477q29 45 28 94q0 106 -141 107h-8v43h418v-43q-86 -16 -144 -70q-53 -51 -133 -186l-287 -479v-170q0 -203 23 -246q27 -43 139 -43h19v-43h-545v43h18q117 0 140 43q25 43 24 246v160l-373 608 q-51 82 -86 108q-28 25 -104 29zM545 1577q0 55 61 55q53 0 117 -110l111 -185h-39l-189 156q-61 49 -61 84z" />
<glyph unicode="y&#x300;" horiz-adv-x="884" d="M-8 729v43h354v-43q-94 -4 -94 -39q0 -14 18 -53l230 -492l205 490q14 29 14 47q0 43 -105 47v43h271v-43q-61 -4 -90 -33q-31 -31 -74 -137l-344 -827q-49 -115 -85 -160t-85 -45q-61 0 -62 55q0 61 99 109q55 25 75 45q16 14 37 63l74 185l-289 618q-39 84 -63 105 q-29 20 -86 22zM307 1192q0 55 62 55q53 0 116 -110l111 -185h-39l-188 156q-62 49 -62 84z" />
<glyph unicode="&#x3b1;&#x313;" horiz-adv-x="1245" d="M115 463q-4 211 121 328q119 111 331 114q152 2 226 -55q82 -59 96 -59q6 0 39 18q8 6 22 19l37 36l60 35q8 6 51 6q49 0 57 -63q0 -10 -14 -23q-68 -33 -119 -96q-43 -55 -43 -260q-2 -102 43 -202.5t121 -166.5q8 -6 8 -12q0 -20 -39 -51q-53 -41 -92 -31 q-27 10 -59 59q-16 25 -72 52q-10 6 -41 8q-16 0 -113 -70q-72 -49 -211 -49q-405 0 -409 463zM276 426q8 -156 103 -242q8 -8 22.5 -18t34.5 -19q53 -18 72 -18q305 0 315 356q4 88 -55 172q-76 111 -207 113q-47 0 -135 -33q-51 -20 -80 -55q-64 -80 -70 -256zM489 1325 q6 82 97 82q63 0 98 -72q16 -35 16 -88v-26q0 -16 -2 -39q-4 -23 -12 -45.5t-18 -42.5q-10 -23 -35 -33l-33 -12q-27 -10 -35 -11q-39 4 -45 17q-10 25 -10 37q10 -4 55 28l36 39q15 16 24 29q14 16 -33 59q-6 6 -64 33q-39 14 -39 45z" />
<glyph unicode="&#x3b1;&#x314;" horiz-adv-x="1245" d="M115 463q-4 211 121 328q119 111 331 114q152 2 226 -55q82 -59 96 -59q6 0 39 18q8 6 22 19l37 36l60 35q8 6 51 6q49 0 57 -63q0 -10 -14 -23q-68 -33 -119 -96q-43 -55 -43 -260q-2 -102 43 -202.5t121 -166.5q8 -6 8 -12q0 -20 -39 -51q-53 -41 -92 -31 q-27 10 -59 59q-16 25 -72 52q-10 6 -41 8q-16 0 -113 -70q-72 -49 -211 -49q-405 0 -409 463zM276 426q8 -156 103 -242q8 -8 22.5 -18t34.5 -19q53 -18 72 -18q305 0 315 356q4 88 -55 172q-76 111 -207 113q-47 0 -135 -33q-51 -20 -80 -55q-64 -80 -70 -256zM438 1247 q-2 102 64 142q27 18 53 18q86 0 96 -82q0 -35 -39 -45q-49 -16 -63 -33q-47 -43 -33 -59q10 -14 26 -31l33 -37q23 -23 56 -28q0 -14 -10 -37q-10 -12 -48 -17q-8 0 -32 11l-33 12q-23 10 -35 33q-23 41 -31 88q-2 10 -2 26t-2 39z" />
<glyph unicode="&#x3b1;&#x313;&#x300;" horiz-adv-x="1245" d="M115 463q-4 211 121 328q119 111 331 114q152 2 226 -55q82 -59 96 -59q6 0 39 18q8 6 22 19l37 36l60 35q8 6 51 6q49 0 57 -63q0 -10 -14 -23q-68 -33 -119 -96q-43 -55 -43 -260q-2 -102 43 -202.5t121 -166.5q8 -6 8 -12q0 -20 -39 -51q-53 -41 -92 -31 q-27 10 -59 59q-16 25 -72 52q-10 6 -41 8q-16 0 -113 -70q-72 -49 -211 -49q-405 0 -409 463zM240 1325q6 82 98 82q61 0 96 -72q18 -35 19 -88v-26q0 -16 -2 -39q-4 -23 -13.5 -45.5t-19.5 -42.5q-10 -23 -35 -33l-33 -12q-27 -10 -35 -11q-37 4 -45 17q-10 25 -10 37 q12 -4 55 28q23 23 37.5 39.5t22.5 28.5q14 16 -33 59q-4 6 -61 33q-41 14 -41 45zM276 426q8 -156 103 -242q8 -8 22.5 -18t34.5 -19q53 -18 72 -18q305 0 315 356q4 88 -55 172q-76 111 -207 113q-47 0 -135 -33q-51 -20 -80 -55q-64 -80 -70 -256zM557 1337q6 74 100 74 q53 -2 64 -43l100 -352l-49 -15l-207 302q-10 18 -8 34z" />
<glyph unicode="&#x3b1;&#x314;&#x300;" horiz-adv-x="1245" d="M115 463q-4 211 121 328q119 111 331 114q152 2 226 -55q82 -59 96 -59q6 0 39 18q8 6 22 19l37 36l60 35q8 6 51 6q49 0 57 -63q0 -10 -14 -23q-68 -33 -119 -96q-43 -55 -43 -260q-2 -102 43 -202.5t121 -166.5q8 -6 8 -12q0 -20 -39 -51q-53 -41 -92 -31 q-27 10 -59 59q-16 25 -72 52q-10 6 -41 8q-16 0 -113 -70q-72 -49 -211 -49q-405 0 -409 463zM250 1247q0 102 65 142q27 18 52 18q88 0 98 -82q0 -35 -39 -45q-45 -16 -66 -33q-45 -43 -32 -58l26 -32l33 -37q23 -23 57 -28q0 -14 -10 -37q-8 -12 -49 -17q-6 0 -31 11 l-32 12q-25 10 -35 33q-25 47 -33 88q-2 10 -2 26t-2 39zM276 426q8 -156 103 -242q8 -8 22.5 -18t34.5 -19q53 -18 72 -18q305 0 315 356q4 88 -55 172q-76 111 -207 113q-47 0 -135 -33q-51 -20 -80 -55q-64 -80 -70 -256zM575 1337q6 74 101 74q51 -2 63 -43l101 -352 l-52 -15l-206 302q-9 18 -7 34z" />
<glyph unicode="&#x3b1;&#x313;&#x301;" horiz-adv-x="1245" d="M115 463q-4 211 121 328q119 111 331 114q152 2 226 -55q82 -59 96 -59q6 0 39 18q8 6 22 19l37 36l60 35q8 6 51 6q49 0 57 -63q0 -10 -14 -23q-68 -33 -119 -96q-43 -55 -43 -260q-2 -102 43 -202.5t121 -166.5q8 -6 8 -12q0 -20 -39 -51q-53 -41 -92 -31 q-27 10 -59 59q-16 25 -72 52q-10 6 -41 8q-16 0 -113 -70q-72 -49 -211 -49q-405 0 -409 463zM276 426q8 -156 103 -242q8 -8 22.5 -18t34.5 -19q53 -18 72 -18q305 0 315 356q4 88 -55 172q-76 111 -207 113q-47 0 -135 -33q-51 -20 -80 -55q-64 -80 -70 -256zM305 1325 q8 82 98 82q61 0 97 -72q18 -35 18 -88v-26q0 -16 -2 -39q-4 -23 -12 -45.5t-19 -42.5q-12 -23 -34 -33l-33 -12q-27 -10 -35 -11q-39 4 -47 17q-10 25 -10 37q12 -4 57 28l35 39l24 29q12 16 -32 59q-6 6 -64 33q-41 14 -41 45zM604 1016l105 352q10 41 59 43q96 0 102 -74 q2 -20 -6 -34l-207 -302z" />
<glyph unicode="&#x3b1;&#x314;&#x301;" horiz-adv-x="1245" d="M115 463q-4 211 121 328q119 111 331 114q152 2 226 -55q82 -59 96 -59q6 0 39 18q8 6 22 19l37 36l60 35q8 6 51 6q49 0 57 -63q0 -10 -14 -23q-68 -33 -119 -96q-43 -55 -43 -260q-2 -102 43 -202.5t121 -166.5q8 -6 8 -12q0 -20 -39 -51q-53 -41 -92 -31 q-27 10 -59 59q-16 25 -72 52q-10 6 -41 8q-16 0 -113 -70q-72 -49 -211 -49q-405 0 -409 463zM276 426q8 -156 103 -242q8 -8 22.5 -18t34.5 -19q53 -18 72 -18q305 0 315 356q4 88 -55 172q-76 111 -207 113q-47 0 -135 -33q-51 -20 -80 -55q-64 -80 -70 -256zM377 1247 q0 102 65 142q25 18 50 18q90 0 100 -82q0 -35 -39 -45q-47 -16 -66 -33q-45 -43 -33.5 -58t26 -31.5l34.5 -37.5q23 -23 59 -28q0 -14 -12 -37q-8 -12 -49 -17q-8 0 -33 11l-30 12q-25 10 -35 33q-25 47 -33 88q-2 10 -2 26t-2 39zM696 1016l101 352q10 41 63 43 q94 0 98 -74q2 -20 -6 -34l-207 -302z" />
<glyph unicode="&#x3b1;&#x313;&#x342;" horiz-adv-x="1245" d="M115 463q-4 211 121 328q119 111 331 114q152 2 226 -55q82 -59 96 -59q6 0 39 18q8 6 22 19l37 36l60 35q8 6 51 6q49 0 57 -63q0 -10 -14 -23q-68 -33 -119 -96q-43 -55 -43 -260q-2 -102 43 -202.5t121 -166.5q8 -6 8 -12q0 -20 -39 -51q-53 -41 -92 -31 q-27 10 -59 59q-16 25 -72 52q-10 6 -41 8q-16 0 -113 -70q-72 -49 -211 -49q-405 0 -409 463zM276 426q8 -156 103 -242q8 -8 22.5 -18t34.5 -19q53 -18 72 -18q305 0 315 356q4 88 -55 172q-76 111 -207 113q-47 0 -135 -33q-51 -20 -80 -55q-64 -80 -70 -256zM332 1321 q51 129 198 135q41 0 132 -53q98 -61 129 -64q49 0 93 30t62 75l37 -66q-18 -53 -76 -90q-61 -39 -116 -39q-39 0 -142 62q-14 6 -33.5 12t-44.5 16q-20 12 -43 13q-111 0 -155 -99zM512 1210q8 61 98 62q37 0 52 -15q14 -4 47 -34q16 -39 16 -109v-18q0 -10 -2 -27 q-4 -8 -13.5 -20.5t-19.5 -32.5q-8 -20 -35 -33l-32 -8q-25 -14 -33 -14q-37 6 -45 20q-12 18 -13 33q12 -2 56 30q20 8 49 35q4 6 2 33q0 23 -12 35q-18 18 -72 31q-43 16 -43 32z" />
<glyph unicode="&#x3b1;&#x314;&#x342;" horiz-adv-x="1245" d="M115 463q-4 211 121 328q119 111 331 114q152 2 226 -55q82 -59 96 -59q6 0 39 18q8 6 22 19l37 36l60 35q8 6 51 6q49 0 57 -63q0 -10 -14 -23q-68 -33 -119 -96q-43 -55 -43 -260q-2 -102 43 -202.5t121 -166.5q8 -6 8 -12q0 -20 -39 -51q-53 -41 -92 -31 q-27 10 -59 59q-16 25 -72 52q-10 6 -41 8q-16 0 -113 -70q-72 -49 -211 -49q-405 0 -409 463zM264 1321q49 129 199 135q39 0 131 -53q98 -61 129 -64q49 0 93 30t63 75l39 -66q-20 -53 -80 -90q-59 -39 -115 -39q-39 0 -141 62q-14 6 -34 12t-46 16q-20 12 -41 13 q-111 0 -158 -99zM276 426q8 -156 103 -242q8 -8 22.5 -18t34.5 -19q53 -18 72 -18q305 0 315 356q4 88 -55 172q-76 111 -207 113q-47 0 -135 -33q-51 -20 -80 -55q-64 -80 -70 -256zM459 1114q0 70 16 109q6 8 47 34q25 18 53 19q49 0 72 -29q12 -8 25 -37q0 -16 -43 -32 q-51 -12 -72 -31q-10 -10 -12 -35q-6 -35 22 -45q14 -6 29 -23q20 -25 55 -30q0 -14 -12 -33q-6 -14 -45 -20q-8 0 -33 14l-33 8q-20 12 -34 33q-12 10 -31 53q-2 10 -2 23q0 12 -2 22z" />
<glyph unicode="&#x391;&#x313;" horiz-adv-x="1466" d="M86 0l647 1393h37l602 -1393h-205l-192 506h-473l-213 -506h-203zM199 1325q8 82 98 82q61 0 96 -72q18 -35 19 -88v-26q0 -16 -2 -39q-4 -23 -14 -45l-17 -43q-12 -23 -35 -33l-33 -12q-27 -10 -35 -11q-39 4 -47 17q-10 25 -10 37q12 -4 57 28l35 39l25 29 q12 16 -33 59q-6 6 -63 33q-41 14 -41 45zM575 657h332l-153 441z" />
<glyph unicode="&#x391;&#x314;" horiz-adv-x="1466" d="M86 0l647 1393h37l602 -1393h-205l-192 506h-473l-213 -506h-203zM106 1247q-2 102 64 142q27 18 53 18q86 0 96 -82q0 -35 -38 -45q-49 -16 -64 -33q-47 -43 -33 -59q10 -14 26 -31l34 -37q23 -23 55 -28q0 -14 -10 -37q-10 -12 -47 -17q-8 0 -33 11l-33 12 q-23 10 -35 33q-23 41 -30 88q-2 10 -2 26q-1 16 -3 39zM575 657h332l-153 441z" />
<glyph unicode="&#x391;&#x313;&#x300;" horiz-adv-x="1667" d="M0 1325q8 82 100 82q59 0 97 -72q16 -35 16 -88v-26q0 -16 -2 -39q-4 -23 -12.5 -45.5t-18.5 -42.5q-12 -23 -35 -33l-32 -12q-27 -10 -35 -11q-39 4 -47 17q-8 25 -8 37q10 -4 55 28q23 23 37 39.5t22 28.5q14 16 -33 59q-4 6 -63 33q-41 14 -41 45zM285 0l649 1393h37 l602 -1393h-205l-192 506h-474l-213 -506h-204zM319 1337q6 74 101 74q53 -2 63 -43l101 -352l-49 -15l-207 302q-11 18 -9 34zM776 657h332l-154 441z" />
<glyph unicode="&#x391;&#x314;&#x300;" horiz-adv-x="1644" d="M0 1247q0 102 66 142q25 18 49 18q90 0 100 -82q0 -35 -41 -45q-45 -16 -65 -33q-43 -43 -32 -58t25 -32l33 -37q25 -23 60 -28q0 -14 -13 -37q-8 -12 -49 -17q-6 0 -31 11l-30 12q-27 10 -35 33q-27 47 -35 88v26q0 16 -2 39zM264 0l649 1393h37l600 -1393h-204 l-193 506h-471l-215 -506h-203zM324 1337q6 74 100 74q51 -2 63 -43l101 -352l-49 -15l-207 302q-10 18 -8 34zM756 657h331l-153 441z" />
<glyph unicode="&#x391;&#x313;&#x301;" horiz-adv-x="1529" d="M0 1327q10 80 98 80q59 0 95 -70q18 -39 18 -90q-2 -10 -2 -26q0 -14 -2 -37q-8 -47 -31 -90q-10 -23 -35 -33l-30 -12q-27 -10 -33 -11q-39 4 -47 17q-12 23 -13 37q12 -2 58 30q39 41 59 66q14 16 -33 59q-6 6 -61 33q-41 18 -41 47zM150 0l649 1393h37l600 -1393h-205 l-193 506h-471l-215 -506h-202zM240 1016l98 352q12 41 63 45q94 0 99 -74q0 -23 -6 -36l-203 -302zM641 657h332l-154 441z" />
<glyph unicode="&#x391;&#x314;&#x301;" horiz-adv-x="1597" d="M0 1247q0 102 66 142q25 18 51 18q88 0 98 -82q0 -35 -39 -45q-47 -16 -65 -33q-45 -43 -34 -58t26 -32l34 -37q25 -23 60 -28q0 -14 -13 -37q-8 -12 -49 -17q-8 0 -33 11l-30 12q-25 10 -35 33q-25 47 -33 88q-2 10 -2 26t-2 39zM215 0l649 1393h37l602 -1393h-205 l-192 506h-473l-213 -506h-205zM319 1016l101 352q10 41 63 43q94 0 99 -74q2 -20 -7 -34l-206 -302zM707 657h331l-153 441z" />
<glyph unicode="&#x391;&#x313;&#x342;" horiz-adv-x="1599" d="M0 1321q51 129 199 135q41 0 133 -53q96 -61 129 -64q47 0 92 30t61 75l39 -66q-18 -53 -78 -90q-61 -39 -114 -39q-39 0 -142 62q-16 6 -35.5 12t-43.5 16q-20 12 -43 13q-111 0 -156 -99zM182 1210q8 61 97 62q39 0 53 -15q12 -4 45 -34q16 -39 16 -109v-18 q0 -10 -2 -27q-4 -8 -13 -20.5t-18 -32.5q-10 -20 -34 -33l-33 -8q-27 -14 -35 -14q-37 6 -45 20q-12 18 -12 33q12 -2 55 30q20 8 49 35q6 6 4 33q-2 23 -12 35q-20 18 -74 31q-41 16 -41 32zM217 0l649 1393h37l602 -1393h-205l-192 506h-473l-213 -506h-205zM709 657h331 l-153 441z" />
<glyph unicode="&#x391;&#x314;&#x342;" horiz-adv-x="1576" d="M0 1321q49 129 199 135q39 0 131 -53q98 -61 129 -64q49 0 93 30t62 75l39 -66q-20 -53 -78 -90q-61 -39 -116 -39q-39 0 -142 62q-14 6 -33.5 12t-45.5 16q-20 12 -41 13q-111 0 -158 -99zM195 0l649 1393h37l602 -1393h-205l-193 506h-473l-213 -506h-204zM195 1114 q0 70 16 109q6 8 47 34q25 18 53 19q49 0 72 -29q12 -8 25 -37q0 -16 -43 -32q-51 -12 -72 -31q-10 -10 -12 -35q-4 -35 22 -45q14 -6 29 -23q20 -25 55 -30q0 -14 -12 -33q-6 -14 -45 -20q-8 0 -33 14l-33 8q-20 12 -35 33q-12 10 -30 53q-2 10 -2 23q0 12 -2 22zM686 657 h332l-154 441z" />
<glyph unicode="&#x3b5;&#x313;" horiz-adv-x="765" d="M100 213q-2 68 21 123q6 25 51 115q-2 23 -41 106q-31 70 -31 141q0 117 113 170q88 37 217 37h84q53 0 76 -10q43 -23 57 -35q20 -20 25 -59q2 -39 -31 -62q-10 -4 -25 -6q-14 6 -61 33q-43 23 -96 27q-90 0 -119 -9q-66 -16 -96 -88q-10 -35 -13 -65q-2 -45 15 -80 q18 -43 63 -43h281q39 0 43 -49q2 -35 -17 -47q-4 -2 -11 -4t-19 -7h-293q-27 0 -45 -47q-16 -41 -17 -69q0 -82 54 -123q12 -12 43 -27q20 -4 52 -5t81 -3q68 -2 100 14q20 14 34 25l23 18h17q43 0 47 -65q2 -39 -51 -76l-6 -2q-57 -35 -93 -41h-106q-127 0 -215 41 q-107 53 -111 172zM287 1325q6 82 96 82q63 0 98 -72q16 -35 17 -88v-26q0 -16 -2 -39q-4 -23 -12.5 -45.5t-18.5 -42.5q-10 -23 -35 -33l-33 -12q-27 -10 -35 -11q-39 4 -45 17q-10 25 -10 37q10 -4 55 28l36 39q15 16 24 29q14 16 -33 59q-6 6 -63 33q-39 14 -39 45z" />
<glyph unicode="&#x3b5;&#x314;" horiz-adv-x="765" d="M100 213q-2 68 21 123q6 25 51 115q-2 23 -41 106q-31 70 -31 141q0 117 113 170q88 37 217 37h84q53 0 76 -10q43 -23 57 -35q20 -20 25 -59q2 -39 -31 -62q-10 -4 -25 -6q-14 6 -61 33q-43 23 -96 27q-90 0 -119 -9q-66 -16 -96 -88q-10 -35 -13 -65q-2 -45 15 -80 q18 -43 63 -43h281q39 0 43 -49q2 -35 -17 -47q-4 -2 -11 -4t-19 -7h-293q-27 0 -45 -47q-16 -41 -17 -69q0 -82 54 -123q12 -12 43 -27q20 -4 52 -5t81 -3q68 -2 100 14q20 14 34 25l23 18h17q43 0 47 -65q2 -39 -51 -76l-6 -2q-57 -35 -93 -41h-106q-127 0 -215 41 q-107 53 -111 172zM299 1247q-2 102 63 142q27 18 54 18q86 0 96 -82q0 -35 -39 -45q-49 -16 -63 -33q-47 -43 -33 -59q10 -14 25 -31l34 -37q23 -23 56 -28q0 -14 -11 -37q-10 -12 -47 -17q-8 0 -33 11l-32 12q-23 10 -35 33q-23 41 -31 88q-2 10 -2 26t-2 39z" />
<glyph unicode="&#x3b5;&#x313;&#x300;" horiz-adv-x="765" d="M92 1325q6 82 98 82q61 0 97 -72q18 -35 18 -88v-26q0 -16 -2 -39q-4 -23 -13 -45.5t-20 -42.5q-10 -23 -34 -33l-33 -12q-27 -10 -35 -11q-37 4 -45 17q-10 25 -10 37q12 -4 55 28q23 23 37 39.5t22 28.5q14 16 -32 59q-4 6 -62 33q-41 14 -41 45zM100 213q-2 68 21 123 q6 25 51 115q-2 23 -41 106q-31 70 -31 141q0 117 113 170q88 37 217 37h84q53 0 76 -10q43 -23 57 -35q20 -20 25 -59q2 -39 -31 -62q-10 -4 -25 -6q-14 6 -61 33q-43 23 -96 27q-90 0 -119 -9q-66 -16 -96 -88q-10 -35 -13 -65q-2 -45 15 -80q18 -43 63 -43h281 q39 0 43 -49q2 -35 -17 -47q-4 -2 -11 -4t-19 -7h-293q-27 0 -45 -47q-16 -41 -17 -69q0 -82 54 -123q12 -12 43 -27q20 -4 52 -5t81 -3q68 -2 100 14q20 14 34 25l23 18h17q43 0 47 -65q2 -39 -51 -76l-6 -2q-57 -35 -93 -41h-106q-127 0 -215 41q-107 53 -111 172z M410 1337q6 74 100 74q53 -2 63 -43l101 -352l-49 -15l-207 302q-10 18 -8 34z" />
<glyph unicode="&#x3b5;&#x314;&#x300;" horiz-adv-x="765" d="M100 213q-2 68 21 123q6 25 51 115q-2 23 -41 106q-31 70 -31 141q0 117 113 170q88 37 217 37h84q53 0 76 -10q43 -23 57 -35q20 -20 25 -59q2 -39 -31 -62q-10 -4 -25 -6q-14 6 -61 33q-43 23 -96 27q-90 0 -119 -9q-66 -16 -96 -88q-10 -35 -13 -65q-2 -45 15 -80 q18 -43 63 -43h281q39 0 43 -49q2 -35 -17 -47q-4 -2 -11 -4t-19 -7h-293q-27 0 -45 -47q-16 -41 -17 -69q0 -82 54 -123q12 -12 43 -27q20 -4 52 -5t81 -3q68 -2 100 14q20 14 34 25l23 18h17q43 0 47 -65q2 -39 -51 -76l-6 -2q-57 -35 -93 -41h-106q-127 0 -215 41 q-107 53 -111 172zM106 1247q0 102 66 142q27 18 51 18q88 0 99 -82q0 -35 -39 -45q-45 -16 -66 -33q-45 -43 -33 -58l27 -32l33 -37q23 -23 57 -28q0 -14 -10 -37q-8 -12 -49 -17q-6 0 -31 11l-33 12q-25 10 -35 33q-25 47 -32 88q-2 10 -2 26q-1 16 -3 39zM432 1337 q6 74 100 74q51 -2 64 -43l100 -352l-51 -15l-207 302q-8 18 -6 34z" />
<glyph unicode="&#x3b5;&#x313;&#x301;" horiz-adv-x="765" d="M100 213q-2 68 21 123q6 25 51 115q-2 23 -41 106q-31 70 -31 141q0 117 113 170q88 37 217 37h84q53 0 76 -10q43 -23 57 -35q20 -20 25 -59q2 -39 -31 -62q-10 -4 -25 -6q-14 6 -61 33q-43 23 -96 27q-90 0 -119 -9q-66 -16 -96 -88q-10 -35 -13 -65q-2 -45 15 -80 q18 -43 63 -43h281q39 0 43 -49q2 -35 -17 -47q-4 -2 -11 -4t-19 -7h-293q-27 0 -45 -47q-16 -41 -17 -69q0 -82 54 -123q12 -12 43 -27q20 -4 52 -5t81 -3q68 -2 100 14q20 14 34 25l23 18h17q43 0 47 -65q2 -39 -51 -76l-6 -2q-57 -35 -93 -41h-106q-127 0 -215 41 q-107 53 -111 172zM156 1325q8 82 98 82q61 0 96 -72q18 -35 19 -88v-26q0 -16 -2 -39q-4 -23 -12.5 -45.5t-18.5 -42.5q-12 -23 -35 -33l-33 -12q-27 -10 -35 -11q-39 4 -47 17q-10 25 -10 37q12 -4 57 28l35 39l25 29q12 16 -33 59q-6 6 -63 33q-41 14 -41 45zM455 1016 l104 352q10 41 59 43q96 0 103 -74q2 -20 -6 -34l-207 -302z" />
<glyph unicode="&#x3b5;&#x314;&#x301;" horiz-adv-x="765" d="M100 213q-2 68 21 123q6 25 51 115q-2 23 -41 106q-31 70 -31 141q0 117 113 170q88 37 217 37h84q53 0 76 -10q43 -23 57 -35q20 -20 25 -59q2 -39 -31 -62q-10 -4 -25 -6q-14 6 -61 33q-43 23 -96 27q-90 0 -119 -9q-66 -16 -96 -88q-10 -35 -13 -65q-2 -45 15 -80 q18 -43 63 -43h281q39 0 43 -49q2 -35 -17 -47q-4 -2 -11 -4t-19 -7h-293q-27 0 -45 -47q-16 -41 -17 -69q0 -82 54 -123q12 -12 43 -27q20 -4 52 -5t81 -3q68 -2 100 14q20 14 34 25l23 18h17q43 0 47 -65q2 -39 -51 -76l-6 -2q-57 -35 -93 -41h-106q-127 0 -215 41 q-107 53 -111 172zM186 1247q0 102 66 142q25 18 49 18q90 0 100 -82q0 -35 -39 -45q-47 -16 -65 -33q-45 -43 -34 -58t25.5 -31.5t35.5 -37.5q23 -23 59 -28q0 -14 -12 -37q-8 -12 -49 -17q-8 0 -33 11l-31 12q-25 10 -35 33q-25 47 -33 88q-2 10 -2 26t-2 39zM506 1016 l100 352q10 41 64 43q94 0 98 -74q2 -20 -6 -34l-207 -302z" />
<glyph unicode="&#x395;&#x313;" horiz-adv-x="1439" d="M0 1325q6 82 98 82q61 0 97 -72q18 -35 18 -88v-26q0 -16 -2 -39q-4 -23 -13.5 -45.5t-19.5 -42.5q-10 -23 -33 -33l-32 -12q-27 -10 -35 -11q-39 4 -47 17q-10 25 -11 37q12 -4 58 28l35 39l24 29q12 16 -33 59q-6 6 -63 33q-41 14 -41 45zM377 0q12 141 16 432 q4 152 -6 457q-2 154 -4 268.5t-2 190.5q0 53 57 57q27 0 74 -6q51 -6 74 -6h708q33 0 33 -62q0 -61 -57 -98q-18 -14 -74 14q-61 31 -80 29h-528v-473h547q31 0 32 -90q2 -39 -14 -62q-6 -12 -25 -14h-542v-510h563l141 49q27 -2 45 -37q12 -25 13 -59q0 -80 -54 -80h-917z " />
<glyph unicode="&#x395;&#x314;" horiz-adv-x="1386" d="M2 1247q-2 102 64 142q25 18 51 18q88 0 96 -82q0 -35 -37 -45q-49 -16 -65 -33q-45 -43 -33 -59q10 -14 25 -31l34 -37q25 -23 58 -28q0 -14 -13 -37q-8 -12 -47 -17q-6 0 -33 11l-32 12q-23 10 -33 33q-23 41 -31 88q-2 10 -2 26t-2 39zM324 0q14 141 18 432 q4 152 -6 457q-4 154 -6 268.5t-2 190.5q0 53 57 57q27 0 74 -6q53 -6 73 -6h709q33 0 33 -62q0 -61 -57 -98q-16 -14 -74 14q-61 31 -78 29h-530v-473h546q31 0 33 -90q2 -39 -14 -62q-6 -12 -25 -14h-543v-510h564l141 49q27 -2 45 -37q12 -25 12 -59q0 -80 -53 -80h-917z " />
<glyph unicode="&#x395;&#x313;&#x300;" horiz-adv-x="1773" d="M0 1325q8 82 100 82q61 0 97 -72q16 -35 16 -88v-26q0 -16 -2 -39t-11.5 -45.5t-19.5 -42.5q-12 -23 -35 -33l-32 -12q-27 -10 -35 -11q-39 4 -45 17q-10 25 -10 37q12 -4 55 28q23 23 37 39.5t22 28.5q14 16 -33 59q-4 6 -63 33q-41 14 -41 45zM319 1337q6 74 101 74 q53 -2 63 -43l101 -352l-49 -15l-207 302q-11 18 -9 34zM711 0q12 141 16 432q4 152 -6 457q-4 154 -6 268.5t-2 190.5q0 53 57 57q29 0 76 -6q51 -6 72 -6h708q35 0 35 -62q0 -61 -59 -98q-16 -14 -72 14q-63 31 -80 29h-530v-473h546q31 0 33 -90q2 -39 -12 -62 q-6 -12 -27 -14h-542v-510h565l139 49q27 -2 45 -37q14 -25 14 -59q0 -80 -55 -80h-915z" />
<glyph unicode="&#x395;&#x314;&#x300;" horiz-adv-x="1769" d="M0 1247q0 102 66 142q25 18 49 18q90 0 100 -82q0 -35 -39 -45q-47 -16 -67 -33q-43 -43 -32 -58t25.5 -31.5l34.5 -37.5q23 -23 58 -28q0 -14 -11 -37q-8 -12 -49 -17q-8 0 -33 11l-30 12q-27 10 -35 33q-25 47 -33 88q-2 10 -2 26t-2 39zM324 1337q6 74 100 74 q53 -2 63 -43l101 -352l-49 -15l-207 302q-10 18 -8 34zM707 0q12 141 16 432q4 152 -6 457q-4 154 -6 268.5t-2 190.5q0 53 59 57q27 0 74 -6q51 -6 71 -6h711q33 0 33 -62q0 -61 -60 -98q-16 -14 -71 14q-61 31 -80 29h-531v-473h549q31 0 33 -90q2 -39 -14 -62 q-6 -12 -25 -14h-545v-510h566l141 49q25 -2 45 -37q12 -25 12 -59q0 -80 -53 -80h-917z" />
<glyph unicode="&#x395;&#x313;&#x301;" horiz-adv-x="1767" d="M0 1325q8 82 98 82q63 0 99 -72q16 -35 16 -88v-26q0 -16 -2 -39q-4 -23 -12.5 -45.5t-18.5 -42.5q-10 -23 -35 -33l-32 -12q-27 -10 -35 -11q-39 4 -45 17q-10 25 -10 37q12 -4 55 28l35 39l24 29q14 16 -33 59q-6 6 -63 33q-41 14 -41 45zM299 1016l104 352 q10 41 62 43q94 0 100 -74q2 -20 -6 -34l-207 -302zM705 0q12 141 16 432q4 152 -6 457q-4 154 -6 268.5t-2 190.5q0 53 59 57q27 0 74 -6q51 -6 71 -6h709q35 0 35 -62q0 -61 -60 -98q-16 -14 -71 14q-63 31 -80 29h-531v-473h547q31 0 33 -90q2 -39 -12 -62 q-6 -12 -27 -14h-543v-510h566l141 49q25 -2 45 -37q12 -25 12 -59q0 -80 -55 -80h-915z" />
<glyph unicode="&#x395;&#x314;&#x301;" horiz-adv-x="1812" d="M0 1247q0 102 66 142q25 18 49 18q90 0 100 -82q0 -35 -39 -45q-47 -16 -65 -33q-45 -43 -34 -58t25.5 -31.5l34.5 -37.5q23 -23 58 -28q0 -14 -11 -37q-8 -12 -49 -17q-8 0 -33 11l-30 12q-25 10 -35 33q-25 47 -33 88q-2 10 -2 26t-2 39zM317 1016l103 352q10 41 61 43 q96 0 101 -74q2 -20 -7 -34l-206 -302zM750 0q12 141 16 432q4 152 -6 457q-4 154 -6 268.5t-2 190.5q0 53 59 57q27 0 74 -6q51 -6 71 -6h711q33 0 33 -62q0 -61 -60 -98q-16 -14 -71 14q-63 31 -80 29h-531v-473h547q33 0 35 -90q2 -39 -14 -62q-6 -12 -25 -14h-545v-510 h566l141 49q25 -2 45 -37q12 -25 12 -59q0 -80 -53 -80h-917z" />
<glyph unicode="&#x3b7;&#x313;" horiz-adv-x="1087" d="M31 811q49 86 104 92q20 0 76 -31q51 -31 90 -26q27 2 59 10l78 21q90 27 148 26q125 0 219 -35q125 -53 133 -157q2 -20 4 -62.5t6 -101.5q4 -119 6 -265.5t2 -322.5v-264q0 -18 -20 -29q-12 -8 -66 -14q-80 0 -77 43l14 522q2 68 3 147.5t1 174.5v157q0 49 -90 80 q-70 27 -129 27q-51 2 -146 -35q-109 -39 -104 -80q2 -16 4 -43t4 -70q4 -78 5 -176t3 -219l2 -172q0 -8 -22 -20q-10 -2 -72 -4q-31 -2 -59 4q-23 8 -23 24l17 738q4 27 -33 43q-14 8 -28.5 11t-30.5 5q-18 0 -72 -33q0 8 -6 35zM371 1325q6 82 96 82q63 0 98 -72 q16 -35 17 -88v-26q0 -16 -2 -39q-4 -23 -12.5 -45.5t-18.5 -42.5q-10 -23 -35 -33l-33 -12q-27 -10 -35 -11q-39 4 -45 17q-10 25 -10 37q10 -4 55 28l36 39q15 16 24 29q14 16 -33 59q-6 6 -63 33q-39 14 -39 45z" />
<glyph unicode="&#x3b7;&#x314;" horiz-adv-x="1087" d="M31 811q49 86 104 92q20 0 76 -31q51 -31 90 -26q27 2 59 10l78 21q90 27 148 26q125 0 219 -35q125 -53 133 -157q2 -20 4 -62.5t6 -101.5q4 -119 6 -265.5t2 -322.5v-264q0 -18 -20 -29q-12 -8 -66 -14q-80 0 -77 43l14 522q2 68 3 147.5t1 174.5v157q0 49 -90 80 q-70 27 -129 27q-51 2 -146 -35q-109 -39 -104 -80q2 -16 4 -43t4 -70q4 -78 5 -176t3 -219l2 -172q0 -8 -22 -20q-10 -2 -72 -4q-31 -2 -59 4q-23 8 -23 24l17 738q4 27 -33 43q-14 8 -28.5 11t-30.5 5q-18 0 -72 -33q0 8 -6 35zM508 1245q-2 102 63 141q27 18 54 19 q86 0 96 -82q0 -35 -39 -45q-49 -16 -64 -33q-47 -43 -32 -59q10 -14 25 -31l34 -37q23 -23 55 -28q0 -14 -10 -37q-10 -12 -47 -17q-8 0 -33 11l-32 12q-23 10 -35 33q-23 41 -31 88q-2 10 -2 26t-2 39z" />
<glyph unicode="&#x3b7;&#x313;&#x300;" horiz-adv-x="1087" d="M31 811q49 86 104 92q20 0 76 -31q51 -31 90 -26q27 2 59 10l78 21q90 27 148 26q125 0 219 -35q125 -53 133 -157q2 -20 4 -62.5t6 -101.5q4 -119 6 -265.5t2 -322.5v-264q0 -18 -20 -29q-12 -8 -66 -14q-80 0 -77 43l14 522q2 68 3 147.5t1 174.5v157q0 49 -90 80 q-70 27 -129 27q-51 2 -146 -35q-109 -39 -104 -80q2 -16 4 -43t4 -70q4 -78 5 -176t3 -219l2 -172q0 -8 -22 -20q-10 -2 -72 -4q-31 -2 -59 4q-23 8 -23 24l17 738q4 27 -33 43q-14 8 -28.5 11t-30.5 5q-18 0 -72 -33q0 8 -6 35zM238 1325q6 82 98 82q61 0 96 -72 q18 -35 19 -88v-26q0 -16 -2 -39q-4 -23 -13.5 -45.5t-19.5 -42.5q-10 -23 -35 -33l-33 -12q-27 -10 -35 -11q-37 4 -45 17q-10 25 -10 37q12 -4 55 28q23 23 37.5 39.5t22.5 28.5q14 16 -33 59q-4 6 -61 33q-41 14 -41 45zM555 1337q6 74 100 74q53 -2 64 -43l100 -352 l-49 -15l-207 302q-10 18 -8 34z" />
<glyph unicode="&#x3b7;&#x314;&#x300;" horiz-adv-x="1087" d="M31 811q49 86 104 92q20 0 76 -31q51 -31 90 -26q27 2 59 10l78 21q90 27 148 26q125 0 219 -35q125 -53 133 -157q2 -20 4 -62.5t6 -101.5q4 -119 6 -265.5t2 -322.5v-264q0 -18 -20 -29q-12 -8 -66 -14q-80 0 -77 43l14 522q2 68 3 147.5t1 174.5v157q0 49 -90 80 q-70 27 -129 27q-51 2 -146 -35q-109 -39 -104 -80q2 -16 4 -43t4 -70q4 -78 5 -176t3 -219l2 -172q0 -8 -22 -20q-10 -2 -72 -4q-31 -2 -59 4q-23 8 -23 24l17 738q4 27 -33 43q-14 8 -28.5 11t-30.5 5q-18 0 -72 -33q0 8 -6 35zM229 1247q0 102 66 142q27 18 51 18 q88 0 98 -82q0 -35 -38 -45q-45 -16 -66 -33q-45 -43 -33 -58l27 -32l33 -37q23 -23 57 -28q0 -14 -10 -37q-8 -12 -49 -17q-6 0 -31 11l-33 12q-25 10 -35 33q-25 47 -33 88q-2 10 -2 26t-2 39zM555 1337q6 74 100 74q51 -2 64 -43l100 -352l-51 -15l-207 302q-8 18 -6 34z " />
<glyph unicode="&#x3b7;&#x313;&#x301;" horiz-adv-x="1087" d="M31 811q49 86 104 92q20 0 76 -31q51 -31 90 -26q27 2 59 10l78 21q90 27 148 26q125 0 219 -35q125 -53 133 -157q2 -20 4 -62.5t6 -101.5q4 -119 6 -265.5t2 -322.5v-264q0 -18 -20 -29q-12 -8 -66 -14q-80 0 -77 43l14 522q2 68 3 147.5t1 174.5v157q0 49 -90 80 q-70 27 -129 27q-51 2 -146 -35q-109 -39 -104 -80q2 -16 4 -43t4 -70q4 -78 5 -176t3 -219l2 -172q0 -8 -22 -20q-10 -2 -72 -4q-31 -2 -59 4q-23 8 -23 24l17 738q4 27 -33 43q-14 8 -28.5 11t-30.5 5q-18 0 -72 -33q0 8 -6 35zM311 1325q8 82 99 82q61 0 96 -72 q18 -35 18 -88v-26q0 -16 -2 -39q-4 -23 -12 -45.5t-18 -42.5q-12 -23 -35 -33l-33 -12q-27 -10 -35 -11q-39 4 -47 17q-10 25 -10 37q12 -4 57 28l35 39l25 29q12 16 -33 59q-6 6 -64 33q-41 14 -41 45zM610 1016l105 352q10 41 59 43q96 0 103 -74q2 -20 -7 -34l-206 -302 z" />
<glyph unicode="&#x3b7;&#x314;&#x301;" horiz-adv-x="1087" d="M31 811q49 86 104 92q20 0 76 -31q51 -31 90 -26q27 2 59 10l78 21q90 27 148 26q125 0 219 -35q125 -53 133 -157q2 -20 4 -62.5t6 -101.5q4 -119 6 -265.5t2 -322.5v-264q0 -18 -20 -29q-12 -8 -66 -14q-80 0 -77 43l14 522q2 68 3 147.5t1 174.5v157q0 49 -90 80 q-70 27 -129 27q-51 2 -146 -35q-109 -39 -104 -80q2 -16 4 -43t4 -70q4 -78 5 -176t3 -219l2 -172q0 -8 -22 -20q-10 -2 -72 -4q-31 -2 -59 4q-23 8 -23 24l17 738q4 27 -33 43q-14 8 -28.5 11t-30.5 5q-18 0 -72 -33q0 8 -6 35zM295 1247q0 102 65 142q25 18 50 18 q90 0 100 -82q0 -35 -39 -45q-47 -16 -65 -33q-45 -43 -34 -58t25.5 -31.5l34.5 -37.5q23 -23 60 -28q0 -14 -13 -37q-8 -12 -49 -17q-8 0 -33 11l-30 12q-25 10 -35 33q-25 47 -33 88q-2 10 -2 26t-2 39zM614 1016l101 352q10 41 63 43q94 0 99 -74q2 -20 -7 -34l-206 -302 z" />
<glyph unicode="&#x3b7;&#x313;&#x342;" horiz-adv-x="1087" d="M31 811q49 86 104 92q20 0 76 -31q51 -31 90 -26q27 2 59 10l78 21q90 27 148 26q125 0 219 -35q125 -53 133 -157q2 -20 4 -62.5t6 -101.5q4 -119 6 -265.5t2 -322.5v-264q0 -18 -20 -29q-12 -8 -66 -14q-80 0 -77 43l14 522q2 68 3 147.5t1 174.5v157q0 49 -90 80 q-70 27 -129 27q-51 2 -146 -35q-109 -39 -104 -80q2 -16 4 -43t4 -70q4 -78 5 -176t3 -219l2 -172q0 -8 -22 -20q-10 -2 -72 -4q-31 -2 -59 4q-23 8 -23 24l17 738q4 27 -33 43q-14 8 -28.5 11t-30.5 5q-18 0 -72 -33q0 8 -6 35zM231 1325q51 129 199 135q41 0 131 -53 q98 -61 129 -64q49 0 93 30t63 75l37 -66q-18 -53 -76 -90q-61 -39 -117 -39q-39 0 -141 62q-14 6 -33.5 12t-44.5 16q-20 12 -43 13q-111 0 -156 -99zM412 1214q8 61 98 62q37 0 51 -14q14 -4 47 -35q16 -39 17 -109v-18q0 -10 -2 -27q-4 -8 -13.5 -20.5t-19.5 -32.5 q-8 -20 -35 -33l-33 -8q-25 -14 -33 -14q-37 6 -45 20q-12 18 -12 33q12 -2 55 31q20 8 50 34q4 6 2 33q0 23 -13 35q-18 18 -71 31q-43 16 -43 32z" />
<glyph unicode="&#x3b7;&#x314;&#x342;" horiz-adv-x="1087" d="M31 811q49 86 104 92q20 0 76 -31q51 -31 90 -26q27 2 59 10l78 21q90 27 148 26q125 0 219 -35q125 -53 133 -157q2 -20 4 -62.5t6 -101.5q4 -119 6 -265.5t2 -322.5v-264q0 -18 -20 -29q-12 -8 -66 -14q-80 0 -77 43l14 522q2 68 3 147.5t1 174.5v157q0 49 -90 80 q-70 27 -129 27q-51 2 -146 -35q-109 -39 -104 -80q2 -16 4 -43t4 -70q4 -78 5 -176t3 -219l2 -172q0 -8 -22 -20q-10 -2 -72 -4q-31 -2 -59 4q-23 8 -23 24l17 738q4 27 -33 43q-14 8 -28.5 11t-30.5 5q-18 0 -72 -33q0 8 -6 35zM231 1325q49 129 199 135q39 0 131 -53 q98 -61 129 -64q49 0 93 30t63 75l39 -66q-20 -53 -80 -90q-59 -39 -115 -39q-39 0 -141 62q-14 6 -33.5 12t-46.5 16q-20 12 -41 13q-111 0 -158 -99zM426 1118q0 70 16 109q6 8 47 35q25 18 54 18q49 0 71 -29q12 -8 25 -37q0 -16 -43 -32q-51 -12 -72 -31 q-10 -10 -12 -35q-6 -35 23 -45q14 -6 28 -22q20 -25 55 -31q0 -14 -12 -33q-6 -14 -45 -20q-8 0 -33 14l-32 8q-20 12 -35 33q-12 10 -31 53q-2 10 -2 23q0 12 -2 22z" />
<glyph unicode="&#x397;&#x313;" horiz-adv-x="1757" d="M0 1274q6 82 98 82q61 0 97 -74q16 -35 16 -86v-27q0 -16 -2 -39q-4 -23 -12.5 -45t-18.5 -43q-10 -23 -35 -32l-32 -13q-27 -12 -35 -12q-39 6 -45 19q-10 25 -11 36q10 -4 56 29q23 20 37 36.5t24 31.5q12 16 -35 59q-4 6 -63 33q-39 12 -39 45zM440 0v1397h189v-613 h817v613h188v-1397h-188v639h-817v-639h-189z" />
<glyph unicode="&#x397;&#x314;" horiz-adv-x="1675" d="M2 1247q-2 102 64 142q27 18 53 18q86 0 96 -82q0 -35 -39 -45q-49 -16 -63 -33q-47 -43 -33 -59q10 -14 25 -31l34 -37q23 -23 56 -28q0 -14 -11 -37q-10 -12 -47 -17q-8 0 -33 11l-32 12q-23 10 -35 33q-20 41 -31 88q-2 10 -2 26t-2 39zM356 0v1397h189v-613h817v613 h190v-1397h-190v639h-817v-639h-189z" />
<glyph unicode="&#x397;&#x313;&#x300;" horiz-adv-x="2035" d="M0 1325q8 82 98 82q61 0 97 -72q18 -35 18 -88v-26q0 -16 -2 -39q-4 -23 -13 -45l-18 -43q-12 -23 -35 -33l-32 -12q-29 -10 -35 -11q-39 4 -47 17q-10 25 -11 37q12 -4 58 28l35 39l24 29q14 16 -33 59q-6 6 -63 33q-41 14 -41 45zM319 1337q6 74 101 74q53 -2 63 -43 l101 -352l-52 -15l-204 302q-11 18 -9 34zM717 -2v1397h188v-613h819v613h189v-1397h-189v639h-819v-639h-188z" />
<glyph unicode="&#x397;&#x314;&#x300;" horiz-adv-x="2064" d="M0 1247q0 102 66 142q27 18 51 18q88 0 98 -82q0 -35 -39 -45q-45 -16 -65 -33q-45 -43 -33 -58l26 -32l33 -37q23 -23 58 -28q0 -14 -11 -37q-8 -12 -49 -17q-6 0 -31 11l-32 12q-25 10 -35 33q-25 47 -33 88q-2 10 -2 26t-2 39zM326 1337q6 74 100 74q51 -2 63 -43 l101 -352l-51 -15l-207 302q-8 18 -6 34zM745 4v1399h191v-615h817v615h189v-1399h-189v639h-817v-639h-191z" />
<glyph unicode="&#x397;&#x313;&#x301;" horiz-adv-x="2056" d="M0 1325q6 82 98 82q61 0 97 -72q16 -35 16 -88v-26q0 -16 -2 -39q-4 -23 -12.5 -45.5t-18.5 -42.5q-10 -23 -33 -33l-34 -12q-27 -10 -35 -11q-39 4 -45 17q-10 25 -11 37q12 -4 56 28q23 23 37 39l24 29q12 16 -33 59q-6 6 -65 33q-39 14 -39 45zM299 1016l102 352 q10 41 62 43q94 0 100 -74q2 -20 -6 -34l-207 -302zM737 0v1397h189v-613h819v613h188v-1397h-188v639h-819v-639h-189z" />
<glyph unicode="&#x397;&#x314;&#x301;" horiz-adv-x="2060" d="M0 1247q0 102 66 142q27 18 51 18q88 0 98 -82q0 -35 -39 -45q-45 -16 -65 -33q-45 -43 -33 -58l26 -32l33 -37q25 -23 60 -28q0 -14 -13 -37q-8 -12 -47 -17q-8 0 -35 11l-30 12q-25 10 -35 33q-25 47 -33 88q-2 10 -2 26t-2 39zM319 1016l101 352q12 41 63 43 q94 0 99 -74q2 -20 -7 -34l-206 -302zM741 0v1397h191v-613h817v613h188v-1397h-188v639h-817v-639h-191z" />
<glyph unicode="&#x397;&#x313;&#x342;" horiz-adv-x="2056" d="M0 1321q51 129 201 135q41 0 131 -53q98 -61 129 -64q49 0 93 30t62 75l37 -66q-18 -53 -75 -90q-63 -39 -117 -39q-39 0 -142 62q-14 6 -33.5 12t-43.5 16q-23 12 -43 13q-111 0 -158 -99zM182 1210q8 61 99 62q37 0 51 -15q12 -4 47 -34q16 -39 16 -109q-2 -6 -2 -18 q0 -10 -2 -27q-4 -8 -12 -20.5t-19 -32.5q-10 -20 -34 -33l-33 -8q-25 -14 -33 -14q-39 6 -47 20q-10 18 -10 33q10 -2 55 30q20 8 49 35q4 6 2 33q0 23 -12 35q-18 18 -72 31q-43 16 -43 32zM737 0v1397h191v-613h817v613h188v-1397h-188v639h-817v-639h-191z" />
<glyph unicode="&#x397;&#x314;&#x342;" horiz-adv-x="2062" d="M0 1321q49 129 199 135q39 0 131 -53q98 -61 129 -64q49 0 93 30t62 75l39 -66q-20 -53 -80 -90q-59 -39 -114 -39q-39 0 -142 62q-14 6 -33.5 12t-45.5 16q-20 12 -41 13q-111 0 -158 -99zM195 1114q0 70 16 109q6 8 47 34q25 18 53 19q49 0 72 -29q12 -8 25 -37 q0 -16 -43 -32q-51 -12 -72 -31q-10 -10 -12 -35q-6 -35 22 -45q14 -6 29 -23q20 -25 55 -30q0 -14 -12 -33q-6 -14 -45 -20q-8 0 -33 14l-33 8q-20 12 -35 33q-12 10 -30 53q-2 10 -2 23q0 12 -2 22zM743 0v1397h189v-613h817v613h190v-1397h-190v639h-817v-639h-189z" />
<glyph unicode="&#x3b9;&#x313;" horiz-adv-x="503" d="M109 1325q6 82 96 82q63 0 98 -72q16 -35 16 -88v-26q0 -16 -2 -39q-4 -23 -12 -45.5t-18 -42.5q-10 -23 -35 -33l-33 -12q-27 -10 -35 -11q-39 4 -45 17q-10 25 -10 37q10 -4 55 28l36 39q15 16 24 29q14 16 -33 59q-6 6 -64 33q-38 14 -38 45zM123 852q0 20 31 33 q4 0 47 10q29 6 43 6q23 0 39 -16l11 -19q5 -8 9 -18q6 -8 10 -103q2 -27 2 -63v-84v-330q0 -59 4 -80q12 -41 60 -71l25 -21q13 -10 28 -24q0 -45 -67 -72q-49 -14 -101 -14q-74 -4 -92 149q-4 37 -6 91.5t-2 125.5v103q0 -6 0 18q0 27 2 84q0 57 -2 100t-6 76 q-8 20 -17 50z" />
<glyph unicode="&#x3b9;&#x314;" horiz-adv-x="507" d="M111 1247q-2 102 63 142q27 18 53 18q86 0 97 -82q0 -35 -39 -45q-49 -16 -64 -33q-47 -43 -33 -59q10 -14 26 -31l34 -37q23 -23 55 -28q0 -14 -10 -37q-10 -12 -47 -17q-8 0 -33 11l-33 12q-23 10 -35 33q-23 41 -30 88q-2 10 -2 26t-2 39zM127 852q0 20 31 33 q4 0 47 10q29 6 43 6q23 0 39 -16l11 -19q5 -8 9 -18q6 -8 10 -103q2 -27 2 -63v-84v-330q0 -59 5 -80q12 -41 59 -71l26 -21q13 -10 27 -24q0 -45 -67 -72q-49 -14 -101 -14q-74 -4 -92 149q-4 37 -6 91.5t-2 125.5v103q0 -6 0 18q0 27 2 84q0 57 -2 100t-6 76 q-8 20 -17 50z" />
<glyph unicode="&#x3b9;&#x313;&#x300;" horiz-adv-x="532" d="M-25 1325q6 82 99 82q61 0 96 -72q18 -35 18 -88v-26q0 -16 -2 -39q-4 -23 -13 -45.5t-19 -42.5q-10 -23 -35 -33l-33 -12q-27 -10 -35 -11q-37 4 -45 17q-10 25 -10 37q12 -4 55 28q23 23 37 39.5t23 28.5q14 16 -33 59q-4 6 -62 33q-41 14 -41 45zM131 852q0 20 31 33 q4 0 47 10q29 6 43 6q23 0 39 -16l11 -19q5 -8 9 -18q6 -8 11 -103q2 -27 2 -63v-84v-330q0 -59 4 -80q12 -41 59 -71l26 -21q13 -10 27 -24q0 -45 -67 -72q-49 -14 -101 -14q-74 -4 -92 149q-4 37 -6 91.5t-2 125.5v103q0 -6 0 18q0 27 2 84q0 57 -2 100t-6 76 q-8 20 -16 50zM293 1337q6 74 100 74q53 -2 64 -43l100 -352l-49 -15l-207 302q-10 18 -8 34z" />
<glyph unicode="&#x3b9;&#x314;&#x300;" horiz-adv-x="546" d="M-18 1247q0 102 65 142q27 18 51 18q88 0 99 -82q0 -35 -39 -45q-45 -16 -66 -33q-45 -43 -33 -58l27 -32l33 -37q23 -23 57 -28q0 -14 -10 -37q-8 -12 -49 -17q-6 0 -31 11l-33 12q-25 10 -35 33q-25 47 -32 88q-2 10 -2 26t-2 39zM131 852q0 20 31 33q4 0 47 10 q29 6 43 6q23 0 39 -16l11 -19q5 -8 9 -18q6 -8 11 -103q2 -27 2 -63v-84v-330q0 -59 4 -80q12 -41 59 -71l26 -21q13 -10 27 -24q0 -45 -67 -72q-49 -14 -101 -14q-74 -4 -92 149q-4 37 -6 91.5t-2 125.5v103q0 -6 0 18q0 27 2 84q0 57 -2 100t-6 76q-8 20 -16 50z M307 1337q6 74 101 74q51 -2 63 -43l100 -352l-51 -15l-207 302q-8 18 -6 34z" />
<glyph unicode="&#x3b9;&#x313;&#x301;" horiz-adv-x="555" d="M-6 1325q8 82 98 82q61 0 96 -72q18 -35 19 -88v-26q0 -16 -2 -39q-4 -23 -12.5 -45.5t-18.5 -42.5q-12 -23 -35 -33l-33 -12q-27 -10 -34 -11q-39 4 -47 17q-10 25 -11 37q12 -4 58 28l34 39l25 29q12 16 -33 59q-6 6 -63 33q-41 14 -41 45zM131 852q0 20 31 33 q4 0 47 10q29 6 43 6q23 0 39 -16l11 -19q5 -8 9 -18q6 -8 11 -103q2 -27 2 -63v-84v-330q0 -59 4 -80q12 -41 59 -71l26 -21q13 -10 27 -24q0 -45 -67 -72q-49 -14 -101 -14q-74 -4 -92 149q-4 37 -6 91.5t-2 125.5v103q0 -6 0 18q0 27 2 84q0 57 -2 100t-6 76 q-8 20 -16 50zM293 1016l104 352q10 41 60 43q96 0 102 -74q2 -20 -6 -34l-207 -302z" />
<glyph unicode="&#x3b9;&#x314;&#x301;" horiz-adv-x="579" d="M27 1247q0 102 65 142q25 18 49 18q90 0 101 -82q0 -35 -39 -45q-47 -16 -66 -33q-45 -43 -33.5 -58t25.5 -31.5t35 -37.5q23 -23 59 -28q0 -14 -12 -37q-8 -12 -49 -17q-8 0 -33 11l-31 12q-25 10 -35 33q-25 47 -32 88q-2 10 -2 26t-2 39zM131 852q0 20 31 33 q4 0 47 10q29 6 43 6q23 0 39 -16l11 -19q5 -8 9 -18q6 -8 11 -103q2 -27 2 -63v-84v-330q0 -59 4 -80q12 -41 59 -71l26 -21q13 -10 27 -24q0 -45 -67 -72q-49 -14 -101 -14q-74 -4 -92 149q-4 37 -6 91.5t-2 125.5v103q0 -6 0 18q0 27 2 84q0 57 -2 100t-6 76 q-8 20 -16 50zM346 1016l100 352q10 41 64 43q94 0 98 -74q2 -20 -6 -34l-207 -302z" />
<glyph unicode="&#x3b9;&#x313;&#x342;" horiz-adv-x="602" d="M-25 1321q51 129 199 135q41 0 131 -53q98 -61 129 -64q49 0 93 30t63 75l37 -66q-18 -53 -76 -90q-61 -39 -117 -39q-39 0 -141 62q-14 6 -33.5 12t-44.5 16q-20 12 -43 13q-111 0 -156 -99zM135 852q0 20 31 33q4 0 47 10q29 6 43 6q23 0 39 -16l11 -19q5 -8 9 -18 q6 -8 11 -103q2 -27 2 -63v-84v-330q0 -59 4 -80q12 -41 59 -71l26 -21q13 -10 27 -24q0 -45 -67 -72q-49 -14 -101 -14q-74 -4 -92 149q-4 37 -6 91.5t-2 125.5v103q0 -6 0 18q0 27 2 84q0 57 -2 100t-6 76q-8 20 -16 50zM156 1210q8 61 98 62q37 0 51 -15q14 -4 47 -34 q16 -39 17 -109v-18q0 -10 -2 -27q-4 -8 -13.5 -20.5t-19.5 -32.5q-8 -20 -35 -33l-33 -8q-25 -14 -33 -14q-37 6 -45 20q-12 18 -12 33q12 -2 55 30q20 8 50 35q4 6 2 33q0 23 -13 35q-18 18 -71 31q-43 16 -43 32z" />
<glyph unicode="&#x3b9;&#x314;&#x342;" horiz-adv-x="604" d="M-25 1321q49 129 199 135q39 0 131 -53q98 -61 129 -64q49 0 93 30t63 75l39 -66q-20 -53 -80 -90q-59 -39 -115 -39q-39 0 -141 62q-14 6 -33.5 12t-46.5 16q-20 12 -41 13q-111 0 -158 -99zM168 852q0 20 31 33q4 0 47 10q29 6 43 6q23 0 39 -16l11 -19q5 -8 9 -18 q6 -8 10 -103q2 -27 2 -63v-84v-330q0 -59 5 -80q12 -41 59 -71l26 -21q13 -10 27 -24q0 -45 -67 -72q-49 -14 -101 -14q-74 -4 -92 149q-4 37 -6 91.5t-2 125.5v103q0 -6 0 18q0 27 2 84q0 57 -2 100t-6 76q-8 20 -17 50zM170 1114q0 70 16 109q6 8 47 34q25 18 54 19 q49 0 71 -29q12 -8 25 -37q0 -16 -43 -32q-51 -12 -72 -31q-10 -10 -12 -35q-6 -35 23 -45q14 -6 28 -23q20 -25 55 -30q0 -14 -12 -33q-6 -14 -45 -20q-8 0 -33 14l-32 8q-20 12 -35 33q-12 10 -31 53q-2 10 -2 23q0 12 -2 22z" />
<glyph unicode="&#x399;&#x313;" horiz-adv-x="727" d="M0 1315q6 82 96 82q63 0 99 -72q16 -35 16 -88v-27q0 -16 -2 -39q-4 -23 -12.5 -45t-18.5 -43q-10 -23 -35 -32l-32 -13q-27 -10 -35 -10q-39 4 -45 16q-10 25 -11 37q10 -4 56 29l36 39q15 16 23 29q14 16 -33 59q-6 6 -63 33q-39 14 -39 45zM362 0v1409h170v-1409h-170 z" />
<glyph unicode="&#x399;&#x314;" horiz-adv-x="753" d="M2 1241q-2 102 64 141q27 18 53 19q86 0 96 -82q0 -35 -39 -45q-49 -16 -63 -33q-47 -43 -33 -59q10 -14 25 -31l34 -37q23 -23 56 -29q0 -14 -11 -36q-10 -12 -47 -17q-8 0 -33 10l-32 13q-23 10 -35 32q-23 41 -31 89q-2 10 -2 26t-2 39zM389 0v1409h170v-1409h-170z " />
<glyph unicode="&#x399;&#x313;&#x300;" horiz-adv-x="1073" d="M0 1325q6 82 98 82q61 0 97 -72q18 -35 18 -88v-26q0 -16 -2 -39q-4 -23 -13.5 -45.5t-19.5 -42.5q-10 -23 -35 -33l-32 -12q-27 -10 -35 -11q-37 4 -45 17q-10 25 -11 37q12 -4 56 28q23 23 37 39.5t22 28.5q14 16 -33 59q-4 6 -61 33q-41 14 -41 45zM317 1337 q6 74 101 74q53 -2 63 -43l101 -352l-50 -15l-206 302q-11 18 -9 34zM709 0v1409h170v-1409h-170z" />
<glyph unicode="&#x399;&#x314;&#x300;" horiz-adv-x="1097" d="M0 1247q0 102 66 142q27 18 51 18q88 0 98 -82q0 -35 -39 -45q-45 -16 -65 -33q-45 -43 -33 -58l26 -32l33 -37q23 -23 58 -28q0 -14 -11 -37q-8 -12 -49 -17q-6 0 -31 11l-32 12q-25 10 -35 33q-25 47 -33 88q-2 10 -2 26t-2 39zM326 1337q6 74 100 74q51 -2 63 -43 l101 -352l-51 -15l-207 302q-8 18 -6 34zM733 0v1409h170v-1409h-170z" />
<glyph unicode="&#x399;&#x313;&#x301;" horiz-adv-x="1163" d="M0 1325q8 82 98 82q61 0 97 -72q18 -35 18 -88v-26q0 -16 -2 -39q-4 -23 -12.5 -45.5t-18.5 -42.5q-12 -23 -35 -33l-32 -12q-27 -10 -35 -11q-39 4 -47 17q-10 25 -11 37q12 -4 58 28l35 39l24 29q12 16 -33 59q-6 6 -63 33q-41 14 -41 45zM299 1016l104 352 q10 41 60 43q96 0 102 -74q2 -20 -6 -34l-207 -302zM799 0v1409h170v-1409h-170z" />
<glyph unicode="&#x399;&#x314;&#x301;" horiz-adv-x="1196" d="M0 1247q0 102 66 142q25 18 49 18q90 0 100 -82q0 -35 -39 -45q-47 -16 -65 -33q-45 -43 -34 -58t25.5 -31.5l34.5 -37.5q23 -23 60 -28q0 -14 -13 -37q-8 -12 -49 -17q-8 0 -33 11l-30 12q-25 10 -35 33q-25 47 -33 88q-2 10 -2 26t-2 39zM319 1016l101 352q10 41 63 43 q94 0 99 -74q2 -20 -7 -34l-206 -302zM831 0v1409h170v-1409h-170z" />
<glyph unicode="&#x399;&#x313;&#x342;" horiz-adv-x="1062" d="M0 1321q51 129 199 135q41 0 131 -53q98 -61 129 -64q49 0 93 30t62 75l39 -66q-20 -53 -78 -90q-61 -39 -116 -39q-37 0 -140 62q-16 6 -35.5 12t-43.5 16q-20 12 -43 13q-111 0 -156 -99zM182 1210q8 61 97 62q39 0 51 -15q14 -4 47 -34q16 -39 16 -109v-18 q0 -10 -2 -27q-4 -8 -13 -20.5t-18 -32.5q-10 -20 -36 -33l-33 -8q-25 -14 -33 -14q-37 6 -45 20q-12 18 -12 33q12 -2 55 30q20 8 49 35q6 6 4 33q-2 23 -14 35q-18 18 -72 31q-41 16 -41 32zM698 0v1409h170v-1409h-170z" />
<glyph unicode="&#x399;&#x314;&#x342;" horiz-adv-x="1073" d="M0 1321q49 129 199 135q39 0 131 -53q98 -61 129 -64q49 0 93 30t62 75l39 -66q-20 -53 -80 -90q-59 -39 -114 -39q-39 0 -142 62q-14 6 -33.5 12t-45.5 16q-20 12 -41 13q-111 0 -158 -99zM195 1114q0 70 16 109q6 8 47 34q25 18 53 19q49 0 72 -29q12 -8 25 -37 q0 -16 -43 -32q-51 -12 -72 -31q-10 -10 -12 -35q-6 -35 22 -45q14 -6 29 -23q20 -25 55 -30q0 -14 -12 -33q-6 -14 -45 -20q-8 0 -33 14l-33 8q-20 12 -35 33q-12 10 -30 53q-2 10 -2 23q0 12 -2 22zM709 0v1409h170v-1409h-170z" />
<glyph unicode="&#x3bf;&#x313;" horiz-adv-x="1093" d="M82 442q-2 195 137 326q137 131 336 135q195 4 340 -121q147 -129 152 -321q0 -197 -142 -330q-137 -133 -334 -133t-340 121q-149 126 -149 323zM215 453q-2 -131 109 -236q102 -96 237 -96t236 98q100 102 104 238q2 127 -104 229q-109 100 -240 105q-131 2 -235 -103 q-103 -100 -107 -235zM453 1325q8 82 98 82q61 0 96 -72q18 -35 19 -88v-26q0 -16 -2 -39q-4 -23 -14 -45l-17 -43q-12 -23 -35 -33l-35 -12q-27 -10 -35 -11q-37 4 -45 17q-10 25 -10 37q12 -4 55 28q23 23 37 39l25 29q12 16 -35 59q-4 6 -61 33q-41 14 -41 45z" />
<glyph unicode="&#x3bf;&#x314;" horiz-adv-x="1093" d="M82 442q-2 195 137 326q137 131 336 135q195 4 340 -121q147 -129 152 -321q0 -197 -142 -330q-137 -133 -334 -133t-340 121q-149 126 -149 323zM215 453q-2 -131 109 -236q102 -96 237 -96t236 98q100 102 104 238q2 127 -104 229q-109 100 -240 105q-131 2 -235 -103 q-103 -100 -107 -235zM410 1247q-2 102 63 142q27 18 53 18q86 0 97 -82q0 -35 -39 -45q-49 -16 -64 -33q-47 -43 -33 -59q10 -14 26 -31l34 -37q23 -23 55 -28q0 -14 -10 -37q-10 -12 -47 -17q-8 0 -33 11l-33 12q-23 10 -35 33q-23 41 -30 88q-2 10 -2 26t-2 39z" />
<glyph unicode="&#x3bf;&#x313;&#x300;" horiz-adv-x="1093" d="M82 442q-2 195 137 326q137 131 336 135q195 4 340 -121q147 -129 152 -321q0 -197 -142 -330q-137 -133 -334 -133t-340 121q-149 126 -149 323zM215 453q-2 -131 109 -236q102 -96 237 -96t236 98q100 102 104 238q2 127 -104 229q-109 100 -240 105q-131 2 -235 -103 q-103 -100 -107 -235zM215 1325q6 82 98 82q61 0 97 -72q18 -35 18 -88v-26q0 -16 -2 -39q-4 -23 -13.5 -45.5t-19.5 -42.5q-10 -23 -35 -33l-32 -12q-27 -10 -35 -11q-37 4 -45 17q-10 25 -10 37q12 -4 55 28q23 23 37 39.5t22 28.5q14 16 -33 59q-4 6 -61 33 q-41 14 -41 45zM532 1337q6 74 101 74q53 -2 63 -43l101 -352l-49 -15l-207 302q-11 18 -9 34z" />
<glyph unicode="&#x3bf;&#x314;&#x300;" horiz-adv-x="1093" d="M82 442q-2 195 137 326q137 131 336 135q195 4 340 -121q147 -129 152 -321q0 -197 -142 -330q-137 -133 -334 -133t-340 121q-149 126 -149 323zM215 453q-2 -131 109 -236q102 -96 237 -96t236 98q100 102 104 238q2 127 -104 229q-109 100 -240 105q-131 2 -235 -103 q-103 -100 -107 -235zM258 1247q0 102 66 142q27 18 51 18q88 0 98 -82q0 -35 -39 -45q-45 -16 -65 -33q-45 -43 -33 -58l26 -32l33 -37q23 -23 58 -28q0 -14 -11 -37q-8 -12 -49 -17q-6 0 -31 11l-32 12q-25 10 -35 33q-25 47 -33 88q-2 10 -2 26t-2 39zM584 1337 q6 74 100 74q51 -2 64 -43l100 -352l-51 -15l-207 302q-8 18 -6 34z" />
<glyph unicode="&#x3bf;&#x313;&#x301;" horiz-adv-x="1093" d="M82 442q-2 195 137 326q137 131 336 135q195 4 340 -121q147 -129 152 -321q0 -197 -142 -330q-137 -133 -334 -133t-340 121q-149 126 -149 323zM215 453q-2 -131 109 -236q102 -96 237 -96t236 98q100 102 104 238q2 127 -104 229q-109 100 -240 105q-131 2 -235 -103 q-103 -100 -107 -235zM291 1325q8 82 98 82q61 0 96 -72q18 -35 19 -88v-26q0 -16 -2 -39q-4 -23 -12.5 -45.5t-18.5 -42.5q-12 -23 -35 -33l-33 -12q-27 -10 -34 -11q-39 4 -47 17q-10 25 -11 37q12 -4 58 28l34 39l25 29q12 16 -33 59q-6 6 -63 33q-41 14 -41 45z M590 1016l104 352q10 41 60 43q96 0 102 -74q2 -20 -6 -34l-207 -302z" />
<glyph unicode="&#x3bf;&#x314;&#x301;" horiz-adv-x="1093" d="M82 442q-2 195 137 326q137 131 336 135q195 4 340 -121q147 -129 152 -321q0 -197 -142 -330q-137 -133 -334 -133t-340 121q-149 126 -149 323zM215 453q-2 -131 109 -236q102 -96 237 -96t236 98q100 102 104 238q2 127 -104 229q-109 100 -240 105q-131 2 -235 -103 q-103 -100 -107 -235zM289 1247q0 102 65 142q25 18 49 18q90 0 101 -82q0 -35 -39 -45q-47 -16 -66 -33q-45 -43 -33.5 -58t26 -31.5l34.5 -37.5q23 -23 59 -28q0 -14 -12 -37q-8 -12 -49 -17q-8 0 -33 11l-31 12q-25 10 -34 33q-25 47 -33 88q-2 10 -2 26t-2 39zM608 1016 l101 352q10 41 63 43q94 0 98 -74q2 -20 -6 -34l-207 -302z" />
<glyph unicode="&#x39f;&#x313;" horiz-adv-x="1755" d="M0 1325q6 82 98 82q61 0 97 -72q16 -35 16 -88v-26q0 -16 -2 -39q-4 -23 -12.5 -45.5t-18.5 -42.5q-10 -23 -33 -33l-32 -12q-29 -10 -37 -11q-39 4 -45 17q-10 25 -11 37q12 -4 56 28q23 23 37 39l24 29q12 16 -33 59q-6 6 -65 33q-39 14 -39 45zM240 692 q-2 315 194 520q199 205 514 207q309 2 514 -209q203 -205 203 -516q0 -287 -215 -491q-209 -203 -500 -207q-301 -2 -506 197q-200 198 -204 499zM424 692q-4 -260 131 -402.5t395 -144.5q260 -4 398 144q129 137 133 401q0 283 -119 426q-131 152 -412 156 q-279 2 -407 -154q-115 -137 -119 -426z" />
<glyph unicode="&#x39f;&#x314;" horiz-adv-x="1802" d="M2 1247q-2 102 64 142q25 18 51 18q88 0 96 -82q0 -35 -37 -45q-49 -16 -65 -33q-45 -43 -33 -59q10 -14 25 -31l34 -37q25 -23 58 -28q0 -14 -13 -37q-8 -12 -47 -17q-6 0 -33 11l-32 12q-23 10 -33 33q-23 41 -31 88q-2 10 -2 26t-2 39zM287 692q-2 315 194 520 q201 205 514 207q309 2 514 -209q203 -205 203 -516q0 -287 -213 -491q-209 -203 -502 -207q-301 -2 -505 197q-201 198 -205 499zM473 692q-4 -260 131 -402.5t393 -144.5q262 -4 400 144q127 137 131 401q2 283 -117 426q-131 152 -414 156q-276 2 -407 -154 q-115 -137 -117 -426z" />
<glyph unicode="&#x39f;&#x313;&#x300;" horiz-adv-x="2217" d="M0 1325q8 82 98 82q61 0 97 -72q18 -35 18 -88v-26q0 -16 -2 -39q-4 -23 -13 -45l-18 -43q-12 -23 -35 -33l-32 -12q-29 -10 -37 -11q-37 4 -45 17q-10 25 -11 37q12 -4 56 28q23 23 37 39l24 29q14 16 -33 59q-6 6 -63 33q-41 14 -41 45zM319 1337q6 74 99 74 q55 -2 65 -43l101 -352l-52 -15l-204 302q-11 18 -9 34zM702 692q-2 315 195 520q199 205 514 207q309 2 514 -209q203 -205 203 -516q0 -287 -215 -491q-209 -203 -500 -207q-301 -2 -506 197q-201 198 -205 499zM887 692q-2 -260 132 -402.5t394 -144.5q260 -4 397 144 q129 137 134 401q0 283 -119 426q-131 152 -412 156q-279 2 -407 -154q-115 -137 -119 -426z" />
<glyph unicode="&#x39f;&#x314;&#x300;" horiz-adv-x="2209" d="M0 1247q0 102 66 142q25 18 51 18q88 0 98 -82q0 -35 -39 -45q-47 -16 -65 -33q-45 -43 -34 -58t26 -32l34 -37q23 -23 58 -28q0 -14 -11 -37q-8 -12 -49 -17q-6 0 -33 11l-30 12q-27 10 -35 33q-25 47 -33 88q-2 10 -2 26t-2 39zM326 1337q6 74 100 74q51 -2 63 -43 l101 -352l-51 -15l-207 302q-8 18 -6 34zM692 692q-2 315 197 520t514 207q307 2 514 -209q203 -205 203 -516q0 -287 -215 -491q-209 -203 -500 -207q-301 -2 -508 197q-201 198 -205 499zM879 692q-4 -260 131 -402.5t395 -144.5q260 -4 397 144q127 137 131 401 q2 283 -116 426q-131 152 -412 156q-279 2 -410 -154q-112 -137 -116 -426z" />
<glyph unicode="&#x39f;&#x313;&#x301;" horiz-adv-x="2113" d="M0 1325q8 82 98 82q63 0 99 -72q16 -35 16 -88v-26q0 -16 -2 -39q-4 -23 -12.5 -45.5t-18.5 -42.5q-10 -23 -35 -33l-32 -12q-27 -10 -35 -11q-39 4 -45 17q-10 25 -10 37q12 -4 55 28l35 39l24 29q14 16 -33 59q-6 6 -63 33q-41 14 -41 45zM299 1016l104 352 q10 41 62 43q94 0 100 -74q2 -20 -6 -34l-207 -302zM596 692q0 315 197 520q199 205 514 207q309 2 514 -209q203 -205 202 -516q0 -287 -215 -491q-209 -203 -499 -207q-301 -2 -506 197q-203 198 -207 499zM782 692q-4 -260 131.5 -402.5t395.5 -144.5q260 -4 397 144 q127 137 131 401q2 283 -117 426q-131 152 -411 156q-279 2 -410 -154q-113 -137 -117 -426z" />
<glyph unicode="&#x39f;&#x314;&#x301;" horiz-adv-x="2119" d="M0 1247q0 102 68 142q25 18 49 18q90 0 98 -82q0 -35 -39 -45q-45 -16 -63 -33q-45 -43 -34 -58t25.5 -31.5l34.5 -37.5q23 -23 58 -28q0 -14 -13 -37q-8 -12 -47 -17q-8 0 -33 11l-30 12q-27 10 -35 33q-27 47 -35 88q-2 10 -2 26t-2 39zM319 1016l103 352q10 41 61 43 q96 0 101 -74q2 -20 -6 -34l-207 -302zM604 692q-2 315 195 520q199 205 514 207q309 2 514 -209q203 -205 203 -516q0 -287 -213 -491q-209 -203 -502 -207q-301 -2 -506 197q-201 198 -205 499zM791 692q-4 -260 131 -402.5t393 -144.5q260 -4 397 144q129 137 133 401 q0 283 -119 426q-129 152 -411 156q-279 2 -408 -154q-114 -137 -116 -426z" />
<glyph unicode="&#x3c5;&#x313;" horiz-adv-x="1009" d="M35 803q0 27 22 55q31 37 99 37q41 0 86 -45q14 -14 34 -258q10 -139 16.5 -215t10.5 -90q20 -127 74 -148q47 -18 84 -20q6 -2 16 -2q14 0 33 -2q113 -6 162 63q37 45 53 176q12 78 18 258q2 66 6.5 109t8.5 63q23 109 104 113q47 0 83 -26.5t38 -71.5q2 -31 -45 -56 q-25 -14 -35 -43q-12 -47 -39 -299q-10 -88 -23.5 -152.5t-31.5 -103.5q-63 -139 -199 -139h-204q-125 0 -191 131q-35 76 -59 242l-33 256q-10 78 -43 104q-41 37 -43 47q-2 7 -2 17zM416 1325q6 82 96 82q63 0 98 -72q16 -35 17 -88v-26q0 -16 -2 -39q-4 -23 -12.5 -45.5 t-18.5 -42.5q-10 -23 -35 -33l-33 -12q-27 -10 -34 -11q-39 4 -46 17q-10 25 -10 37q10 -4 56 28l35 39q15 16 24 29q14 16 -33 59q-6 6 -63 33q-39 14 -39 45z" />
<glyph unicode="&#x3c5;&#x314;" horiz-adv-x="1009" d="M35 803q0 27 22 55q31 37 99 37q41 0 86 -45q14 -14 34 -258q10 -139 16.5 -215t10.5 -90q20 -127 74 -148q47 -18 84 -20q6 -2 16 -2q14 0 33 -2q113 -6 162 63q37 45 53 176q12 78 18 258q2 66 6.5 109t8.5 63q23 109 104 113q47 0 83 -26.5t38 -71.5q2 -31 -45 -56 q-25 -14 -35 -43q-12 -47 -39 -299q-10 -88 -23.5 -152.5t-31.5 -103.5q-63 -139 -199 -139h-204q-125 0 -191 131q-35 76 -59 242l-33 256q-10 78 -43 104q-41 37 -43 47q-2 7 -2 17zM377 1247q-2 102 63 142q27 18 54 18q86 0 96 -82q0 -35 -39 -45q-49 -16 -64 -33 q-47 -43 -32 -59q10 -14 25 -31l34 -37q23 -23 55 -28q0 -14 -10 -37q-10 -12 -47 -17q-8 0 -33 11l-33 12q-23 10 -34 33q-23 41 -31 88q-2 10 -2 26t-2 39z" />
<glyph unicode="&#x3c5;&#x313;&#x300;" horiz-adv-x="1009" d="M35 803q0 27 22 55q31 37 99 37q41 0 86 -45q14 -14 34 -258q10 -139 16.5 -215t10.5 -90q20 -127 74 -148q47 -18 84 -20q6 -2 16 -2q14 0 33 -2q113 -6 162 63q37 45 53 176q12 78 18 258q2 66 6.5 109t8.5 63q23 109 104 113q47 0 83 -26.5t38 -71.5q2 -31 -45 -56 q-25 -14 -35 -43q-12 -47 -39 -299q-10 -88 -23.5 -152.5t-31.5 -103.5q-63 -139 -199 -139h-204q-125 0 -191 131q-35 76 -59 242l-33 256q-10 78 -43 104q-41 37 -43 47q-2 7 -2 17zM207 1325q6 82 98 82q61 0 96 -72q18 -35 19 -88v-26q0 -16 -2 -39q-4 -23 -13.5 -45.5 t-19.5 -42.5q-10 -23 -35 -33l-33 -12q-27 -10 -34 -11q-37 4 -45 17q-10 25 -11 37q12 -4 56 28q23 23 37 39.5t22 28.5q14 16 -33 59q-4 6 -61 33q-41 14 -41 45zM524 1337q6 74 101 74q53 -2 63 -43l100 -352l-49 -15l-207 302q-10 18 -8 34z" />
<glyph unicode="&#x3c5;&#x314;&#x300;" horiz-adv-x="1009" d="M35 803q0 27 22 55q31 37 99 37q41 0 86 -45q14 -14 34 -258q10 -139 16.5 -215t10.5 -90q20 -127 74 -148q47 -18 84 -20q6 -2 16 -2q14 0 33 -2q113 -6 162 63q37 45 53 176q12 78 18 258q2 66 6.5 109t8.5 63q23 109 104 113q47 0 83 -26.5t38 -71.5q2 -31 -45 -56 q-25 -14 -35 -43q-12 -47 -39 -299q-10 -88 -23.5 -152.5t-31.5 -103.5q-63 -139 -199 -139h-204q-125 0 -191 131q-35 76 -59 242l-33 256q-10 78 -43 104q-41 37 -43 47q-2 7 -2 17zM221 1247q0 102 66 142q27 18 51 18q88 0 98 -82q0 -35 -39 -45q-45 -16 -65 -33 q-45 -43 -33 -58l27 -32l32 -37q23 -23 58 -28q0 -14 -10 -37q-8 -12 -50 -17q-6 0 -30 11l-33 12q-25 10 -35 33q-25 47 -33 88q-2 10 -2 26t-2 39zM547 1337q6 74 100 74q51 -2 64 -43l100 -352l-51 -15l-207 302q-8 18 -6 34z" />
<glyph unicode="&#x3c5;&#x313;&#x301;" horiz-adv-x="1009" d="M35 803q0 27 22 55q31 37 99 37q41 0 86 -45q14 -14 34 -258q10 -139 16.5 -215t10.5 -90q20 -127 74 -148q47 -18 84 -20q6 -2 16 -2q14 0 33 -2q113 -6 162 63q37 45 53 176q12 78 18 258q2 66 6.5 109t8.5 63q23 109 104 113q47 0 83 -26.5t38 -71.5q2 -31 -45 -56 q-25 -14 -35 -43q-12 -47 -39 -299q-10 -88 -23.5 -152.5t-31.5 -103.5q-63 -139 -199 -139h-204q-125 0 -191 131q-35 76 -59 242l-33 256q-10 78 -43 104q-41 37 -43 47q-2 7 -2 17zM250 1325q8 82 98 82q61 0 96 -72q18 -35 19 -88v-26q0 -16 -2 -39q-4 -23 -12.5 -45.5 t-18.5 -42.5q-12 -23 -35 -33l-33 -12q-27 -10 -34 -11q-39 4 -47 17q-10 25 -11 37q12 -4 58 28l34 39l25 29q12 16 -33 59q-6 6 -63 33q-41 14 -41 45zM549 1016l104 352q10 41 60 43q96 0 102 -74q2 -20 -6 -34l-207 -302z" />
<glyph unicode="&#x3c5;&#x314;&#x301;" horiz-adv-x="1009" d="M35 803q0 27 22 55q31 37 99 37q41 0 86 -45q14 -14 34 -258q10 -139 16.5 -215t10.5 -90q20 -127 74 -148q47 -18 84 -20q6 -2 16 -2q14 0 33 -2q113 -6 162 63q37 45 53 176q12 78 18 258q2 66 6.5 109t8.5 63q23 109 104 113q47 0 83 -26.5t38 -71.5q2 -31 -45 -56 q-25 -14 -35 -43q-12 -47 -39 -299q-10 -88 -23.5 -152.5t-31.5 -103.5q-63 -139 -199 -139h-204q-125 0 -191 131q-35 76 -59 242l-33 256q-10 78 -43 104q-41 37 -43 47q-2 7 -2 17zM305 1247q0 102 66 142q25 18 49 18q90 0 100 -82q0 -35 -39 -45q-47 -16 -65 -33 q-45 -43 -34 -58t25.5 -31.5l34.5 -37.5q23 -23 60 -28q0 -14 -13 -37q-8 -12 -49 -17q-8 0 -32 11l-31 12q-25 10 -35 33q-25 47 -33 88q-2 10 -2 26t-2 39zM625 1016l100 352q10 41 63 43q94 0 99 -74q2 -20 -6 -34l-207 -302z" />
<glyph unicode="&#x3c5;&#x313;&#x342;" horiz-adv-x="1009" d="M35 803q0 27 22 55q31 37 99 37q41 0 86 -45q14 -14 34 -258q10 -139 16.5 -215t10.5 -90q20 -127 74 -148q47 -18 84 -20q6 -2 16 -2q14 0 33 -2q113 -6 162 63q37 45 53 176q12 78 18 258q2 66 6.5 109t8.5 63q23 109 104 113q47 0 83 -26.5t38 -71.5q2 -31 -45 -56 q-25 -14 -35 -43q-12 -47 -39 -299q-10 -88 -23.5 -152.5t-31.5 -103.5q-63 -139 -199 -139h-204q-125 0 -191 131q-35 76 -59 242l-33 256q-10 78 -43 104q-41 37 -43 47q-2 7 -2 17zM197 1321q51 129 198 135q41 0 131 -53q98 -61 129 -64q49 0 93.5 30t62.5 75l37 -66 q-18 -53 -76 -90q-61 -39 -117 -39q-39 0 -141 62q-14 6 -33.5 12t-44.5 16q-20 12 -43 13q-111 0 -155 -99zM377 1210q8 61 98 62q37 0 51 -15q14 -4 47 -34q16 -39 17 -109v-18q0 -10 -2 -27q-4 -8 -13.5 -20.5t-19.5 -32.5q-8 -20 -35 -33l-33 -8q-25 -14 -32 -14 q-37 6 -45 20q-12 18 -13 33q12 -2 56 30q20 8 49 35q4 6 2 33q0 23 -12 35q-18 18 -72 31q-43 16 -43 32z" />
<glyph unicode="&#x3c5;&#x314;&#x342;" horiz-adv-x="1009" d="M35 803q0 27 22 55q31 37 99 37q41 0 86 -45q14 -14 34 -258q10 -139 16.5 -215t10.5 -90q20 -127 74 -148q47 -18 84 -20q6 -2 16 -2q14 0 33 -2q113 -6 162 63q37 45 53 176q12 78 18 258q2 66 6.5 109t8.5 63q23 109 104 113q47 0 83 -26.5t38 -71.5q2 -31 -45 -56 q-25 -14 -35 -43q-12 -47 -39 -299q-10 -88 -23.5 -152.5t-31.5 -103.5q-63 -139 -199 -139h-204q-125 0 -191 131q-35 76 -59 242l-33 256q-10 78 -43 104q-41 37 -43 47q-2 7 -2 17zM201 1321q49 129 198 135q39 0 131 -53q98 -61 129 -64q49 0 93.5 30t62.5 75l39 -66 q-20 -53 -80 -90q-59 -39 -115 -39q-39 0 -141 62q-14 6 -33.5 12t-46.5 16q-20 12 -41 13q-111 0 -157 -99zM395 1114q0 70 17 109q6 8 47 34q25 18 53 19q49 0 72 -29q12 -8 24 -37q0 -16 -43 -32q-51 -12 -71 -31q-10 -10 -13 -35q-6 -35 23 -45q14 -6 28 -23 q20 -25 56 -30q0 -14 -13 -33q-6 -14 -45 -20q-8 0 -32 14l-33 8q-20 12 -35 33q-12 10 -31 53q-2 10 -2 23q0 12 -2 22z" />
<glyph unicode="&#x3a5;&#x314;" horiz-adv-x="1771" d="M2 1247q-2 102 64 142q25 18 51 18q88 0 96 -82q0 -35 -37 -45q-49 -16 -65 -33q-45 -43 -33 -59q10 -14 25 -31l34 -37q25 -23 58 -28q0 -14 -13 -37q-8 -12 -47 -17q-6 0 -33 11l-32 12q-23 10 -33 33q-23 41 -31 88q-2 10 -2 26t-2 39zM315 1405h230l463 -598l465 598 h225l-590 -723v-682h-199v682z" />
<glyph unicode="&#x3a5;&#x314;&#x300;" horiz-adv-x="2082" d="M0 1247q0 102 66 142q25 18 49 18q90 0 100 -82q0 -35 -41 -45q-45 -16 -65 -33q-43 -43 -32 -58t25 -32l33 -37q25 -23 60 -28q0 -14 -13 -37q-8 -12 -49 -17q-6 0 -31 11l-30 12q-27 10 -35 33q-27 47 -33 88q-2 10 -2 26t-2 39zM324 1337q6 74 100 74q51 -2 63 -43 l101 -352l-49 -15l-207 302q-10 18 -8 34zM627 1405h229l463 -602l465 602h225l-592 -727v-678h-196v678z" />
<glyph unicode="&#x3a5;&#x314;&#x301;" horiz-adv-x="2170" d="M0 1247q0 102 66 142q25 18 51 18q88 0 98 -82q0 -35 -39 -45q-47 -16 -65 -33q-45 -43 -34 -58t26 -32l34 -37q25 -23 60 -28q0 -14 -13 -37q-8 -12 -49 -17q-8 0 -33 11l-30 12q-25 10 -35 33q-25 47 -33 88q-2 10 -2 26t-2 39zM319 1016l101 352q10 41 63 43 q94 0 99 -74q2 -20 -7 -34l-206 -302zM715 1405h229l463 -602l465 602h225l-590 -727v-678h-196v678z" />
<glyph unicode="&#x3a5;&#x314;&#x342;" horiz-adv-x="2273" d="M0 1321q49 129 199 135q41 0 131 -53q98 -61 131 -64q47 0 91 30t62 75l39 -66q-20 -53 -78 -90q-61 -39 -114 -39q-41 0 -144 62q-14 6 -33.5 12t-43.5 16q-23 12 -43 13q-111 0 -158 -99zM195 1114q0 70 16 109q6 8 47 34q27 18 53 19q49 0 72 -29q12 -8 27 -37 q0 -16 -45 -32q-51 -12 -72 -31q-8 -10 -10 -35q-6 -35 20 -45q14 -6 29 -23q20 -25 55 -30q0 -14 -12 -33q-6 -14 -45 -20q-8 0 -33 14l-33 8q-18 12 -35 33q-12 10 -30 53q-2 10 -2 23q0 12 -2 22zM817 1405h230l462 -602l465 602h226l-590 -727v-678h-199v678z" />
<glyph unicode="&#x3c9;&#x313;" horiz-adv-x="1689" d="M86 401q0 209 102 332q111 129 318 135q20 0 41.5 -2t48.5 -6q35 -6 35 -31q2 -23 -51 -61q-158 -49 -234 -113q-102 -88 -92 -229v-66q8 -92 80 -182q47 -57 112 -63q10 -2 22.5 -4t29.5 -5q68 0 120 25q31 6 95 43q55 61 55 277v28q0 8 20 15q8 0 20.5 1t31.5 3 q82 0 82 -19q0 -14 -2 -22v-21q0 -190 51 -252q16 -8 84 -45q59 -33 125 -33q20 0 39.5 1.5t35.5 3.5q51 6 103 67q51 63 61 109q4 12 8.5 40.5t8.5 71.5q0 20 2 27q0 156 -88 233q-63 55 -238 109q-51 35 -51 61q0 23 47 33q29 6 78 6q203 0 313 -137q104 -125 105 -330 q0 -240 -109 -342q-109 -96 -346 -98q-59 0 -145 43l-62 37l-92 53l-63 -37q-42 -25 -103 -57q-37 -18 -81 -27.5t-93 -11.5q-422 -4 -424 440zM758 1325q6 82 96 82q63 0 98 -72q16 -35 17 -88v-26q0 -16 -2 -39q-4 -23 -12.5 -45.5t-18.5 -42.5q-10 -23 -35 -33l-33 -12 q-27 -10 -34 -11q-39 4 -46 17q-10 25 -10 37q10 -4 56 28l35 39q15 16 24 29q14 16 -33 59q-6 6 -63 33q-39 14 -39 45z" />
<glyph unicode="&#x3c9;&#x314;" horiz-adv-x="1689" d="M86 401q0 209 102 332q111 129 318 135q20 0 41.5 -2t48.5 -6q35 -6 35 -31q2 -23 -51 -61q-158 -49 -234 -113q-102 -88 -92 -229v-66q8 -92 80 -182q47 -57 112 -63q10 -2 22.5 -4t29.5 -5q68 0 120 25q31 6 95 43q55 61 55 277v28q0 8 20 15q8 0 20.5 1t31.5 3 q82 0 82 -19q0 -14 -2 -22v-21q0 -190 51 -252q16 -8 84 -45q59 -33 125 -33q20 0 39.5 1.5t35.5 3.5q51 6 103 67q51 63 61 109q4 12 8.5 40.5t8.5 71.5q0 20 2 27q0 156 -88 233q-63 55 -238 109q-51 35 -51 61q0 23 47 33q29 6 78 6q203 0 313 -137q104 -125 105 -330 q0 -240 -109 -342q-109 -96 -346 -98q-59 0 -145 43l-62 37l-92 53l-63 -37q-42 -25 -103 -57q-37 -18 -81 -27.5t-93 -11.5q-422 -4 -424 440zM672 1247q-2 102 63 142q27 18 53 18q86 0 97 -82q0 -35 -39 -45q-49 -16 -64 -33q-47 -43 -32 -59q10 -14 25 -31l34 -37 q23 -23 55 -28q0 -14 -10 -37q-10 -12 -47 -17q-8 0 -33 11l-33 12q-23 10 -34 33q-23 41 -31 88q-2 10 -2 26t-2 39z" />
<glyph unicode="&#x3c9;&#x313;&#x300;" horiz-adv-x="1689" d="M86 401q0 209 102 332q111 129 318 135q20 0 41.5 -2t48.5 -6q35 -6 35 -31q2 -23 -51 -61q-158 -49 -234 -113q-102 -88 -92 -229v-66q8 -92 80 -182q47 -57 112 -63q10 -2 22.5 -4t29.5 -5q68 0 120 25q31 6 95 43q55 61 55 277v28q0 8 20 15q8 0 20.5 1t31.5 3 q82 0 82 -19q0 -14 -2 -22v-21q0 -190 51 -252q16 -8 84 -45q59 -33 125 -33q20 0 39.5 1.5t35.5 3.5q51 6 103 67q51 63 61 109q4 12 8.5 40.5t8.5 71.5q0 20 2 27q0 156 -88 233q-63 55 -238 109q-51 35 -51 61q0 23 47 33q29 6 78 6q203 0 313 -137q104 -125 105 -330 q0 -240 -109 -342q-109 -96 -346 -98q-59 0 -145 43l-62 37l-92 53l-63 -37q-42 -25 -103 -57q-37 -18 -81 -27.5t-93 -11.5q-422 -4 -424 440zM494 1325q6 82 98 82q61 0 96 -72q18 -35 19 -88v-26q0 -16 -2 -39q-4 -23 -13.5 -45.5t-19.5 -42.5q-10 -23 -35 -33l-33 -12 q-27 -10 -35 -11q-37 4 -45 17q-10 25 -10 37q12 -4 55 28q23 23 37.5 39.5t22.5 28.5q14 16 -33 59q-4 6 -61 33q-41 14 -41 45zM811 1337q6 74 100 74q53 -2 64 -43l100 -352l-49 -15l-207 302q-10 18 -8 34z" />
<glyph unicode="&#x3c9;&#x314;&#x300;" horiz-adv-x="1689" d="M86 401q0 209 102 332q111 129 318 135q20 0 41.5 -2t48.5 -6q35 -6 35 -31q2 -23 -51 -61q-158 -49 -234 -113q-102 -88 -92 -229v-66q8 -92 80 -182q47 -57 112 -63q10 -2 22.5 -4t29.5 -5q68 0 120 25q31 6 95 43q55 61 55 277v28q0 8 20 15q8 0 20.5 1t31.5 3 q82 0 82 -19q0 -14 -2 -22v-21q0 -190 51 -252q16 -8 84 -45q59 -33 125 -33q20 0 39.5 1.5t35.5 3.5q51 6 103 67q51 63 61 109q4 12 8.5 40.5t8.5 71.5q0 20 2 27q0 156 -88 233q-63 55 -238 109q-51 35 -51 61q0 23 47 33q29 6 78 6q203 0 313 -137q104 -125 105 -330 q0 -240 -109 -342q-109 -96 -346 -98q-59 0 -145 43l-62 37l-92 53l-63 -37q-42 -25 -103 -57q-37 -18 -81 -27.5t-93 -11.5q-422 -4 -424 440zM477 1247q0 102 66 142q27 18 51 18q88 0 98 -82q0 -35 -39 -45q-45 -16 -65 -33q-45 -43 -33 -58l27 -32l32 -37q23 -23 58 -28 q0 -14 -10 -37q-8 -12 -50 -17q-6 0 -30 11l-33 12q-25 10 -35 33q-25 47 -33 88q-2 10 -2 26t-2 39zM803 1337q6 74 100 74q51 -2 64 -43l100 -352l-51 -15l-207 302q-8 18 -6 34z" />
<glyph unicode="&#x3c9;&#x313;&#x301;" horiz-adv-x="1689" d="M86 401q0 209 102 332q111 129 318 135q20 0 41.5 -2t48.5 -6q35 -6 35 -31q2 -23 -51 -61q-158 -49 -234 -113q-102 -88 -92 -229v-66q8 -92 80 -182q47 -57 112 -63q10 -2 22.5 -4t29.5 -5q68 0 120 25q31 6 95 43q55 61 55 277v28q0 8 20 15q8 0 20.5 1t31.5 3 q82 0 82 -19q0 -14 -2 -22v-21q0 -190 51 -252q16 -8 84 -45q59 -33 125 -33q20 0 39.5 1.5t35.5 3.5q51 6 103 67q51 63 61 109q4 12 8.5 40.5t8.5 71.5q0 20 2 27q0 156 -88 233q-63 55 -238 109q-51 35 -51 61q0 23 47 33q29 6 78 6q203 0 313 -137q104 -125 105 -330 q0 -240 -109 -342q-109 -96 -346 -98q-59 0 -145 43l-62 37l-92 53l-63 -37q-42 -25 -103 -57q-37 -18 -81 -27.5t-93 -11.5q-422 -4 -424 440zM565 1325q8 82 99 82q61 0 96 -72q18 -35 18 -88v-26q0 -16 -2 -39q-4 -23 -12 -45.5t-19 -42.5q-12 -23 -34 -33l-33 -12 q-27 -10 -35 -11q-39 4 -47 17q-10 25 -10 37q12 -4 57 28l35 39l24 29q12 16 -32 59q-6 6 -64 33q-41 14 -41 45zM864 1016l105 352q10 41 59 43q96 0 102 -74q2 -20 -6 -34l-206 -302z" />
<glyph unicode="&#x3c9;&#x314;&#x301;" horiz-adv-x="1689" d="M86 401q0 209 102 332q111 129 318 135q20 0 41.5 -2t48.5 -6q35 -6 35 -31q2 -23 -51 -61q-158 -49 -234 -113q-102 -88 -92 -229v-66q8 -92 80 -182q47 -57 112 -63q10 -2 22.5 -4t29.5 -5q68 0 120 25q31 6 95 43q55 61 55 277v28q0 8 20 15q8 0 20.5 1t31.5 3 q82 0 82 -19q0 -14 -2 -22v-21q0 -190 51 -252q16 -8 84 -45q59 -33 125 -33q20 0 39.5 1.5t35.5 3.5q51 6 103 67q51 63 61 109q4 12 8.5 40.5t8.5 71.5q0 20 2 27q0 156 -88 233q-63 55 -238 109q-51 35 -51 61q0 23 47 33q29 6 78 6q203 0 313 -137q104 -125 105 -330 q0 -240 -109 -342q-109 -96 -346 -98q-59 0 -145 43l-62 37l-92 53l-63 -37q-42 -25 -103 -57q-37 -18 -81 -27.5t-93 -11.5q-422 -4 -424 440zM584 1247q0 102 65 142q25 18 49 18q90 0 101 -82q0 -35 -39 -45q-47 -16 -66 -33q-45 -43 -33.5 -58t25.5 -31.5t35 -37.5 q23 -23 59 -28q0 -14 -12 -37q-8 -12 -49 -17q-8 0 -33 11l-31 12q-25 10 -34 33q-25 47 -33 88q-2 10 -2 26t-2 39zM903 1016l101 352q10 41 63 43q94 0 98 -74q2 -20 -6 -34l-207 -302z" />
<glyph unicode="&#x3c9;&#x313;&#x342;" horiz-adv-x="1689" d="M86 401q0 209 102 332q111 129 318 135q20 0 41.5 -2t48.5 -6q35 -6 35 -31q2 -23 -51 -61q-158 -49 -234 -113q-102 -88 -92 -229v-66q8 -92 80 -182q47 -57 112 -63q10 -2 22.5 -4t29.5 -5q68 0 120 25q31 6 95 43q55 61 55 277v28q0 8 20 15q8 0 20.5 1t31.5 3 q82 0 82 -19q0 -14 -2 -22v-21q0 -190 51 -252q16 -8 84 -45q59 -33 125 -33q20 0 39.5 1.5t35.5 3.5q51 6 103 67q51 63 61 109q4 12 8.5 40.5t8.5 71.5q0 20 2 27q0 156 -88 233q-63 55 -238 109q-51 35 -51 61q0 23 47 33q29 6 78 6q203 0 313 -137q104 -125 105 -330 q0 -240 -109 -342q-109 -96 -346 -98q-59 0 -145 43l-62 37l-92 53l-63 -37q-42 -25 -103 -57q-37 -18 -81 -27.5t-93 -11.5q-422 -4 -424 440zM532 1321q51 129 199 135q41 0 131 -53q98 -61 129 -64q49 0 93 30t63 75l37 -66q-18 -53 -76 -90q-61 -39 -117 -39 q-39 0 -141 62q-14 6 -33.5 12t-44.5 16q-20 12 -43 13q-111 0 -156 -99zM713 1210q8 61 98 62q37 0 51 -15q14 -4 47 -34q16 -39 17 -109v-18q0 -10 -2 -27q-4 -8 -13.5 -20.5t-19.5 -32.5q-8 -20 -35 -33l-33 -8q-25 -14 -32 -14q-37 6 -46 20q-12 18 -12 33q12 -2 55 30 q20 8 50 35q4 6 2 33q0 23 -13 35q-18 18 -71 31q-43 16 -43 32z" />
<glyph unicode="&#x3c9;&#x314;&#x342;" horiz-adv-x="1689" d="M86 401q0 209 102 332q111 129 318 135q20 0 41.5 -2t48.5 -6q35 -6 35 -31q2 -23 -51 -61q-158 -49 -234 -113q-102 -88 -92 -229v-66q8 -92 80 -182q47 -57 112 -63q10 -2 22.5 -4t29.5 -5q68 0 120 25q31 6 95 43q55 61 55 277v28q0 8 20 15q8 0 20.5 1t31.5 3 q82 0 82 -19q0 -14 -2 -22v-21q0 -190 51 -252q16 -8 84 -45q59 -33 125 -33q20 0 39.5 1.5t35.5 3.5q51 6 103 67q51 63 61 109q4 12 8.5 40.5t8.5 71.5q0 20 2 27q0 156 -88 233q-63 55 -238 109q-51 35 -51 61q0 23 47 33q29 6 78 6q203 0 313 -137q104 -125 105 -330 q0 -240 -109 -342q-109 -96 -346 -98q-59 0 -145 43l-62 37l-92 53l-63 -37q-42 -25 -103 -57q-37 -18 -81 -27.5t-93 -11.5q-422 -4 -424 440zM532 1321q49 129 199 135q39 0 131 -53q98 -61 129 -64q49 0 93 30t63 75l39 -66q-20 -53 -80 -90q-59 -39 -115 -39 q-39 0 -141 62q-14 6 -33.5 12t-46.5 16q-20 12 -41 13q-111 0 -158 -99zM727 1114q0 70 16 109q6 8 48 34q25 18 53 19q49 0 71 -29q12 -8 25 -37q0 -16 -43 -32q-51 -12 -72 -31q-10 -10 -12 -35q-6 -35 23 -45q14 -6 28 -23q20 -25 56 -30q0 -14 -13 -33q-6 -14 -45 -20 q-8 0 -33 14l-32 8q-20 12 -35 33q-12 10 -31 53q-2 10 -2 23q0 12 -2 22z" />
<glyph unicode="&#x3a9;&#x313;" horiz-adv-x="2086" d="M0 1311q6 82 98 82q61 0 97 -72q16 -37 16 -88v-27q0 -16 -2 -39q-4 -23 -12.5 -45t-18.5 -43q-10 -23 -33 -32l-32 -13q-29 -10 -37 -10q-39 4 -45 16q-10 25 -11 37q10 -4 56 29q23 20 37 36.5t24 31.5q12 16 -33 59q-6 6 -65 33q-39 14 -39 45zM270 555v53 q0 242 129 555q96 236 179 240q55 2 104 -49q-37 -59 -68.5 -128t-62.5 -149q-33 -86 -52.5 -159.5t-27.5 -133.5q-10 -74 -13 -130l-5 -95q-2 -193 43 -283q59 -121 116 -133q27 -8 47.5 -12t34.5 -6q76 0 197 57q135 63 135 127v479q0 23 18 31q10 8 74 15q86 0 90 -46 v-479q0 -76 105 -125q127 -57 231 -59h-14q98 14 133 37q41 25 86 114q14 25 21.5 57t9.5 70q2 16 2 58v100v76q-2 6 -6 45t-15 111q-16 145 -80 294l-129 267q0 8 45 35q4 4 62 14q86 0 190 -270q41 -113 67 -202t34 -155q6 -74 10 -129t4 -94q0 -166 -68 -328 q-84 -197 -227 -213q-37 -4 -66.5 -8t-56.5 -6q-106 0 -233 51q-141 63 -189 146q-12 -39 -155 -117q-133 -78 -293 -78h-39q-367 47 -367 555z" />
<glyph unicode="&#x3a9;&#x314;" horiz-adv-x="2127" d="M2 1241q-2 102 64 141q25 18 51 19q88 0 96 -82q0 -35 -37 -45q-49 -16 -65 -33q-45 -43 -33 -59q10 -14 25 -31l36 -37q23 -23 56 -29q0 -14 -11 -36q-10 -12 -47 -17q-8 0 -33 10l-34 13q-23 12 -33 32q-23 41 -31 89q-2 10 -2 26t-2 39zM309 555v53q0 242 131 555 q94 236 178 240q55 2 103 -49q-37 -59 -68.5 -128t-62.5 -149q-33 -86 -52.5 -159.5t-27.5 -133.5q-8 -74 -12 -130t-6 -95q-2 -193 43 -283q61 -121 116 -133q27 -8 47.5 -12t36.5 -6q76 0 195 57q135 63 135 127v479q0 23 20 31q8 8 74 15q84 0 90 -46v-479 q0 -76 105 -125q127 -57 229 -59h-14q100 14 133 37q41 25 88 114q14 25 21.5 57t9.5 70q2 16 2 58v100v76q-2 6 -6.5 45t-14.5 111q-18 145 -82 294l-127 267q0 8 45 35q4 4 62 14q86 0 188 -270q43 -113 68.5 -202t32.5 -155q8 -74 12 -129t4 -94q0 -166 -68 -328 q-86 -197 -229 -213q-37 -4 -66.5 -8t-54.5 -6q-106 0 -233 51q-143 63 -191 146q-10 -39 -153 -117q-135 -78 -295 -78h-39q-367 47 -367 555z" />
<glyph unicode="&#x3a9;&#x313;&#x300;" horiz-adv-x="2508" d="M0 1325q8 82 98 82q61 0 97 -72q18 -35 18 -88v-26q0 -16 -2 -39q-4 -23 -13 -45l-18 -43q-12 -23 -37 -33l-32 -12q-27 -10 -35 -11q-37 4 -45 17q-10 25 -11 37q12 -4 56 28q23 23 37 39l24 29q12 16 -35 59q-4 6 -61 33q-41 14 -41 45zM317 1337q6 74 101 74 q55 -2 63 -43l101 -352l-50 -15l-206 302q-11 18 -9 34zM690 555v53q0 242 131 553q94 238 176 242q57 2 105 -49q-37 -61 -69 -130t-62 -147q-33 -88 -52.5 -160.5t-27.5 -134.5q-8 -72 -12.5 -128t-6.5 -95q-2 -193 43 -285q61 -119 117 -133q27 -8 47.5 -12t36.5 -6 q76 0 195 57q135 63 135 127v479q0 25 18 31q10 8 76 14q84 0 90 -45v-479q0 -74 105 -123q127 -59 229 -61h-14q100 14 133 39q41 25 88 112q14 25 21.5 58t9.5 71q2 14 2 56v102v74q-2 6 -7.5 46t-13.5 110q-18 145 -82 296q-4 6 -127 267q0 8 43 35q4 4 64 14 q86 0 188 -273q43 -111 67.5 -199.5t33.5 -154.5q8 -74 12 -130t4 -93q0 -166 -70 -328q-84 -197 -227 -215l-67 -7q-30 -3 -54 -5q-106 0 -233 51q-143 61 -191 146q-10 -39 -153 -119q-135 -76 -295 -76h-39q-367 47 -367 555z" />
<glyph unicode="&#x3a9;&#x314;&#x300;" horiz-adv-x="2539" d="M0 1247q0 102 66 142q27 18 51 18q88 0 98 -82q0 -35 -39 -45q-45 -16 -65 -33q-45 -43 -33 -58l26 -32l33 -37q23 -23 58 -28q0 -14 -11 -37q-8 -12 -49 -17q-6 0 -31 11l-32 12q-25 10 -35 33q-25 47 -33 88q-2 10 -2 26t-2 39zM326 1337q6 74 100 74q51 -2 63 -43 l101 -352l-51 -15l-207 302q-8 18 -6 34zM723 555v53q0 242 129 555q96 236 178 240q55 2 105 -49q-37 -59 -69 -128t-62 -149q-33 -86 -52.5 -159.5t-27.5 -133.5q-10 -74 -14 -130l-5 -95q-2 -193 43 -283q59 -121 117 -133q27 -8 47.5 -12t34.5 -6q76 0 196 57 q135 63 136 127v479q0 23 18 31q10 8 74 15q86 0 90 -46v-479q0 -76 106 -125q127 -57 230 -59h-15q98 14 134 37q41 25 86 114q14 25 22 57t10 70q2 16 2 58v100v76q-2 6 -7 45t-15 111q-16 145 -80 294l-129 267q0 8 45 35q4 4 61 14q86 0 191 -270q41 -113 66.5 -202 t33.5 -155l10.5 -129t4.5 -94q0 -166 -68 -328q-84 -197 -227 -213q-37 -4 -67 -8t-56 -6q-104 0 -232 51q-143 63 -190 146q-12 -39 -154 -117q-135 -78 -295 -78h-38q-367 47 -367 555z" />
<glyph unicode="&#x3a9;&#x313;&#x301;" horiz-adv-x="2392" d="M0 1325q8 82 98 82q63 0 99 -72q16 -35 16 -88v-26q0 -16 -2 -39q-4 -23 -12.5 -45.5t-18.5 -42.5q-10 -23 -35 -33l-32 -12q-27 -10 -35 -11q-39 4 -45 17q-10 25 -10 37q12 -4 55 28l35 39l24 29q14 16 -33 59q-6 6 -63 33q-41 14 -41 45zM299 1016l104 352 q10 41 62 43q94 0 100 -74q2 -20 -6 -34l-207 -302zM573 555v53q0 242 132 555q96 236 178 240q55 2 102 -49q-37 -59 -68.5 -128t-62.5 -149q-33 -86 -52.5 -159.5t-27.5 -133.5l-14 -130q-6 -56 -17 -93q-10 -186 56 -285q61 -121 116 -133q27 -8 47.5 -12t36.5 -6 q76 0 195 57q135 63 135 127v479q0 23 21 31q10 8 73 15q84 0 90 -46v-479q0 -76 105 -125q127 -57 229 -59h-14q100 14 133 37q41 25 88 114q14 25 21.5 57t9.5 70q2 16 2 58v100v76q-2 6 -6 45t-15 111q-18 145 -81 294l-127 267q0 8 45 35q4 4 61 14q86 0 188 -270 q43 -113 69 -202t32 -155q8 -74 12 -129t4 -94q0 -166 -67 -328q-86 -197 -230 -213q-37 -4 -66.5 -8t-54.5 -6q-106 0 -233 51q-143 63 -191 146q-10 -39 -153 -117q-135 -78 -295 -78h-39q-367 47 -367 555z" />
<glyph unicode="&#x3a9;&#x314;&#x301;" horiz-adv-x="2416" d="M0 1247q0 102 66 142q25 18 51 18q88 0 98 -82q0 -35 -39 -45q-47 -16 -65 -33q-45 -43 -34 -58t26 -32l34 -37q25 -23 60 -28q0 -14 -13 -37q-8 -12 -49 -17q-8 0 -33 11l-30 12q-25 10 -35 33q-25 47 -33 88q-2 10 -2 26t-2 39zM319 1016l101 352q10 41 63 43 q94 0 99 -74q2 -20 -7 -34l-206 -302zM598 555v53q0 242 129 555q96 236 178 240q57 2 105 -49q-37 -59 -69 -128t-62 -149q-33 -86 -52.5 -159.5t-27.5 -133.5q-8 -74 -12.5 -130t-6.5 -95q-2 -193 43 -283q61 -121 117 -133q27 -8 47.5 -12t34.5 -6q78 0 197 57 q135 63 135 127v479q0 23 18 31q10 8 74 15q86 0 90 -46v-479q0 -76 106 -125q127 -57 230 -59h-14q98 14 133 37q41 25 88 114q12 25 20 57t10 70q2 16 2 58v100v76q-2 6 -7 45t-15 111q-16 145 -80 294l-129 267q0 8 45 35q4 4 64 14q86 0 188 -270q41 -113 66.5 -202 t33.5 -155q8 -74 12.5 -129t4.5 -94q0 -166 -70 -328q-84 -197 -227 -213q-37 -4 -66.5 -8t-56.5 -6q-104 0 -232 51q-143 63 -190 146q-10 -39 -154 -117q-135 -78 -294 -78h-39q-367 47 -367 555z" />
<glyph unicode="&#x3a9;&#x313;&#x342;" horiz-adv-x="2445" d="M0 1321q51 129 201 135q41 0 131 -53q98 -61 129 -64q49 0 93 30t62 75l37 -66q-18 -53 -75 -90q-63 -39 -117 -39q-39 0 -142 62q-14 6 -33.5 12t-43.5 16q-23 12 -43 13q-111 0 -158 -99zM182 1210q8 61 99 62q37 0 51 -15q12 -4 47 -34q16 -39 16 -109q-2 -6 -2 -18 q0 -10 -2 -27q-4 -8 -12 -20.5t-19 -32.5q-10 -20 -34 -33l-33 -8q-25 -14 -33 -14q-39 6 -47 20q-10 18 -10 33q10 -2 55 30q20 8 49 35q4 6 2 33q0 23 -12 35q-18 18 -72 31q-43 16 -43 32zM627 555v53q0 242 131 555q94 236 178 240q55 2 102 -49q-37 -59 -68.5 -128 t-62.5 -149q-33 -86 -52 -159.5t-28 -133.5q-8 -74 -12 -130t-6 -95q-2 -193 43 -283q61 -121 117 -133q27 -8 47 -12t37 -6q76 0 194 57q135 63 135 127v479q0 23 21 31q8 8 74 15q84 0 90 -46v-479q0 -76 104 -125q127 -57 230 -59h-15q100 14 133 37q41 25 88 114 q14 25 21.5 57t9.5 70q2 16 2 58v100v76q-2 6 -6 45t-14 111q-18 145 -82 294l-127 267q0 8 45 35q4 4 61 14q86 0 189 -270q43 -113 68.5 -202t31.5 -155q8 -74 12 -129t4 -94q0 -166 -67 -328q-86 -197 -230 -213q-37 -4 -66.5 -8t-53.5 -6q-106 0 -234 51 q-143 63 -190 146q-10 -39 -154 -117q-135 -78 -295 -78h-39q-366 47 -366 555z" />
<glyph unicode="&#x3a9;&#x314;&#x342;" horiz-adv-x="2459" d="M0 1321q51 129 199 135q41 0 131 -53q100 -61 131 -64q47 0 92 30t61 75l39 -66q-20 -53 -78 -90q-61 -39 -114 -39q-39 0 -144 62q-14 6 -33.5 12t-43.5 16q-20 12 -43 13q-109 0 -156 -99zM195 1114q0 70 18 109q6 8 47 34q25 18 51 19q49 0 74 -29q12 -8 25 -37 q0 -16 -45 -32q-51 -12 -72 -31q-8 -10 -10 -35q-6 -35 20 -45q14 -6 29 -23q23 -25 57 -30q0 -14 -12 -33q-8 -14 -47 -20q-8 0 -33 14l-33 8q-18 12 -33 33q-12 10 -32 53q-2 10 -2 23q0 12 -2 22zM641 555v53q0 242 131 555q96 236 178 240q55 2 103 -49 q-37 -59 -69 -128t-62 -149q-33 -86 -52.5 -159.5t-27.5 -133.5q-8 -74 -12.5 -130t-6.5 -95q-2 -193 43 -283q61 -121 117 -133q27 -8 47.5 -12t36.5 -6q76 0 195 57q135 63 135 127v479q0 23 20 31q10 8 74 15q84 0 90 -46v-479q0 -76 105 -125q127 -57 229 -59h-14 q100 14 133 37q41 25 88 114q14 25 21 57t9 70q2 16 2 58v100v76q-2 6 -6 45t-14 111q-18 145 -82 294l-127 267q0 8 45 35q4 4 62 14q86 0 188 -270q43 -113 68.5 -202t31.5 -155q8 -74 12.5 -129t4.5 -94q0 -166 -68 -328q-86 -197 -229 -213q-37 -4 -66.5 -8t-54.5 -6 q-106 0 -233 51q-143 63 -191 146q-10 -39 -154 -117q-135 -78 -294 -78h-39q-367 47 -367 555z" />
<glyph unicode="&#x3b1;&#x300;" horiz-adv-x="1245" d="M115 463q-4 211 121 328q119 111 331 114q152 2 226 -55q82 -59 96 -59q6 0 39 18q8 6 22 19l37 36l60 35q8 6 51 6q49 0 57 -63q0 -10 -14 -23q-68 -33 -119 -96q-43 -55 -43 -260q-2 -102 43 -202.5t121 -166.5q8 -6 8 -12q0 -20 -39 -51q-53 -41 -92 -31 q-27 10 -59 59q-16 25 -72 52q-10 6 -41 8q-16 0 -113 -70q-72 -49 -211 -49q-405 0 -409 463zM276 426q8 -156 103 -242q8 -8 22.5 -18t34.5 -19q53 -18 72 -18q305 0 315 356q4 88 -55 172q-76 111 -207 113q-47 0 -135 -33q-51 -20 -80 -55q-64 -80 -70 -256zM301 1337 q6 74 100 74q53 -2 64 -43l100 -352l-49 -15l-207 302q-10 18 -8 34z" />
<glyph unicode="&#x3b5;&#x300;" horiz-adv-x="765" d="M100 213q-2 68 21 123q6 25 51 115q-2 23 -41 106q-31 70 -31 141q0 117 113 170q88 37 217 37h84q53 0 76 -10q43 -23 57 -35q20 -20 25 -59q2 -39 -31 -62q-10 -4 -25 -6q-14 6 -61 33q-43 23 -96 27q-90 0 -119 -9q-66 -16 -96 -88q-10 -35 -13 -65q-2 -45 15 -80 q18 -43 63 -43h281q39 0 43 -49q2 -35 -17 -47q-4 -2 -11 -4t-19 -7h-293q-27 0 -45 -47q-16 -41 -17 -69q0 -82 54 -123q12 -12 43 -27q20 -4 52 -5t81 -3q68 -2 100 14q20 14 34 25l23 18h17q43 0 47 -65q2 -39 -51 -76l-6 -2q-57 -35 -93 -41h-106q-127 0 -215 41 q-107 53 -111 172zM223 1337q6 74 101 74q53 -2 63 -43l100 -352l-49 -15l-207 302q-10 18 -8 34z" />
<glyph unicode="&#x3b7;&#x300;" horiz-adv-x="1087" d="M31 811q49 86 104 92q20 0 76 -31q51 -31 90 -26q27 2 59 10l78 21q90 27 148 26q125 0 219 -35q125 -53 133 -157q2 -20 4 -62.5t6 -101.5q4 -119 6 -265.5t2 -322.5v-264q0 -18 -20 -29q-12 -8 -66 -14q-80 0 -77 43l14 522q2 68 3 147.5t1 174.5v157q0 49 -90 80 q-70 27 -129 27q-51 2 -146 -35q-109 -39 -104 -80q2 -16 4 -43t4 -70q4 -78 5 -176t3 -219l2 -172q0 -8 -22 -20q-10 -2 -72 -4q-31 -2 -59 4q-23 8 -23 24l17 738q4 27 -33 43q-14 8 -28.5 11t-30.5 5q-18 0 -72 -33q0 8 -6 35zM379 1337q6 74 100 74q53 -2 64 -43 l100 -352l-49 -15l-207 302q-10 18 -8 34z" />
<glyph unicode="&#x3b9;&#x300;" horiz-adv-x="512" d="M37 1337q6 74 100 74q53 -2 64 -43l100 -352l-49 -15l-207 302q-10 18 -8 34zM131 852q0 20 31 33q4 0 47 10q29 6 43 6q23 0 39 -16l11 -19q5 -8 9 -18q6 -8 11 -103q2 -27 2 -63v-84v-330q0 -59 4 -80q12 -41 59 -71l26 -21q13 -10 27 -24q0 -45 -67 -72 q-49 -14 -101 -14q-74 -4 -92 149q-4 37 -6 91.5t-2 125.5v103q0 -6 0 18q0 27 2 84q0 57 -2 100t-6 76q-8 20 -16 50z" />
<glyph unicode="&#x3bf;&#x300;" horiz-adv-x="1093" d="M82 442q-2 195 137 326q137 131 336 135q195 4 340 -121q147 -129 152 -321q0 -197 -142 -330q-137 -133 -334 -133t-340 121q-149 126 -149 323zM215 453q-2 -131 109 -236q102 -96 237 -96t236 98q100 102 104 238q2 127 -104 229q-109 100 -240 105q-131 2 -235 -103 q-103 -100 -107 -235zM350 1337q6 74 101 74q53 -2 63 -43l100 -352l-49 -15l-207 302q-10 18 -8 34z" />
<glyph unicode="&#x3c5;&#x300;" horiz-adv-x="1009" d="M35 803q0 27 22 55q31 37 99 37q41 0 86 -45q14 -14 34 -258q10 -139 16.5 -215t10.5 -90q20 -127 74 -148q47 -18 84 -20q6 -2 16 -2q14 0 33 -2q113 -6 162 63q37 45 53 176q12 78 18 258q2 66 6.5 109t8.5 63q23 109 104 113q47 0 83 -26.5t38 -71.5q2 -31 -45 -56 q-25 -14 -35 -43q-12 -47 -39 -299q-10 -88 -23.5 -152.5t-31.5 -103.5q-63 -139 -199 -139h-204q-125 0 -191 131q-35 76 -59 242l-33 256q-10 78 -43 104q-41 37 -43 47q-2 7 -2 17zM307 1337q6 74 101 74q53 -2 63 -43l100 -352l-49 -15l-207 302q-10 18 -8 34z" />
<glyph unicode="&#x3c9;&#x300;" horiz-adv-x="1689" d="M86 401q0 209 102 332q111 129 318 135q20 0 41.5 -2t48.5 -6q35 -6 35 -31q2 -23 -51 -61q-158 -49 -234 -113q-102 -88 -92 -229v-66q8 -92 80 -182q47 -57 112 -63q10 -2 22.5 -4t29.5 -5q68 0 120 25q31 6 95 43q55 61 55 277v28q0 8 20 15q8 0 20.5 1t31.5 3 q82 0 82 -19q0 -14 -2 -22v-21q0 -190 51 -252q16 -8 84 -45q59 -33 125 -33q20 0 39.5 1.5t35.5 3.5q51 6 103 67q51 63 61 109q4 12 8.5 40.5t8.5 71.5q0 20 2 27q0 156 -88 233q-63 55 -238 109q-51 35 -51 61q0 23 47 33q29 6 78 6q203 0 313 -137q104 -125 105 -330 q0 -240 -109 -342q-109 -96 -346 -98q-59 0 -145 43l-62 37l-92 53l-63 -37q-42 -25 -103 -57q-37 -18 -81 -27.5t-93 -11.5q-422 -4 -424 440zM598 1337q6 74 100 74q53 -2 64 -43l100 -352l-49 -15l-207 302q-10 18 -8 34z" />
<glyph unicode="&#x3b1;&#x313;&#x345;" horiz-adv-x="1245" d="M115 463q-4 211 121 328q119 111 331 114q152 2 226 -55q82 -59 96 -59q6 0 39 18q8 6 22 19l37 36l60 35q8 6 51 6q49 0 57 -63q0 -10 -14 -23q-68 -33 -119 -96q-43 -55 -43 -260q-2 -102 43 -202.5t121 -166.5q8 -6 8 -12q0 -20 -39 -51q-53 -41 -92 -31 q-27 10 -59 59q-16 25 -72 52q-10 6 -41 8q-16 0 -113 -70q-72 -49 -211 -49q-405 0 -409 463zM276 426q8 -156 103 -242q8 -8 22.5 -18t34.5 -19q53 -18 72 -18q305 0 315 356q4 88 -55 172q-76 111 -207 113q-47 0 -135 -33q-51 -20 -80 -55q-64 -80 -70 -256zM481 1325 q6 82 97 82q63 0 98 -72q16 -35 16 -88v-26q0 -16 -2 -39q-4 -23 -12 -45.5t-19 -42.5q-10 -23 -34 -33l-33 -12q-27 -10 -35 -11q-39 4 -45 17q-10 25 -10 37q10 -4 55 28l36 39q15 16 23 29q14 16 -32 59q-6 6 -64 33q-39 14 -39 45zM543 -117q0 25 67 25q61 0 62 -25 v-209q47 -10 55 -16q25 -12 41 -39q2 -2 2 -4q0 -6 -20 -14q-10 0 -26.5 -3.5t-41.5 -7.5q-16 0 -36.5 3.5l-43.5 7.5q-14 4 -28.5 10t-30.5 16v256z" />
<glyph unicode="&#x3b1;&#x314;&#x345;" horiz-adv-x="1245" d="M115 463q-4 211 121 328q119 111 331 114q152 2 226 -55q82 -59 96 -59q6 0 39 18q8 6 22 19l37 36l60 35q8 6 51 6q49 0 57 -63q0 -10 -14 -23q-68 -33 -119 -96q-43 -55 -43 -260q-2 -102 43 -202.5t121 -166.5q8 -6 8 -12q0 -20 -39 -51q-53 -41 -92 -31 q-27 10 -59 59q-16 25 -72 52q-10 6 -41 8q-16 0 -113 -70q-72 -49 -211 -49q-405 0 -409 463zM276 426q8 -156 103 -242q8 -8 22.5 -18t34.5 -19q53 -18 72 -18q305 0 315 356q4 88 -55 172q-76 111 -207 113q-47 0 -135 -33q-51 -20 -80 -55q-64 -80 -70 -256zM438 1247 q-2 102 64 142q27 18 53 18q86 0 96 -82q0 -35 -39 -45q-49 -16 -63 -33q-47 -43 -33 -59q10 -14 26 -31l33 -37q23 -23 56 -28q0 -14 -10 -37q-10 -12 -48 -17q-8 0 -32 11l-33 12q-23 10 -35 33q-23 41 -31 88q-2 10 -2 26t-2 39zM543 -117q0 25 67 25q61 0 62 -25v-209 q47 -10 55 -16q25 -12 41 -39q2 -2 2 -4q0 -6 -20 -14q-10 0 -26.5 -3.5t-41.5 -7.5q-16 0 -36.5 3.5l-43.5 7.5q-14 4 -28.5 10t-30.5 16v256z" />
<glyph unicode="&#x3b1;&#x313;&#x300;&#x345;" horiz-adv-x="1245" d="M115 463q-4 211 121 328q119 111 331 114q152 2 226 -55q82 -59 96 -59q6 0 39 18q8 6 22 19l37 36l60 35q8 6 51 6q49 0 57 -63q0 -10 -14 -23q-68 -33 -119 -96q-43 -55 -43 -260q-2 -102 43 -202.5t121 -166.5q8 -6 8 -12q0 -20 -39 -51q-53 -41 -92 -31 q-27 10 -59 59q-16 25 -72 52q-10 6 -41 8q-16 0 -113 -70q-72 -49 -211 -49q-405 0 -409 463zM240 1325q6 82 98 82q61 0 96 -72q18 -35 19 -88v-26q0 -16 -2 -39q-4 -23 -13.5 -45.5t-19.5 -42.5q-10 -23 -35 -33l-33 -12q-27 -10 -35 -11q-37 4 -45 17q-10 25 -10 37 q12 -4 55 28q23 23 37.5 39.5t22.5 28.5q14 16 -33 59q-4 6 -61 33q-41 14 -41 45zM276 426q8 -156 103 -242q8 -8 22.5 -18t34.5 -19q53 -18 72 -18q305 0 315 356q4 88 -55 172q-76 111 -207 113q-47 0 -135 -33q-51 -20 -80 -55q-64 -80 -70 -256zM543 -117q0 25 67 25 q61 0 62 -25v-209q47 -10 55 -16q25 -12 41 -39q2 -2 2 -4q0 -6 -20 -14q-10 0 -26.5 -3.5t-41.5 -7.5q-16 0 -36.5 3.5l-43.5 7.5q-14 4 -28.5 10t-30.5 16v256zM557 1337q6 74 100 74q53 -2 64 -43l100 -352l-49 -15l-207 302q-10 18 -8 34z" />
<glyph unicode="&#x3b1;&#x314;&#x300;&#x345;" horiz-adv-x="1245" d="M115 463q-4 211 121 328q119 111 331 114q152 2 226 -55q82 -59 96 -59q6 0 39 18q8 6 22 19l37 36l60 35q8 6 51 6q49 0 57 -63q0 -10 -14 -23q-68 -33 -119 -96q-43 -55 -43 -260q-2 -102 43 -202.5t121 -166.5q8 -6 8 -12q0 -20 -39 -51q-53 -41 -92 -31 q-27 10 -59 59q-16 25 -72 52q-10 6 -41 8q-16 0 -113 -70q-72 -49 -211 -49q-405 0 -409 463zM231 1247q0 102 66 142q27 18 51 18q88 0 98 -82q0 -35 -38 -45q-45 -16 -66 -33q-45 -43 -33 -58l27 -32l33 -37q23 -23 57 -28q0 -14 -10 -37q-8 -12 -49 -17q-6 0 -31 11 l-33 12q-25 10 -35 33q-25 47 -32 88q-2 10 -3 26q0 16 -2 39zM276 426q8 -156 103 -242q8 -8 22.5 -18t34.5 -19q53 -18 72 -18q305 0 315 356q4 88 -55 172q-76 111 -207 113q-47 0 -135 -33q-51 -20 -80 -55q-64 -80 -70 -256zM543 -117q0 25 67 25q61 0 62 -25v-209 q47 -10 55 -16q25 -12 41 -39q2 -2 2 -4q0 -6 -20 -14q-10 0 -26.5 -3.5t-41.5 -7.5q-16 0 -36.5 3.5l-43.5 7.5q-14 4 -28.5 10t-30.5 16v256zM557 1337q6 74 100 74q51 -2 64 -43l100 -352l-51 -15l-207 302q-8 18 -6 34z" />
<glyph unicode="&#x3b1;&#x313;&#x301;&#x345;" horiz-adv-x="1245" d="M115 463q-4 211 121 328q119 111 331 114q152 2 226 -55q82 -59 96 -59q6 0 39 18q8 6 22 19l37 36l60 35q8 6 51 6q49 0 57 -63q0 -10 -14 -23q-68 -33 -119 -96q-43 -55 -43 -260q-2 -102 43 -202.5t121 -166.5q8 -6 8 -12q0 -20 -39 -51q-53 -41 -92 -31 q-27 10 -59 59q-16 25 -72 52q-10 6 -41 8q-16 0 -113 -70q-72 -49 -211 -49q-405 0 -409 463zM276 426q8 -156 103 -242q8 -8 22.5 -18t34.5 -19q53 -18 72 -18q305 0 315 356q4 88 -55 172q-76 111 -207 113q-47 0 -135 -33q-51 -20 -80 -55q-64 -80 -70 -256zM332 1325 q8 82 98 82q61 0 96 -72q18 -35 19 -88v-26q0 -16 -2 -39q-4 -23 -12.5 -45.5t-18.5 -42.5q-12 -23 -35 -33l-33 -12q-27 -10 -34 -11q-39 4 -48 17q-10 25 -10 37q12 -4 58 28l34 39l25 29q12 16 -33 59q-6 6 -63 33q-41 14 -41 45zM543 -117q0 25 67 25q61 0 62 -25v-209 q47 -10 55 -16q25 -12 41 -39q2 -2 2 -4q0 -6 -20 -14q-10 0 -26.5 -3.5t-41.5 -7.5q-16 0 -36.5 3.5l-43.5 7.5q-14 4 -28.5 10t-30.5 16v256zM631 1016l104 352q10 41 60 43q96 0 102 -74q2 -20 -6 -34l-207 -302z" />
<glyph unicode="&#x3b1;&#x314;&#x301;&#x345;" horiz-adv-x="1245" d="M115 463q-4 211 121 328q119 111 331 114q152 2 226 -55q82 -59 96 -59q6 0 39 18q8 6 22 19l37 36l60 35q8 6 51 6q49 0 57 -63q0 -10 -14 -23q-68 -33 -119 -96q-43 -55 -43 -260q-2 -102 43 -202.5t121 -166.5q8 -6 8 -12q0 -20 -39 -51q-53 -41 -92 -31 q-27 10 -59 59q-16 25 -72 52q-10 6 -41 8q-16 0 -113 -70q-72 -49 -211 -49q-405 0 -409 463zM276 426q8 -156 103 -242q8 -8 22.5 -18t34.5 -19q53 -18 72 -18q305 0 315 356q4 88 -55 172q-76 111 -207 113q-47 0 -135 -33q-51 -20 -80 -55q-64 -80 -70 -256zM358 1247 q0 102 66 142q25 18 49 18q90 0 100 -82q0 -35 -38 -45q-47 -16 -66 -33q-45 -43 -34 -58t25.5 -31.5t35.5 -37.5q23 -23 59 -28q0 -14 -12 -37q-8 -12 -49 -17q-8 0 -33 11l-31 12q-25 10 -35 33q-25 47 -33 88q-2 10 -2 26t-2 39zM543 -117q0 25 67 25q61 0 62 -25v-209 q47 -10 55 -16q25 -12 41 -39q2 -2 2 -4q0 -6 -20 -14q-10 0 -26.5 -3.5t-41.5 -7.5q-16 0 -36.5 3.5l-43.5 7.5q-14 4 -28.5 10t-30.5 16v256zM678 1016l100 352q10 41 64 43q94 0 98 -74q2 -20 -6 -34l-207 -302z" />
<glyph unicode="&#x3b1;&#x313;&#x342;&#x345;" horiz-adv-x="1245" d="M115 463q-4 211 121 328q119 111 331 114q152 2 226 -55q82 -59 96 -59q6 0 39 18q8 6 22 19l37 36l60 35q8 6 51 6q49 0 57 -63q0 -10 -14 -23q-68 -33 -119 -96q-43 -55 -43 -260q-2 -102 43 -202.5t121 -166.5q8 -6 8 -12q0 -20 -39 -51q-53 -41 -92 -31 q-27 10 -59 59q-16 25 -72 52q-10 6 -41 8q-16 0 -113 -70q-72 -49 -211 -49q-405 0 -409 463zM264 1321q51 129 199 135q41 0 131 -53q98 -61 129 -64q49 0 93 30t63 75l36 -66q-18 -53 -75 -90q-61 -39 -117 -39q-39 0 -141 62q-14 6 -34 12t-44 16q-20 12 -43 13 q-111 0 -156 -99zM276 426q8 -156 103 -242q8 -8 22.5 -18t34.5 -19q53 -18 72 -18q305 0 315 356q4 88 -55 172q-76 111 -207 113q-47 0 -135 -33q-51 -20 -80 -55q-64 -80 -70 -256zM444 1210q8 61 99 62q37 0 51 -15q14 -4 47 -34q16 -39 16 -109v-18q0 -10 -2 -27 q-4 -8 -13 -20.5t-19 -32.5q-8 -20 -35 -33l-33 -8q-25 -14 -33 -14q-37 6 -45 20q-12 18 -12 33q12 -2 55 30q20 8 49 35q4 6 2 33q0 23 -12 35q-18 18 -72 31q-43 16 -43 32zM543 -117q0 25 67 25q61 0 62 -25v-209q47 -10 55 -16q25 -12 41 -39q2 -2 2 -4q0 -6 -20 -14 q-10 0 -26.5 -3.5t-41.5 -7.5q-16 0 -36.5 3.5l-43.5 7.5q-14 4 -28.5 10t-30.5 16v256z" />
<glyph unicode="&#x3b1;&#x314;&#x342;&#x345;" horiz-adv-x="1245" d="M115 463q-4 211 121 328q119 111 331 114q152 2 226 -55q82 -59 96 -59q6 0 39 18q8 6 22 19l37 36l60 35q8 6 51 6q49 0 57 -63q0 -10 -14 -23q-68 -33 -119 -96q-43 -55 -43 -260q-2 -102 43 -202.5t121 -166.5q8 -6 8 -12q0 -20 -39 -51q-53 -41 -92 -31 q-27 10 -59 59q-16 25 -72 52q-10 6 -41 8q-16 0 -113 -70q-72 -49 -211 -49q-405 0 -409 463zM264 1321q49 129 199 135q39 0 131 -53q98 -61 129 -64q49 0 93 30t63 75l39 -66q-20 -53 -80 -90q-59 -39 -115 -39q-39 0 -141 62q-14 6 -34 12t-46 16q-20 12 -41 13 q-111 0 -158 -99zM276 426q8 -156 103 -242q8 -8 22.5 -18t34.5 -19q53 -18 72 -18q305 0 315 356q4 88 -55 172q-76 111 -207 113q-47 0 -135 -33q-51 -20 -80 -55q-64 -80 -70 -256zM459 1114q0 70 16 109q6 8 47 34q25 18 53 19q49 0 72 -29q12 -8 25 -37q0 -16 -43 -32 q-51 -12 -72 -31q-10 -10 -12 -35q-6 -35 22 -45q14 -6 29 -23q20 -25 55 -30q0 -14 -12 -33q-6 -14 -45 -20q-8 0 -33 14l-33 8q-20 12 -34 33q-12 10 -31 53q-2 10 -2 23q0 12 -2 22zM543 -117q0 25 67 25q61 0 62 -25v-209q47 -10 55 -16q25 -12 41 -39q2 -2 2 -4 q0 -6 -20 -14q-10 0 -26.5 -3.5t-41.5 -7.5q-16 0 -36.5 3.5l-43.5 7.5q-14 4 -28.5 10t-30.5 16v256z" />
<glyph unicode="&#x391;&#x313;&#x345;" horiz-adv-x="1812" d="M86 0l647 1393h37l602 -1393h-205l-192 506h-473l-213 -506h-203zM180 1325q8 82 99 82q61 0 96 -72q16 -35 16 -88v-26v-19q0 -10 -2 -20q-4 -23 -12 -45.5t-19 -42.5q-10 -23 -32 -33l-33 -12q-27 -10 -37 -11q-37 4 -45 17q-10 29 -10 37q12 -4 55 28q23 23 37 39 l24 29q14 16 -32 59q-8 8 -66 33q-39 16 -39 45zM575 657h332l-153 441zM1432 852q0 20 30 33q4 0 47 10q29 6 41 6q25 0 39 -16q6 -10 12.5 -18.5t10.5 -18.5q6 -8 10 -103v-63v-84v-330q0 -59 6 -80q12 -41 60 -71l24 -21l29 -24q0 -45 -68 -72q-51 -14 -100 -14 q-74 -4 -92 149q-4 37 -6 91.5t-2 125.5v103q0 -6 0 18q0 27 2 84q0 57 -2.5 100t-6.5 76q-8 20 -16 50z" />
<glyph unicode="&#x391;&#x314;&#x345;" horiz-adv-x="1812" d="M86 0l647 1393h37l602 -1393h-205l-192 506h-473l-213 -506h-203zM135 1247q-2 102 64 142q27 18 53 18q88 0 96 -82q0 -35 -39 -45q-47 -14 -63 -33q-49 -43 -33 -59q8 -14 24.5 -30.5t34.5 -37.5q25 -23 56 -28q0 -14 -11 -37q-8 -12 -47 -17q-6 0 -32 11l-33 12 q-23 10 -35 33q-10 20 -18.5 41.5t-12.5 46.5q-2 6 -2 26v19q0 10 -2 20zM575 657h332l-153 441zM1432 852q0 20 30 33q4 0 47 10q29 6 41 6q25 0 39 -16q6 -10 12.5 -18.5t10.5 -18.5q6 -8 10 -103v-63v-84v-330q0 -59 6 -80q12 -41 60 -71l24 -21l29 -24q0 -45 -68 -72 q-51 -14 -100 -14q-74 -4 -92 149q-4 37 -6 91.5t-2 125.5v103q0 -6 0 18q0 27 2 84q0 57 -2.5 100t-6.5 76q-8 20 -16 50z" />
<glyph unicode="&#x391;&#x313;&#x300;&#x345;" horiz-adv-x="1988" d="M0 1325q8 82 100 82q61 0 97 -72q18 -35 18 -88v-26v-19q0 -10 -2 -20q-4 -23 -13.5 -45.5t-19.5 -42.5q-10 -23 -35 -33l-32 -12q-25 -10 -35 -11q-37 4 -45 17q-10 29 -10 37q12 -4 55 28q23 23 37 39.5t22 28.5q16 16 -33 59q-6 8 -61 33q-43 16 -43 45zM260 0 l649 1393h37l602 -1393h-205l-192 506h-473l-213 -506h-205zM319 1337q6 74 101 74q55 -2 63 -43l101 -352l-49 -15l-207 302q-11 20 -9 34zM752 657h331l-153 441zM1608 852q0 20 30 33q4 0 48 10q29 6 40 6q25 0 39 -16q6 -10 12.5 -18.5t10.5 -18.5q4 -8 8 -103 q2 -27 2 -63v-84v-330q0 -59 6 -80q12 -41 60 -71l24 -21l29 -24q0 -45 -68 -72q-51 -14 -100 -14q-74 -4 -92 149q-4 37 -6 91.5t-2 125.5v103q0 -6 0 18q0 27 2 84q0 57 -2 100t-7 76q-8 20 -16 50z" />
<glyph unicode="&#x391;&#x314;&#x300;&#x345;" horiz-adv-x="1988" d="M0 1247q0 102 68 142q27 18 49 18q92 0 98 -82q0 -35 -39 -45q-23 -8 -39 -16.5t-26 -16.5q-43 -43 -33 -59l12 -15.5t12 -17.5l35 -35q25 -23 60 -28q0 -14 -13 -37q-10 -12 -49 -17q-6 0 -33 11l-30 12q-25 10 -33 33q-25 43 -35 88q-2 6 -2 26v19q0 10 -2 20zM262 0 l649 1393h37l600 -1393h-205l-192 506h-471l-215 -506h-203zM326 1337q6 74 100 74q51 -2 63 -43l101 -352l-49 -15l-207 302q-10 20 -8 34zM754 657h331l-153 441zM1608 852q0 20 30 33q4 0 48 10q29 6 40 6q25 0 39 -16q6 -10 12.5 -18.5t10.5 -18.5q4 -8 8 -103 q2 -27 2 -63v-84v-330q0 -59 6 -80q12 -41 60 -71l24 -21l29 -24q0 -45 -68 -72q-51 -14 -100 -14q-74 -4 -92 149q-4 37 -6 91.5t-2 125.5v103q0 -6 0 18q0 27 2 84q0 57 -2 100t-7 76q-8 20 -16 50z" />
<glyph unicode="&#x391;&#x313;&#x301;&#x345;" horiz-adv-x="1964" d="M0 1325q8 82 98 82q61 0 97 -72q18 -35 18 -88v-26v-19q0 -10 -2 -20q-4 -23 -12.5 -45.5t-18.5 -42.5q-12 -23 -35 -33l-34 -12q-25 -10 -35 -11q-37 4 -45 17q-10 29 -11 37q12 -4 56 28q23 23 37 39l24 29q14 16 -33 59q-8 8 -63 33q-41 16 -41 45zM236 0l649 1393h37 l602 -1393h-205l-193 506h-473l-213 -506h-204zM299 1016l102 352q12 41 62 43q96 0 100 -74q4 -18 -4 -34l-207 -302zM727 657h332l-154 441zM1583 852q0 20 31 33q4 0 47 10q29 6 41 6q25 0 39 -16q6 -10 12 -18.5t10 -18.5q4 -8 9 -103q2 -27 2 -63v-84v-330q0 -59 6 -80 q12 -41 59 -71l25 -21l28 -24q0 -45 -67 -72q-51 -14 -101 -14q-74 -4 -92 149q-4 37 -6 91.5t-2 125.5v103q0 -6 0 18q0 27 2 84q0 57 -2 100t-6 76q-8 20 -16 50z" />
<glyph unicode="&#x391;&#x314;&#x301;&#x345;" horiz-adv-x="1916" d="M0 1208v19v20q0 102 63 142q29 18 52 18q90 0 98 -82q0 -35 -39 -45q-23 -8 -39 -16.5t-26 -16.5q-45 -43 -33 -59l12 -15.5t12 -17.5l37 -35q23 -23 58 -28q0 -14 -13 -37q-10 -12 -47 -17q-6 0 -35 11l-30 12q-25 10 -35 33q-23 43 -33 88q-2 6 -2 26zM188 0l650 1393 h36l603 -1393h-205l-193 506h-473l-213 -506h-205zM317 1016l101 352q12 41 65 43q94 0 97 -74q4 -18 -7 -34l-204 -302zM680 657h332l-154 441zM1536 852q0 20 31 33q4 0 47 10q29 6 41 6q25 0 39 -16q6 -10 12 -18.5t10 -18.5q4 -8 8 -103q2 -27 2 -63v-84v-330 q0 -59 7 -80q12 -41 59 -71l25 -21l28 -24q0 -45 -67 -72q-51 -14 -101 -14q-74 -4 -92 149q-4 37 -6 91.5t-2 125.5v103q0 -6 0 18q0 27 2 84q0 57 -2 100t-6 76q-8 20 -17 50z" />
<glyph unicode="&#x391;&#x313;&#x342;&#x345;" horiz-adv-x="1878" d="M0 1321q51 129 199 135q43 0 133 -53q98 -61 129 -64q47 0 92 30t63 75l37 -66q-18 -53 -78 -90q-61 -39 -114 -39q-41 0 -142 62q-16 6 -34.5 12t-44.5 16q-18 12 -43 13q-109 0 -156 -99zM150 0l649 1393h37l602 -1393h-205l-193 506h-473l-213 -506h-204zM182 1210 q6 61 97 62q39 0 53 -15q14 -2 45 -34q18 -37 18 -109q-2 -4 -2 -18v-13q0 -6 -2 -14q-4 -8 -13 -20.5t-18 -32.5q-10 -20 -34 -33l-33 -8q-25 -14 -33 -14q-39 6 -47 20q-12 20 -12 33q10 -2 57 30q18 8 47 35q8 8 4 33t-12 35q-20 18 -72 31q-43 16 -43 32zM641 657h332 l-154 441zM1497 852q0 20 31 33q4 0 47 10q29 6 41 6q25 0 39 -16q6 -10 12 -18.5t10 -18.5q4 -8 9 -103q2 -27 2 -63v-84v-330q0 -59 6 -80q12 -41 59 -71l25 -21l28 -24q0 -45 -67 -72q-51 -14 -101 -14q-74 -4 -92 149q-4 37 -6 91.5t-2 125.5v103q0 -6 0 18q0 27 2 84 q0 57 -2 100t-6 76q-8 20 -16 50z" />
<glyph unicode="&#x391;&#x314;&#x342;&#x345;" horiz-adv-x="1937" d="M0 1321q49 129 199 135q43 0 133 -53q96 -61 129 -64q47 0 91 30t62 75l39 -66q-20 -53 -78 -90q-61 -39 -114 -39q-41 0 -142 62q-16 6 -35.5 12t-43.5 16q-20 12 -43 13q-111 0 -156 -99zM195 1114q0 72 18 109q6 10 45 34q29 18 53 19q51 0 74 -29q10 -8 25 -37 q0 -16 -45 -32q-51 -12 -72 -31q-6 -8 -10 -35q-6 -35 20 -45q14 -6 31 -23q18 -25 55 -30q0 -12 -12 -33q-8 -14 -45 -20q-8 0 -35 14l-33 8q-18 12 -35 33q-10 6 -30 53q-2 6 -2 23q0 16 -2 22zM211 0l649 1393h37l600 -1393h-205l-192 506h-471l-215 -506h-203zM702 657 h332l-153 441zM1556 852q0 20 31 33q4 0 47 10q29 6 41 6q25 0 39 -16q6 -10 12.5 -18.5t10.5 -18.5q4 -8 8 -103q2 -27 2 -63v-84v-330q0 -59 6 -80q12 -41 59 -71l25 -21l29 -24q0 -45 -68 -72q-51 -14 -100 -14q-74 -4 -92 149q-4 37 -6.5 91.5t-2.5 125.5v103q0 -6 0 18 q0 27 2 84q0 57 -2 100t-6 76q-8 20 -16 50z" />
<glyph unicode="&#x3b7;&#x313;&#x345;" horiz-adv-x="1087" d="M31 811q49 86 104 92q20 0 76 -31q51 -31 90 -26q27 2 59 10l78 21q90 27 148 26q125 0 219 -35q125 -53 133 -157q2 -20 4 -62.5t6 -101.5q4 -119 6 -265.5t2 -322.5v-264q0 -18 -20 -29q-12 -8 -66 -14q-80 0 -77 43l14 522q2 68 3 147.5t1 174.5v157q0 49 -90 80 q-70 27 -129 27q-51 2 -146 -35q-109 -39 -104 -80q2 -16 4 -43t4 -70q4 -78 5 -176t3 -219l2 -172q0 -8 -22 -20q-10 -2 -72 -4q-31 -2 -59 4q-23 8 -23 24l17 738q4 27 -33 43q-14 8 -28.5 11t-30.5 5q-18 0 -72 -33q0 8 -6 35zM457 -117q0 25 67 25q61 0 62 -25v-209 q47 -10 55 -16q25 -12 41 -39q2 -2 2 -4q0 -6 -20 -14q-10 0 -26.5 -3.5t-41.5 -7.5q-16 0 -36.5 3.5l-43.5 7.5q-14 4 -28.5 10t-30.5 16v256zM459 1317q6 82 96 82q63 0 98 -72q16 -35 17 -88v-27q0 -16 -2 -38q-4 -23 -12.5 -45.5t-18.5 -43.5q-10 -23 -35 -32l-33 -13 q-27 -10 -34 -10q-39 4 -46 17q-10 25 -10 36q10 -4 56 29l35 39q15 16 24 29q14 16 -33 59q-6 6 -63 33q-39 14 -39 45z" />
<glyph unicode="&#x3b7;&#x314;&#x345;" horiz-adv-x="1087" d="M31 811q49 86 104 92q20 0 76 -31q51 -31 90 -26q27 2 59 10l78 21q90 27 148 26q125 0 219 -35q125 -53 133 -157q2 -20 4 -62.5t6 -101.5q4 -119 6 -265.5t2 -322.5v-264q0 -18 -20 -29q-12 -8 -66 -14q-80 0 -77 43l14 522q2 68 3 147.5t1 174.5v157q0 49 -90 80 q-70 27 -129 27q-51 2 -146 -35q-109 -39 -104 -80q2 -16 4 -43t4 -70q4 -78 5 -176t3 -219l2 -172q0 -8 -22 -20q-10 -2 -72 -4q-31 -2 -59 4q-23 8 -23 24l17 738q4 27 -33 43q-14 8 -28.5 11t-30.5 5q-18 0 -72 -33q0 8 -6 35zM457 -117q0 25 67 25q61 0 62 -25v-209 q47 -10 55 -16q25 -12 41 -39q2 -2 2 -4q0 -6 -20 -14q-10 0 -26.5 -3.5t-41.5 -7.5q-16 0 -36.5 3.5l-43.5 7.5q-14 4 -28.5 10t-30.5 16v256zM459 1247q-2 102 63 142q27 18 53 18q86 0 97 -82q0 -35 -39 -45q-49 -16 -64 -33q-47 -43 -32 -59q10 -14 25 -31l34 -37 q23 -23 55 -28q0 -14 -10 -37q-10 -12 -47 -17q-8 0 -33 11l-33 12q-23 10 -34 33q-23 41 -31 88q-2 10 -2 26t-2 39z" />
<glyph unicode="&#x3b7;&#x313;&#x300;&#x345;" horiz-adv-x="1087" d="M31 811q49 86 104 92q20 0 76 -31q51 -31 90 -26q27 2 59 10l78 21q90 27 148 26q125 0 219 -35q125 -53 133 -157q2 -20 4 -62.5t6 -101.5q4 -119 6 -265.5t2 -322.5v-264q0 -18 -20 -29q-12 -8 -66 -14q-80 0 -77 43l14 522q2 68 3 147.5t1 174.5v157q0 49 -90 80 q-70 27 -129 27q-51 2 -146 -35q-109 -39 -104 -80q2 -16 4 -43t4 -70q4 -78 5 -176t3 -219l2 -172q0 -8 -22 -20q-10 -2 -72 -4q-31 -2 -59 4q-23 8 -23 24l17 738q4 27 -33 43q-14 8 -28.5 11t-30.5 5q-18 0 -72 -33q0 8 -6 35zM332 1325q6 82 98 82q61 0 96 -72 q18 -35 19 -88v-26q0 -16 -2 -39q-4 -23 -13.5 -45.5t-19.5 -42.5q-10 -23 -35 -33l-33 -12q-27 -10 -34 -11q-37 4 -46 17q-10 25 -10 37q12 -4 56 28q23 23 37 39.5t22 28.5q14 16 -33 59q-4 6 -61 33q-41 14 -41 45zM457 -117q0 25 67 25q61 0 62 -25v-209q47 -10 55 -16 q25 -12 41 -39q2 -2 2 -4q0 -6 -20 -14q-10 0 -26.5 -3.5t-41.5 -7.5q-16 0 -36.5 3.5l-43.5 7.5q-14 4 -28.5 10t-30.5 16v256zM649 1337q6 74 101 74q53 -2 63 -43l100 -352l-49 -15l-207 302q-10 18 -8 34z" />
<glyph unicode="&#x3b7;&#x314;&#x300;&#x345;" horiz-adv-x="1087" d="M31 811q49 86 104 92q20 0 76 -31q51 -31 90 -26q27 2 59 10l78 21q90 27 148 26q125 0 219 -35q125 -53 133 -157q2 -20 4 -62.5t6 -101.5q4 -119 6 -265.5t2 -322.5v-264q0 -18 -20 -29q-12 -8 -66 -14q-80 0 -77 43l14 522q2 68 3 147.5t1 174.5v157q0 49 -90 80 q-70 27 -129 27q-51 2 -146 -35q-109 -39 -104 -80q2 -16 4 -43t4 -70q4 -78 5 -176t3 -219l2 -172q0 -8 -22 -20q-10 -2 -72 -4q-31 -2 -59 4q-23 8 -23 24l17 738q4 27 -33 43q-14 8 -28.5 11t-30.5 5q-18 0 -72 -33q0 8 -6 35zM287 1247q0 102 65 142q27 18 51 18 q88 0 99 -82q0 -35 -39 -45q-45 -16 -66 -33q-45 -43 -32 -58l26 -32l33 -37q23 -23 57 -28q0 -14 -10 -37q-8 -12 -49 -17q-6 0 -31 11l-33 12q-25 10 -34 33q-25 47 -33 88q-2 10 -2 26t-2 39zM457 -117q0 25 67 25q61 0 62 -25v-209q47 -10 55 -16q25 -12 41 -39 q2 -2 2 -4q0 -6 -20 -14q-10 0 -26.5 -3.5t-41.5 -7.5q-16 0 -36.5 3.5l-43.5 7.5q-14 4 -28.5 10t-30.5 16v256zM612 1337q6 74 101 74q51 -2 63 -43l101 -352l-52 -15l-207 302q-8 18 -6 34z" />
<glyph unicode="&#x3b7;&#x313;&#x301;&#x345;" horiz-adv-x="1087" d="M31 811q49 86 104 92q20 0 76 -31q51 -31 90 -26q27 2 59 10l78 21q90 27 148 26q125 0 219 -35q125 -53 133 -157q2 -20 4 -62.5t6 -101.5q4 -119 6 -265.5t2 -322.5v-264q0 -18 -20 -29q-12 -8 -66 -14q-80 0 -77 43l14 522q2 68 3 147.5t1 174.5v157q0 49 -90 80 q-70 27 -129 27q-51 2 -146 -35q-109 -39 -104 -80q2 -16 4 -43t4 -70q4 -78 5 -176t3 -219l2 -172q0 -8 -22 -20q-10 -2 -72 -4q-31 -2 -59 4q-23 8 -23 24l17 738q4 27 -33 43q-14 8 -28.5 11t-30.5 5q-18 0 -72 -33q0 8 -6 35zM311 1325q8 82 99 82q61 0 96 -72 q18 -35 18 -88v-26q0 -16 -2 -39q-4 -23 -12 -45.5t-18 -42.5q-12 -23 -35 -33l-33 -12q-27 -10 -35 -11q-39 4 -47 17q-10 25 -10 37q12 -4 57 28l35 39l25 29q12 16 -33 59q-6 6 -64 33q-41 14 -41 45zM457 -117q0 25 67 25q61 0 62 -25v-209q47 -10 55 -16q25 -12 41 -39 q2 -2 2 -4q0 -6 -20 -14q-10 0 -26.5 -3.5t-41.5 -7.5q-16 0 -36.5 3.5l-43.5 7.5q-14 4 -28.5 10t-30.5 16v256zM610 1016l105 352q10 41 59 43q96 0 103 -74q2 -20 -7 -34l-206 -302z" />
<glyph unicode="&#x3b7;&#x314;&#x301;&#x345;" horiz-adv-x="1087" d="M31 811q49 86 104 92q20 0 76 -31q51 -31 90 -26q27 2 59 10l78 21q90 27 148 26q125 0 219 -35q125 -53 133 -157q2 -20 4 -62.5t6 -101.5q4 -119 6 -265.5t2 -322.5v-264q0 -18 -20 -29q-12 -8 -66 -14q-80 0 -77 43l14 522q2 68 3 147.5t1 174.5v157q0 49 -90 80 q-70 27 -129 27q-51 2 -146 -35q-109 -39 -104 -80q2 -16 4 -43t4 -70q4 -78 5 -176t3 -219l2 -172q0 -8 -22 -20q-10 -2 -72 -4q-31 -2 -59 4q-23 8 -23 24l17 738q4 27 -33 43q-14 8 -28.5 11t-30.5 5q-18 0 -72 -33q0 8 -6 35zM348 1247q0 102 66 142q25 18 49 18 q90 0 100 -82q0 -35 -39 -45q-47 -16 -65 -33q-45 -43 -34 -58t25.5 -31.5l34.5 -37.5q23 -23 60 -28q0 -14 -13 -37q-8 -12 -49 -17q-8 0 -32 11l-31 12q-25 10 -35 33q-25 47 -33 88q-2 10 -2 26t-2 39zM457 -117q0 25 67 25q61 0 62 -25v-209q47 -10 55 -16 q25 -12 41 -39q2 -2 2 -4q0 -6 -20 -14q-10 0 -26.5 -3.5t-41.5 -7.5q-16 0 -36.5 3.5l-43.5 7.5q-14 4 -28.5 10t-30.5 16v256zM668 1016l100 352q10 41 63 43q94 0 99 -74q2 -20 -6 -34l-207 -302z" />
<glyph unicode="&#x3b7;&#x313;&#x342;&#x345;" horiz-adv-x="1087" d="M31 811q49 86 104 92q20 0 76 -31q51 -31 90 -26q27 2 59 10l78 21q90 27 148 26q125 0 219 -35q125 -53 133 -157q2 -20 4 -62.5t6 -101.5q4 -119 6 -265.5t2 -322.5v-264q0 -18 -20 -29q-12 -8 -66 -14q-80 0 -77 43l14 522q2 68 3 147.5t1 174.5v157q0 49 -90 80 q-70 27 -129 27q-51 2 -146 -35q-109 -39 -104 -80q2 -16 4 -43t4 -70q4 -78 5 -176t3 -219l2 -172q0 -8 -22 -20q-10 -2 -72 -4q-31 -2 -59 4q-23 8 -23 24l17 738q4 27 -33 43q-14 8 -28.5 11t-30.5 5q-18 0 -72 -33q0 8 -6 35zM223 1321q51 129 199 135q41 0 131 -53 q98 -61 129 -64q49 0 93 30t63 75l36 -66q-18 -53 -75 -90q-61 -39 -117 -39q-39 0 -141 62q-14 6 -34 12t-44 16q-20 12 -43 13q-111 0 -156 -99zM403 1210q8 61 99 62q37 0 51 -15q14 -4 47 -34q16 -39 16 -109v-18q0 -10 -2 -27q-4 -8 -13 -20.5t-19 -32.5 q-8 -20 -35 -33l-33 -8q-25 -14 -33 -14q-37 6 -45 20q-12 18 -12 33q12 -2 55 30q20 8 49 35q4 6 2 33q0 23 -12 35q-18 18 -72 31q-43 16 -43 32zM457 -117q0 25 67 25q61 0 62 -25v-209q47 -10 55 -16q25 -12 41 -39q2 -2 2 -4q0 -6 -20 -14q-10 0 -26.5 -3.5t-41.5 -7.5 q-16 0 -36.5 3.5l-43.5 7.5q-14 4 -28.5 10t-30.5 16v256z" />
<glyph unicode="&#x3b7;&#x314;&#x342;&#x345;" horiz-adv-x="1087" d="M31 811q49 86 104 92q20 0 76 -31q51 -31 90 -26q27 2 59 10l78 21q90 27 148 26q125 0 219 -35q125 -53 133 -157q2 -20 4 -62.5t6 -101.5q4 -119 6 -265.5t2 -322.5v-264q0 -18 -20 -29q-12 -8 -66 -14q-80 0 -77 43l14 522q2 68 3 147.5t1 174.5v157q0 49 -90 80 q-70 27 -129 27q-51 2 -146 -35q-109 -39 -104 -80q2 -16 4 -43t4 -70q4 -78 5 -176t3 -219l2 -172q0 -8 -22 -20q-10 -2 -72 -4q-31 -2 -59 4q-23 8 -23 24l17 738q4 27 -33 43q-14 8 -28.5 11t-30.5 5q-18 0 -72 -33q0 8 -6 35zM223 1321q49 129 199 135q39 0 131 -53 q98 -61 129 -64q49 0 93 30t63 75l39 -66q-20 -53 -80 -90q-59 -39 -115 -39q-39 0 -141 62q-14 6 -34 12t-46 16q-20 12 -41 13q-111 0 -158 -99zM418 1114q0 70 16 109q6 8 47 34q25 18 54 19q49 0 71 -29q12 -8 25 -37q0 -16 -43 -32q-51 -12 -72 -31q-10 -10 -12 -35 q-6 -35 22 -45q14 -6 29 -23q20 -25 55 -30q0 -14 -12 -33q-6 -14 -45 -20q-8 0 -33 14l-33 8q-20 12 -34 33q-12 10 -31 53q-2 10 -2 23q0 12 -2 22zM457 -117q0 25 67 25q61 0 62 -25v-209q47 -10 55 -16q25 -12 41 -39q2 -2 2 -4q0 -6 -20 -14q-10 0 -26.5 -3.5 t-41.5 -7.5q-16 0 -36.5 3.5l-43.5 7.5q-14 4 -28.5 10t-30.5 16v256z" />
<glyph unicode="&#x397;&#x313;&#x345;" horiz-adv-x="2109" d="M0 1325q8 82 98 82q61 0 97 -72q18 -35 18 -88v-26v-19q0 -10 -2 -20q-4 -23 -13.5 -45.5t-19.5 -42.5q-10 -23 -33 -33l-32 -12q-25 -10 -35 -11q-37 4 -47 17q-10 29 -11 37q12 -4 58 28l35 39l24 29q14 16 -33 59q-8 8 -63 33q-41 16 -41 45zM346 0v1397h189v-613h817 v613h188v-1397h-188v639h-817v-639h-189zM1726 838q0 20 31 32q4 0 47 11q31 6 43 6q23 0 39 -17l11 -18q5 -8 10 -18q6 -8 10 -103q2 -27 2 -63v-84v-330q0 -59 4 -80q12 -43 62 -74l24 -20l29 -25q0 -43 -70 -69q-49 -16 -100 -17q-72 -4 -92 152q-4 37 -6.5 90t-2.5 127 v100q0 -6 0 21t2 84q0 55 -2 99t-6 77q-8 20 -16 50z" />
<glyph unicode="&#x397;&#x314;&#x345;" horiz-adv-x="2088" d="M2 1247q-2 102 66 142q27 18 51 18q88 0 96 -82q0 -35 -39 -45q-47 -14 -63 -33q-47 -43 -33 -59q10 -14 25 -31l34 -37q23 -23 58 -28q0 -14 -13 -37q-8 -12 -47 -17q-6 0 -33 11l-32 12q-23 10 -35 33q-10 20 -18.5 41.5t-12.5 46.5q-2 6 -2 26v19q0 10 -2 20zM319 0 v1397h189v-613h817v613h191v-1397h-191v639h-817v-639h-189zM1706 838q0 20 31 32q4 0 47 11q31 6 43 6q23 0 39 -17l11 -18q5 -8 9 -18q6 -8 10 -103q2 -27 2 -63v-84v-330q0 -59 5 -80q12 -43 61 -74l25 -20l28 -25q0 -43 -69 -69q-49 -16 -101 -17q-72 -4 -92 152 q-4 37 -6 90t-2 127v100q0 -6 0 21t2 84q0 55 -2 99t-6 77q-8 20 -17 50z" />
<glyph unicode="&#x397;&#x313;&#x300;&#x345;" horiz-adv-x="2510" d="M0 1325q6 82 98 82q61 0 97 -72q16 -35 16 -88v-26v-19q0 -10 -2 -20q-4 -23 -12.5 -45.5t-18.5 -42.5q-10 -23 -33 -33l-34 -12q-25 -10 -35 -11q-37 4 -45 17q-10 29 -11 37q10 -4 56 28q23 23 37 39l24 29q14 16 -35 59q-6 8 -63 33q-39 16 -39 45zM317 1337 q6 74 101 74q57 -2 65 -43l99 -352l-50 -15l-206 302q-11 20 -9 34zM750 0v1397h190v-613h817v613h189v-1397h-189v639h-817v-639h-190zM2128 838q0 20 31 32q4 0 47 11q29 6 43 6q23 0 39 -17l11 -18q5 -8 9 -18q6 -8 10 -103q2 -27 2 -63v-84v-330q0 -59 4 -80 q12 -43 62 -74l24 -20l29 -25q0 -43 -69 -69q-49 -16 -101 -17q-74 -4 -92 152q-4 37 -6 90t-2 127v100q0 -6 0 21t2 84q0 55 -2 99t-6 77q-8 20 -17 50z" />
<glyph unicode="&#x397;&#x314;&#x300;&#x345;" horiz-adv-x="2543" d="M0 1247q0 102 66 142q27 18 51 18q90 0 96 -82q0 -35 -37 -45q-25 -8 -40 -16.5t-25 -16.5q-45 -43 -33 -59q4 -8 10 -16l14 -17l35 -35q23 -23 58 -28q0 -14 -13 -37q-8 -12 -47 -17q-6 0 -33 11l-30 12q-27 10 -35 33q-25 43 -33 88q-2 6 -2 26v19q0 10 -2 20z M324 1337q6 74 100 74q53 -2 65 -43l101 -352l-51 -15l-207 302q-8 20 -8 34zM793 0v1397h190v-613h817v613h189v-1397h-189v639h-817v-639h-190zM2163 838q0 20 30 32q4 0 48 11q29 6 43 6q23 0 38 -17l12 -18q5 -8 9 -18q6 -8 10 -103q2 -27 2 -63v-84v-330q0 -59 4 -80 q12 -43 62 -74q10 -10 23.5 -20t27.5 -25q0 -43 -68 -69q-49 -16 -100 -17q-74 -4 -92 152q-4 37 -6 90t-2 127v100q0 -6 0 21t2 84q0 55 -2 99t-6 77q-8 20 -17 50z" />
<glyph unicode="&#x397;&#x313;&#x301;&#x345;" horiz-adv-x="2516" d="M0 1325q8 82 98 82q61 0 97 -72q16 -35 16 -88v-26v-19q0 -10 -2 -20q-2 -23 -11.5 -45.5t-19.5 -42.5q-10 -23 -33 -33l-34 -12q-25 -10 -35 -11q-37 4 -45 17q-10 29 -11 37q12 -4 56 28q23 23 37 39l24 29q14 16 -33 59q-8 8 -65 33q-39 16 -39 45zM299 1016l102 352 q10 41 62 43q94 0 100 -74q4 -18 -6 -34l-207 -302zM741 0v1397h189v-613h819v613h188v-1397h-188v639h-819v-639h-189zM2134 838q0 20 31 32q4 0 47 11q29 6 43 6q23 0 39 -17l11 -18q5 -8 9 -18q6 -8 10 -103q2 -27 3 -63v-84v-330q0 -59 4 -80q12 -43 61 -74l25 -20 l28 -25q0 -43 -69 -69q-49 -16 -101 -17q-74 -4 -92 152q-4 37 -6 90t-2 127v100q0 -6 0 21t2 84q0 55 -2 99t-6 77q-8 20 -17 50z" />
<glyph unicode="&#x397;&#x314;&#x301;&#x345;" horiz-adv-x="2527" d="M0 1247q0 102 66 142q27 18 51 18q90 0 98 -82q0 -35 -39 -45q-25 -8 -41 -16.5t-24 -16.5q-45 -43 -33 -59l11 -16q5 -7 13 -17l35 -35q23 -23 58 -28q0 -14 -13 -37q-8 -12 -47 -17q-6 0 -33 11l-30 12q-25 10 -35 33q-25 43 -33 88q-2 6 -2 26v19q0 10 -2 20z M319 1016l101 352q12 41 63 43q96 0 99 -74q4 -18 -7 -34l-206 -302zM760 0v1397h188v-613h819v613h189v-1397h-189v639h-819v-639h-188zM2146 838q0 20 31 32q4 0 47 11q29 6 43 6q23 0 39 -17q4 -10 10 -18t11 -18q6 -8 10 -103q2 -27 2 -63v-84v-330q0 -59 4 -80 q12 -43 59 -74l25 -20l29 -25q0 -43 -68 -69q-49 -16 -100 -17q-74 -4 -93 152q-4 37 -6 90t-2 127v100q0 -6 0 21t2 84q0 55 -2 99t-6 77q-8 20 -16 50z" />
<glyph unicode="&#x397;&#x313;&#x342;&#x345;" horiz-adv-x="2533" d="M0 1321q49 129 199 135q43 0 131 -53q98 -61 131 -64q47 0 92 30t61 75l39 -66q-18 -53 -78 -90q-61 -39 -114 -39q-41 0 -142 62q-16 6 -35.5 12t-43.5 16q-20 12 -43 13q-109 0 -156 -99zM182 1210q6 61 97 62q39 0 51 -15q16 -2 47 -34q16 -37 16 -109q-2 -4 -2 -18 v-13q0 -6 -2 -14t-11 -20.5t-20 -32.5q-8 -20 -32 -33l-33 -8q-27 -14 -35 -14q-39 6 -45 20q-12 20 -12 33q10 -2 57 30q18 8 47 35q8 8 4 33t-12 35q-20 18 -74 31q-41 16 -41 32zM778 0v1397h189v-613h817v613h190v-1397h-190v639h-817v-639h-189zM2152 838q0 20 31 32 q4 0 47 11q29 6 41 6q25 0 39 -17q6 -10 12.5 -18t10.5 -18q6 -8 10 -103q2 -27 2 -63v-84v-330q0 -59 4 -80q12 -43 59 -74l25 -20l29 -25q0 -43 -68 -69q-49 -16 -100 -17q-74 -4 -92 152q-4 37 -6.5 90t-2.5 127v100q0 -6 0 21t2 84q0 55 -2 99t-6 77q-8 20 -16 50z" />
</font>
</defs>
</svg>
